<?xml version="1.0" encoding="utf-8"?>
<!-- Generator: Adobe Illustrator 27.0.0, SVG Export Plug-In . SVG Version: 6.00 Build 0)  -->
<svg version="1.1" id="Dolly" xmlns="http://www.w3.org/2000/svg" xmlns:xlink="http://www.w3.org/1999/xlink" x="0px" y="0px"
	 viewBox="0 0 595.3 595.3" style="enable-background:new 0 0 595.3 595.3;" xml:space="preserve">
<style type="text/css">
	.st0{fill:#FDD9BF;}
	.st1{fill:#D8A485;}
	.st2{fill:#FCEECB;}
	.st3{fill:#F54925;}
	.st4{fill:none;stroke:#000000;stroke-width:2;stroke-linecap:round;stroke-linejoin:round;stroke-miterlimit:10;}
	.st5{fill:#FFFFFF;stroke:#000000;stroke-width:2;stroke-linecap:round;stroke-linejoin:round;stroke-miterlimit:10;}
	.st6{fill:#FFFFFF;}
	.st7{fill:#A7C1CF;}
</style>
<g id="Ebene_3">
	<path class="st0" d="M388.1,499.3c6,2.7,13-0.4,18.5-4c21.6-14.5,34.7-40.8,33.4-66.8c-0.8-15-5.9-29.3-11-43.4
		c-2.7-7.5-5.4-15-9.3-21.9c-5.5-9.9-13.4-18.6-17-29.3c-3.7-10.9-2.9-23.5-9.2-33.2c-2.8-4.2-6.9-8.1-6.8-13.1c0-1.8,0.7-3.8,0-5.5
		c-0.5-1.2-1.6-2.1-2.7-2.9c-3.4-2.5-6.7-5-10.1-7.5c0.4,0.4,0.8,0.8,1.2,1.2c4.8,1.1,9.5,2.7,14,4.7c-15.5-8.3-35.4-1-51.6-7.7
		c-2-0.8-3.2-2.7-5.4-2.8c-2.1-0.1-4.8,1.5-6.7,2.4c-18.5,8.4-33.6,22.6-48.3,36.6c-1.1,1-3.2,1.8-3.7,3.1c-0.8,1.9,0.6,4.3,0.9,6.3
		c2.1,15.8-5.3,30.2-14.9,42.1c3.8,7.5,5.2,18.6,2.8,26.6s-7.1,15.1-12.5,21.5c-1.4,1.7-3.7,3.4-4.3,5.5c-1,3.4,4,13.1,5.7,16.2
		c19.6,36,50.8,56.8,88.2,73.6c6.7,3,15.5,4.7,22,1.3c2.5-1.3,4.6-3.6,4.9-6.3c0.2-1.3-0.1-2.6-0.4-3.9
		c-3.1-12.8-14.3-23.2-27.2-25.4"/>
	<path class="st0" d="M360.4,466.3c-2-2.1-5.4-2.6-8.2-1.8s-5.3,2.7-7.5,4.6c-3.5,2.9-6.9,6.1-8.5,10.3c-2.9,7.4,0.5,16.1,6.4,21.5
		s13.8,7.9,21.5,9.7c5.2,1.2,10.4,2.2,15.7,2.2c11.8,0,23.2-5,32.5-12.3s16.7-16.7,23.2-26.6c1.2-1.9,2.4-3.8,2.8-6
		c0.4-2,0-4.1-0.1-6.1c-1.2-13.7,5-26.8,11-39.2c2.6-5.3,5.8-8.9,9.8-13.3c1.6-1.8,2.6-2.8,4.1-4.8c6.2-8.2,4.5-22.8-1.7-30.9
		s-15.7-13.1-25.1-17.3c-5.7-2.5-11.7-5-17.9-4.7s-12.7,4.1-14.1,10.1c-0.5,2.3-0.3,4.7-0.1,7"/>
	<path class="st0" d="M410.9,308.4c-7-2.3-14.8,1.6-19.1,7.6s-5.4,13.6-5.5,20.9c-0.1,9.2,1.2,18.4,4.1,27.1c0.9,2.9,2.1,5.8,4,8.2
		c2.1,2.6,5.1,4.5,8,6.1c9.9,5.6,21,10.1,32.4,9.4c4.7-0.3,9.4-1.4,14-0.7c4.6,0.7,9.3,4.2,9.4,8.9c5.5,1.2,10.3-4.5,10.9-10.1
		s-1.6-11-2.6-16.5c-1.3-7-0.7-14.2-0.1-21.3c1.6-19.4,3.2-38.7,4.8-58c-8.1,1.4-16.5,2-24.3-0.3s-15.2-7.7-17.9-15.5
		c-0.3-0.9-0.6-1.9-1.4-2.5c-1.6-1.3-4,0.1-5.7,1.4c-10.4,6.3-24.8,7.9-38.4,3c-2.2-1.2-4.4-2.6-6.9-3c-6.5-1-11.8,5.5-13.7,11.8
		c-4.6,14.9,1.3,31,9.3,44.2c1.9,3.1,4,6.2,7.2,7.7c2.2,1,4.7,1.1,7.1,1.2c3.5,0.1,7,0.3,10.5,0.4c6.8,0.3,13.8,0.5,20.3-1.6
		s12.5-7.1,13.9-13.8c0.8-3.7-0.1-7.9-3-10.3s-7.7-2.5-10.1,0.4"/>
	<path class="st0" d="M369.9,273.9c0-0.3,0-0.6,0.1-0.9c0.1-0.2,0.3-0.3,0.5-0.4c0.5-0.3,1.1-0.5,1.7-0.5c0.2,0,1.5-0.5,1.7-0.4
		c0.5,0.2,2.5,0.9,2.7,1.4c0,0.1-2.7,0.6-2.7,0.8c0,0.2-0.2,0.3-0.3,0.4c-0.4,0.3-1,0.3-1.5,0.4c-0.8,0-1.5,0-2.2-0.2"/>
	<path class="st0" d="M471.5,289.9c-0.7,0.3-1.4,0.6-1.8,1.3c-0.2,0.4-0.2,0.8-0.3,1.2c-0.1,0.8-0.1,1.6-0.2,2.4
		c0,0.4,0,0.7,0.1,1.1s0.4,0.7,0.7,0.8c0.4,0.1,0.8-0.1,1-0.4s0.4-0.6,0.5-1c0.2-0.5,0.3-1.1,0.5-1.6c0.2-0.9,0.6-1.9,0.2-2.7
		c-0.1-0.2,0.3-1.2,0.2-1.4c-0.1-0.4-1,0.1-0.8-0.2"/>
	<path class="st0" d="M427.2,270.2c-1.6,0.9-2.5,2.6-3.3,4.2c-0.3,0.6-0.5,1.3-0.3,1.9s0.9,1,1.5,1s1.3-0.1,1.9-0.3
		c0.5-0.1,1-0.3,1.4-0.6s0.6-0.9,0.6-1.4c0.3-1.7-0.2-3.5-0.7-5.1"/>
	<path class="st0" d="M426.8,273.7c-0.2-0.3-0.4-0.5-0.6-0.8c2.3,0.3,4.1,2,5.5,3.8c1.3,1.9,2.4,3.9,4,5.6c0.7,0.8,1.6,1.4,2.2,2.3
		s0.8,2.2,0.1,3c-0.4,0.5-1,0.7-1.5,0.9c-4.6,1.6-10.2,0-13.2-3.8"/>
	<path class="st1" d="M131.9,454.6c5.8,2.4,11.6,4.8,17.4,7.1c1.6-6.5,3.9-12.7,6.9-18.6c-3.9-4.1-7.8-8.2-10.2-13.3
		c-2.5-5-3.4-11.1-1-16.2c0.6-1.3,1.4-2.5,1.4-3.9c0-2.2-2-3.8-3.7-5.2c-6.1-5.5-9.2-13.8-9.8-22s1.1-16.4,3.4-24.3
		c0.5-1.9,1.1-3.8,0.8-5.7c-0.3-1.9-1.6-3.6-2.2-5.4c-2-5.7,1.4-11.7,2.9-17.5c1.7-6.9,0.6-14.1,1.6-21.1s5.1-14.6,12-15.7
		c-1.4-5.8-0.6-12,2.2-17.3c1-1.9,3.2-3.9,3.8-5.9c0.6-2.3-0.6-4.6-0.9-7c-0.9-7-1.1-14.2,0.8-21c2.8-9.9,10.3-18.4,19.9-22.2
		c9.5-3.9,20.9-3,29.7,2.2c-0.3-1.2-2.4-6.1-2.9-8.6c-1.5-7.9,0.4-16,5.4-22.3c3.8-4.7,6.9-6.1,7.7-7.2c8.2-10.3,8.5-12.3-5.3-12.3
		c-22.7,0-81.9-20.3-104.6-20.3c-6.5,0-26.3,31.4-31.2,35.7c-3.1,2.7-17,29.7-18.6,33.5c-2.4,5.8-5.3,10.6-7.7,16.4
		c-2,4.8-3.7,10-5.1,14.9c-2.4,8.3-5.5,25.5-6.9,31.7c-2.3,10-1.3,45.1,4.6,69.9c7.3,30.6,28.7,57.9,52.2,78.9
		c11.9,10.7,25.6,20.3,41.4,23.3c0,0-92.3-196.8-91.4-197.6l-4.1,23.7"/>
	<path class="st1" d="M455.1,157.6c8.4-17.2,17-34.6,28.6-49.8s26.8-28.4,45-34.6c5.6-1.9,13.3-4,16.4,1c1.2,2.1,1.1,6.2,1.1,8.6
		c0.9,37.3-10.6,75.4-30,107.4c-13.5-7.5-28.7-9.3-43.1-3.8c-2.1,0.8-4.2,1.7-6.4,1.6c-1.7-0.1-3.3-0.9-4.9-1.6
		c-5.4-2.6-10.8-5.2-16.2-7.8c-5.5-2.6-12-7.2-10.5-13.1c1.4-5.4,8.4-6.9,14-7s12.5-0.9,14.6-6.1l-8.9,4.9"/>
	<path class="st1" d="M460,156.4c-9.1-1.1-18.2-0.6-27.4-0.3c-27.8,1-54.6-9.1-80.5-19.1c-18.3-7-36.5-14.1-54.8-21.1
		c-10.7-4.1-21.4-8.2-32.5-11c-12-3-24.4-4.3-36.7-5.4c-12-1-24.2-1.8-36,0.8c-18.1,4-33.5,15.4-48.3,26.5c-2.6,1.9-5.2,3.9-6.9,6.6
		c-5.4,8.6,0.2,19.8,7.2,27.2c15.5,16.3,39.3,25.6,61.1,20c4.1-1.1,9.1-2.4,12.1,0.5c5.6-5.3,13.7-7.7,21.2-6.3s14.3,6.5,17.7,13.3
		c4.9-10.6,18.6-16.2,29.5-12c8.3,3.2,12.5,9.2,18.4,12.4c4.2,0.4,18.1-0.7,22.2-1.7c9.8-2.4,19.1-0.6,28.7-3.2
		c26.8-1.5,50.3-3.7,77.1-5.2c9.9-0.5,20.9-1.6,27.3-9.1c4.3-5,5.6-11.9,6.2-18.5c0-0.3,0.1-0.6,0-1c-0.4-1.5-2.7-1.3-4.1-0.6
		c-3.1,1.7-5.6,4.3-7.2,7.5"/>
	<path class="st1" d="M445.9,175c-1.3-0.5-2.8-0.9-4.2-0.8s-2.9,0.7-3.7,1.9c-0.2,0.3-0.3,0.6-0.3,0.9c0.1,0.3,0.3,0.5,0.6,0.7
		c1.6,1.2,3.7,1.6,5.7,1.5c1.1-0.1,2.3-0.3,3.1-1c0.3-0.3,0.6-0.7,0.6-1.1c0-0.3-0.2-0.6-0.4-0.9c-1.1-1.4-2.5-2.4-4.1-3"/>
	<path class="st1" d="M467.7,184.4c-1.1,0.2-2.1,1-2.4,2.1s0.3,2.4,1.4,2.6c1.3,0.3,2.4-0.8,3.3-1.7c1.3-1.5,2.6-3.1,2.7-5"/>
	<path class="st1" d="M179.7,108.8c-0.5-2.2,0.7-3.4-1.5-3.4s-7.2,2.1-9.2,3.2c-23.3,11.3-46.5,24.5-63.4,44.1c-0.9,1-1.8,2.1-2,3.4
		c-0.4,2.3,1.2,4.4,2.8,6.1c8.5,8.2,21.8,11.1,32.9,7.2c6.9-2.4,12.7-7.1,18.3-11.8c6.6-5.5,13.2-11.2,19.1-17.5
		c4.4-4.7,8.5-10,10.4-16.2c1.4-4.7,1.3-10.4-2.2-13.9"/>
	<path class="st1" d="M197.3,83.9c-3.4,8.8-2.4,4.2-6.4,12.8c-0.8,1.6,0.5,4.6,2.3,5c0.6,0.1,4.3-0.6,4.9-0.8
		c10.1-4.3,25.2-1.5,36.2-0.8c34,2.5,58.2,11.8,89.5,25.3c1.9,0.8,4.3,1.4,6.5,1.6c2.6,0.2,9.4-3.7,12-4.2
		c34.8-5.6,60.1-2.5,91.4,4.9c-2.5-7.4-5.2-14.2-8.8-21c-7.4-13.9-15.1-26.2-23.8-40.5c-4.9-8.1-12.9-15.5-20.4-21.3
		c-4.5-3.5-9-7.1-14-9.9c-7.8-4.4-14.3-8.7-22.8-11.3c-5.6-1.7-11.7-3.6-17.6-4.3c-7.1-0.8-14.2-1.4-21.3-1.4
		c-39.4,0.2-83,24.1-102.9,58.1"/>
	<path class="st1" d="M195.3,94.8c-1.4-0.7-3.3-0.3-4.4,0.8c-1,1.1-1.3,2.6-1.4,4c-0.1,0.5-0.1,1.1,0.1,1.5c0.2,0.4,0.6,0.7,1.1,0.8
		c1.7,0.6,3.7-0.7,4.4-2.3c0.8-1.7,0.7-3.6,0.6-5.4"/>
	<path class="st1" d="M38.2,293.1c-5,13.1-2.2,27.8,0.8,41.6c0.5,2.3,1.1,4.9,3.1,6.3c3.1-5.2,4.2-11.4,4.5-17.5
		c0.4-7,0-14.1-1.4-21c-0.8-4.3-2.4-9.1-6.3-11"/>
	<path class="st1" d="M145.3,454.6c-0.8,1.4-1.5,2.9-2.3,4.3c0.8,2,4.1,1.7,5.2-0.1c1.1-1.8,0.6-4.2-0.6-6"/>
	<path class="st1" d="M143,408.5c-1.7,0.7-3.3,1.8-4.7,3c0.3,1,0.6,1.9,1.3,2.7c0.7,0.7,1.8,1.1,2.7,0.6c0.4-0.2,0.7-0.6,0.9-1
		c1.4-2.1,1.9-4.8,1.4-7.2"/>
	<path class="st1" d="M228.1,168.7c-3.4-1.3-7.3-0.1-10.1,2.2s-4.7,5.5-6.5,8.6c-1.2,2.1-2.5,4.5-1.7,6.8c6.4-1.3,12.1-5.1,17.1-9.3
		c1.6-1.3,3.1-2.7,4-4.6c0.9-1.8,1-4.1-0.1-5.8c-1.2-1.6-3.9-2.2-5.3-0.7"/>
	<path class="st2" d="M155.4,495c-11.9,5.1-19,21.6-15.1,34s15.9,19.8,28.6,17.1c-2.2,0.2,1.1,2.6,1.9,4.7
		c7.2,11,17.8,20.3,30.5,23.9s27.6,0.8,36.7-8.7c1.7,0.6,4.3,2.6,6,3.2c8,2.8,9.5,4.9,17.7,2.8c6.3-1.7,15.3-3.1,20.6-13
		c4.2-9.6,0.9-21-4.8-29.8c1.3-5,1.6-10.2,0.9-15.4c9-8.6,15.1-20.2,17.4-32.4c0.2-1.3,0.4-2.6,0-3.9c-0.5-1.5-1.9-2.5-3.1-3.5
		c-15.5-11.7-28.5-27.5-40.4-42.7c0.1,3.9-0.3,11.3-0.6,15.2c-0.6,7.5-4.2,14.9-11.6,16.4c-4.5,0.9-9.1-1.5-12.6-4.5
		c-8.6-7.3-13.9-18.4-13.9-29.7c0.3,1.6,3.2-6.9,2.1-8c-1.2-1.1-1.4-2.5-1.5-4.1c-0.8-10.8-12.6-11.4-18.9-20.3
		c-4.9-7-9.9-14-14.8-21c-7.8-11-17.4-23.2-30.9-24c-4.4-0.3-9.1,0.9-12.1,4.1c-1.7,1.8-2.7,4.1-3.5,6.5
		c-5.8,16.9,0.8,37.4,15.5,47.6c-3.8-0.3-5.7,4.5-5.8,8.3c-0.1,10.3,4,19.6,12.6,25.2c-6.3,4.1-7.5,12-8.2,19.5s0,15.4,2.6,22.4
		c3.8,9.9,9.3,19.1,16.2,27.1"/>
	<path class="st2" d="M278.7,494.2c-2-0.6-4.3,0.3-5.6,1.8c-1.4,1.6-2,3.7-2.4,5.7c-0.3,2.1-0.3,4.3,0,6.4c0.1,0.8,0.4,1.7,1.1,2.1
		c0.5,0.3,1.2,0.3,1.8,0.3c1,0,2.1-0.1,3.1-0.1c0.9,0,1.9-0.1,2.7-0.6c0.9-0.5,1.4-1.5,1.9-2.4c1.7-3.3,3.5-6.8,3.1-10.5
		c-0.3-3.2-2.2-6.1-4-8.7"/>
	<path class="st2" d="M294.2,477.5c-3.6,2.6-4.8,7.5-5.6,11.9c-0.7,3.7-1.4,7.5-2.2,11.2c-0.1,0.3-0.1,0.6,0.1,0.9
		c-1.2,1,1.1,3.5,1.6,3.3c2.9-1.8,4.9-8,6.2-11.1c1.3-3.1,2-6.5,2.6-9.8c0.3-1.6,0.6-3.2,0.5-4.8s-0.8-3.3-2.1-4.3"/>
	<path class="st2" d="M281.9,504.1c-1.2,0.1-2.5-0.9-3.6-0.2c-0.5,0.3-0.8,0.8-1,1.4c-2.4,5.6-4,11.5-4.8,17.6
		c-0.5,3.6-0.6,7.2,0.3,10.7c0.1,0.5,0.4,1,0.8,1.2s0.9,0,1.3-0.3c2.5-1.5,3.7-4.4,4.1-7.3s0.1-5.7,0.2-8.6s0.8-5.9,2.7-8
		c0.8-0.9,1.7-1.5,2.4-2.5c1-1.4,7.8-4.3,4.7-4.9"/>
	<path class="st2" d="M254.4,561.2c-2.4-0.7-4.9-1.3-7.2-0.5s-4.2,3.3-3.4,5.6c0.5,1.5,2,2.4,3.3,3.2c1.6,1,3.3,2,5.2,2.3
		c0.8,0.1,1.5,0.1,2.3,0.2c1.8,0,3.7,0,5.6,0.1c3.1,0,6.4,0,8.8-1.9c3.1-2.5,3.5-7.1,2.8-11.1"/>
	<path class="st2" d="M375.6,268.5c-0.6,1.1-0.3,2.6,0.5,3.6s1.9,1.7,3.1,2.2c3.3,1.5,7,2.1,10.7,1.6c1.4-0.2,2.8-0.5,4.2-0.3
		c0.9,0.1,2.2,0.2,2.4-0.7c0-0.3-0.1-0.6-0.3-0.9c-2.4-4.4-6.1-8.2-10.4-10.7c-3.7-2.1-7.9-3.4-11.2-6.2"/>
	<path class="st2" d="M381.5,268.9c-0.1,2.4,2.1,4.2,4.1,5.5c3.3,2.2,7,4.5,10.9,4c1.2-0.2,2.4-0.6,3.7-0.9c1.4-0.3,3.1-0.6,3.7-1.9
		c0.4-0.9,0-2-0.5-2.9c-1.5-3-3.3-5.9-5.5-8.5c-1-1.1-2-2.3-3.3-2.9c-3-1.5-6.6-0.5-9.7-1.7"/>
	<path class="st2" d="M141.6,355.7c-4-3.5-4.8-9.4-4.2-14.6c0.7-5.2,2.6-10.3,3.1-15.5c0.6-5.5-0.3-11.2,0.3-16.7
		c0.5-5.6,2.9-11.5,7.9-14c1.4-0.7,2.9-1.1,3.7-2.4c0.8-1.4,0.4-3,0.2-4.6c-0.6-4.2,0.6-8.7,3.1-12.1c1.1-1.5,2.6-3,3-4.9
		c0.4-1.7-0.2-3.4-0.7-5.1c-3.9-14.3,0.4-30.8,11.6-40.5c11.2-9.7,28.9-11.4,41.2-3.2c-6.5-6.9-7.8-18-3.1-26.2c2.2-3.9,5.5-7,9-9.8
		c6.5-5.4,14.2-10.2,22.6-10.5s17.6,5.6,18.2,14c6.4-14,27.3-18.6,39-8.6c3.3,2.8,6,6.6,10.1,7.9c1.9,0.6,3.9,0.7,5.8,1.2
		c6,1.6,9.8,7.1,13.9,11.7c16,17.8,44.1,23.4,65.8,13.1c-3,16-13,30.6-26.8,39.1c-12,7.4-26.2,10.2-39.1,16
		c-20.2,9.1-36.2,25.3-51.8,41.1c3.3,17-3.3,33.7-15,46.5c5.6,12.4,4.5,27.7-2.8,39.2c-9.8,15.4-26.7,24.2-43.9,30.4
		c-1.2,0.4-2.4,0.9-3.7,0.7c-2-0.2-3.5-1.7-4.9-3.2c-3.4-3.9-6.4-8.2-8.6-12.8c-4.1-8.3-6.8-18.3-14.9-22.7"/>
	<path class="st2" d="M302.6,189.7c13.1-2,26.4-3.1,39.6-4.3c13.7-1.2,27.5-2.4,41.2-3.6c19.8-1.7,39.7-3.5,59.6-2.7
		c6.1,0.2,12.8,0.9,17.1,5.3c1.2,1.3,2.3,2.8,3.8,3.7c3.9,2.4,8.8-0.4,13-2.3c12.4-5.6,29.3-4.8,39.3,4.4c4.9-7,14.4-7.6,21.6-2.9
		c6.7,2.8,11.9,13.1,13.1,21.1s-0.7,16.4,3.3,23.5c1.1,1.9,2.4,3.8,3.1,5.9c0.9,2.9,0.5,5.9-0.4,8.8c-2.5,8.9-8.5,16.3-14,23.7
		c-4.2,5.8-8.3,12.1-8.6,19.3c-0.1,2.2,1.8,4,1.4,6.1c-0.4,2.2-0.5,3.8-1.6,5.7c-5.8,10.2-11.7,19-20.9,26.2
		c-1.9,14.5-12.7,28.3-24.3,37.1c-4.7,3.6-10.9,8.4-16.2,5.8c-2.4-1.2-4.2-3.4-5.4-5.8c-2.4-5-1.6-11.3-1-18.5
		c1.7-20.4,4.2-37.6,7.4-58.4c-2.1,0.1-0.1-1.4-2.8,0.1c3.4,2.3-1.8-1.6,0.6-2c-8.3,4.7-18.8,5.3-27.6,1.4s-15.5-12-17.6-21.3
		c-11.6,8.8-27.3,15-40.6,9.2c-3.6-1.5-6.9-3.9-10.8-4.2c-2.1-0.1-4.2,0.4-6.4,0.8c-9.7,1.9-19.9,1.4-29.3-1.6
		c-2.8-0.9-5.5-2-7.9-3.6c-3.3-2.3-5.7-5.6-8.1-8.9c-6-8.2-11.9-16.4-17.9-24.6c-4.2-5.8-8.5-11.7-11-18.4
		c-1.5-4.1-2.3-8.5-1.4-12.7s3.9-8.2,8.1-9.4"/>
	<path class="st2" d="M468,355.9c-2.6,6.9,0,14.6,1,21.9c1.3,9.7-0.5,20-6.2,27.9c-2,2.9-4.6,5.4-6.8,8c-7.4,8.9-12,19.8-15.5,30.9
		c-1.6,5.1-1.8,8.8-1.7,14.1s1.6,11.3,5.4,15c3.9,3.9,8.7,6.3,14.2,6.5c10.4,0.3,20-4.8,27.3-12.2c7.3-7.4,10.1-17.6,10.9-26.4
		c6.4,5.8,17.9,2.5,24.3-3.3c8.7-7.7,11.7-20.6,9-31.9s-9.5-20.1-19.2-26.4c-2.6-14.5-11.6-28.8-22.9-38.3"/>
	<path class="st2" d="M445.2,274.4c-2.1,1.8-4.3,3.9-4.2,6.7c0.1,2.4-0.6,4.3,1.2,5.9c1.3,1.2,5.2,2.5,6.8,3.2
		c1.4,0.6,2.9,0.9,4.4,1.1c2.8,0.3,5.7,0.4,8.5,0.3c3.1-0.1,6.3-0.6,9.1-2.1s5-4.3,5-7.4c0.1-2.6-1.3-5.1-3-7.1s-3.8-3.6-5.5-5.6"/>
	<path class="st2" d="M412.8,270.2c-1.8-0.1-3.6,0-5.3,0.6c-1.7,0.6-12.1,3.6-12.7,5.3c-0.5,1.7,9.1,2.1,10.7,3
		c1.8-0.4,2.5-0.6,4.3-1.3c2.7-1,6.7-1.1,9.2-2.7c2.2-1.5,4.2-3.4,6.5-4.7c0.6-0.4,1.3-0.7,1.9-1.2s1.1-1.2,1.4-2
		c1.2-2.6,1.2-5.9-0.8-8s-6-2-7.3,0.6"/>
	<path class="st2" d="M553.7,255c-1.7-0.1-3.4,0.8-4.7,2c-1.2,1.2-2.1,2.7-3,4.2c-3,5.1-6,10.2-9,15.3c-0.3,0.4-0.5,0.9-0.6,1.4
		c0,0.5,0,2.5,0.6,2.6c0.3,0.1,1.8-0.5,2.1-0.6c4.5-2.1,7-6.9,9.5-11.2s3.9-9.1,5.1-13.9c0.2-0.7,0.3-1.5-0.2-2.1"/>
	<path class="st2" d="M538.2,279.7c-0.8-0.3-1.8,0.1-2.5,0.7c-0.6,0.6-1,1.5-1.4,2.3c-1.9,4.5-3.5,9.4-2.4,14.2
		c0.1,0.4,0.2,0.8,0.5,1c0.6,0.6,1.6,0.2,2.3-0.3c1.8-1.4,3-3.4,3.7-5.5s1-4.4,1.2-6.6c0.2-2.3,0.3-4.5,0.1-6.8c0-0.7-0.3-1.6-1-1.6
		"/>
	<path class="st2" d="M555.1,248.1c-6.1,4.8-10.3,11.9-11.6,19.6c-0.2,0.9-0.1,2.1,0.8,2.5c0.5,0.1,1,0,1.4-0.2
		c4.4-1.9,7.8-5.7,9.2-10.3c0.6-1.8,0.8-3.8,1.4-5.6c0.8-2.7,5-7.4,3.5-9.8"/>
	<path class="st2" d="M551.1,224.2c-1.1,2.6-0.8,5.6,0.1,8.3c0.5,1.6,1.1,3.1,2.2,4.4s1.9,9.6,3.5,9.7c2.7,6.1,5.4-7.4,1.3-7.5
		c0.3-0.2,0.4-0.7,0.3-1.1c-0.3-3.8-1.1-7.6-2.4-11.2c-0.3-0.8-0.6-1.7-1.3-2.2c-1-0.9-2.7-1.2-3.3-2.4"/>
	<path class="st3" d="M213.8,427.8c9.7-3.6,18.9-8.5,27.3-14.6c0.8-0.5,1.6-1.1,2.5-1c1.2,0.2,1.9,1.6,2.3,2.8
		c2.4,7.1,4.8,14.3,5.3,21.8s-0.5,16.3-5.5,22c-2,2.3-5.3,3.3-8.3,3.4c-2.1,0-4.2-0.9-6-2c-4.7-2.8-8.7-6.9-11.4-11.7
		c-1.7-3-2.9-6.4-4.1-9.6c-1.4-3.8-2.8-7.9-1.8-11.9"/>
	<path class="st3" d="M336.1,125.4c-1.9,0.5-3.8,0.9-5.7,1.4c26.4,11.2,53.6,20.3,81.5,27.1c10.1,2.5,20.6,4.7,30.9,2.9
		c0.8-0.1,1.6-0.3,2-1c0.5-0.8,0.1-1.7-0.2-2.5c-2.3-5.5-4.6-10.9-6.9-16.4c-1.4-3.4-2.9-6.9-5.8-9.1c-2.8-2.2-6.5-2.9-10-3.5
		c-28.6-4.8-58.6-7.8-86.3,1.2h-0.1"/>
	<path class="st3" d="M432.2,126.4c-1.2,1.3-2.5,3.1-1.9,4.8c0.2,0.6,0.7,1.1,1.2,1.6c1,0.9,2.1,1.8,3.2,2.5
		c0.2,0.1,0.3,0.2,0.5,0.2c0.3,0,0.6-0.3,0.7-0.6c1.3-2.6,0.1-6.2-2.5-7.5"/>
	<path class="st3" d="M321.6,416.1c-0.9,1.8,2.8,4.7,4.4,5.9s3.7,2.7,5.4,3.8c3.1,2,4.9,4.5,7.5,7.2c0.5,0.6,1.2,1.1,1.9,1.2
		s1.7-0.3,1.8-1.1c0.1-0.4-0.1-0.8-0.3-1.2c-0.9-2-1.9-3.9-3.1-5.7c-0.2-0.4-0.5-0.8-0.4-1.2c0.1-0.2,0.2-0.3,0.3-0.4
		c2.2-2.2,5.8-2.3,8.2-4.2c0.3-0.3,0.6-0.6,0.7-1c0.1-0.6-0.4-1.2-0.9-1.5c-0.6-0.3-1.2-0.3-1.8-0.3c-6.8,0-13.3-0.6-20.1-0.6"/>
	<path class="st3" d="M339.5,433.8c2.7,2.6,5.3,5.3,8.1,7.8c7.3,6.5,15.6,12.1,24.8,15.6s19.3,4.8,28.9,2.8c5.5-1.1,11-3.4,14.3-8
		c2.4-3.4,3.3-7.5,4.2-11.6c1.3-6,2.5-12,3.8-18c0.1-0.3,0.1-0.6,0.1-0.9c-0.1-0.6-0.7-1-1.2-1.3c-5.8-3.4-13.2-3.9-19.4-1.3
		c-2.4,1-4.6,2.5-7.2,2.9c-4,0.6-7.6-2.4-11.3-4.1c-4.2-1.9-9-2.5-13.6-2.7c-7.1-0.3-14.1,1.3-21.2,1.5c-3.7,0.1-11.3-0.8-10.7,2.7
		c-2.3,1.6-3.5,4.5-3,7.2s2.6,5,5.3,5.7"/>
	<path class="st3" d="M425.1,420.1c-0.7-0.4-1.6-0.3-2.3,0.2s-1.1,1.2-1.4,1.9c-0.3,0.8-0.8,3.4-0.2,4s0,4.9,0.7,4.3
		s3.3-7.3,3.7-8.2c0.1-0.3,0.2-0.5,0.4-0.8c0.1-0.2,0.2-0.4,0.2-0.6c0-0.7-0.7-1.2-1.4-1.5"/>
	<path class="st3" d="M383.4,418.5c0.5-0.5,1.4-0.6,2.1-0.4s1.4,0.6,2.1,1c1.1,0.6,2.3,1,3.3,1.6c1,0.7,2,1.7,2.1,2.9
		c0,0.1,0,0.3-0.1,0.4c-0.1,0.2-0.3,0.2-0.5,0.3c-3.1,0.7-6.4-0.6-9-2.4c-0.3-0.2-0.7-0.6-0.6-1"/>
</g>
<g id="Ebene_2_00000016059692421583422250000008301663254437033093_">
	<path class="st4" d="M259.1,358.4c8.1,16.2,1.9,36.8-10.9,49.6s-30.8,19-48.5,22.6"/>
	<path class="st4" d="M226.3,234.4c-6.1,1.3-11.6-3.7-15.6-8.5c-3.5-4.1-6.9-8.6-8.1-13.8c-1.5-6.5,0.4-13.4,4.2-18.9
		s9.2-9.6,14.9-13c4.5-2.6,9.4-4.9,14.5-5.1c10-0.5,19.6,7.9,20.5,17.9c0.6,6.4,3.1,16.3-8.4,15.1c-0.8-0.1-3.8-0.9-3.1-1"/>
	<path class="st4" d="M148.1,460.8C89.5,445.7,44.3,388.1,37.3,328.1S55.1,207,95.4,161.9c27.1-30.3,62.5-55,102.7-61.1
		c41.6-6.2,83.3,7.9,122.4,23.2s78.9,32.6,121,32.8c42,0.2,89.4-18.5,102.4-58.4c6.5-20,2.6-29.9-9.2-26.9
		c-37.3,9.4-55.5,39.3-79.2,84.1"/>
	<path class="st4" d="M517,190.1c21.2-34.2,29.9-71.8,29.9-103.5"/>
	<path class="st4" d="M188.8,101.6c12.8-32.6,38.4-60.3,70.7-74s70.7-12.7,101.5,4.1c45.6,24.9,66,76,84.6,124.5"/>
	<path class="st4" d="M327.5,126.9c38.4-9.6,68-10,106.1,0.9"/>
	<path class="st4" d="M297.5,477.2c1.9,10.3-8.9,30.2-17.3,36.3"/>
	<path class="st4" d="M272.7,490.8c7.6,9.9,9.8,28.8,5.2,40.4"/>
	<path class="st4" d="M242.3,481.2c10.4,8.3,17.5,20.6,19.4,33.8"/>
	<path class="st4" d="M217.9,504c20.1-1.7,40.8,6.1,54.8,20.7c8.8,9.2,15.1,23,9.8,34.5c-5.2,11.3-19.9,15.7-31.8,12.5
		c-11.9-3.2-21.4-12.4-28.9-22.3c8.6,1.2,17.4,2.4,26,0.9c8.6-1.5,17.1-6.2,20.9-14"/>
	<path class="st4" d="M229.8,525.1c9.9,3,19.1,13.5,23.9,22.7"/>
	<path class="st4" d="M200.8,546.8c-2.8-10.8,4.1-23.2,14.7-26.5"/>
	<path class="st4" d="M191.9,508.3c-9.6,13.1-10.4,32-1.8,45.8"/>
	<path class="st4" d="M165.9,522.3c-1.8,24.4,9.3,38.5,24,47.8s36.1,8.8,47.8-4.1"/>
	<path class="st4" d="M154.9,495.4c-11.5,2.4-18.5,22.7-14.7,34s16.4,18.9,28.2,17.1"/>
	<path class="st4" d="M166.8,506.3c-9.7-7-16.4-17.9-18.1-29.7s0-23.7,7.1-33.2"/>
	<path class="st4" d="M146.2,408.5c-8,12.2,0.2,28,9.6,34.9"/>
	<path class="st4" d="M160.4,416.9c-11.6-4.1-21.2-13.3-25.8-24.7c-4.6-11.4-2.2-29.4,2.7-38.6"/>
	<path class="st4" d="M177,342.8c-5.7,3.5-13.4,3.6-19.1,0.2s-9.4-10.1-4.5-23.7c11,11,30.4,12.1,42.6,2.4"/>
	<path class="st4" d="M160.4,306c-13.8-11.3-12.7-28.1-3.5-37.2"/>
	<path class="st4" d="M172.9,286c-12.6-6.8-20.4-21.5-19.2-35.7c1.2-14.3,11.5-27.3,25.1-31.9c7.5-2.5,15.9-2.5,23,0.8
		s12.8,10.1,14,17.8s-2.6,16.3-9.5,20s-16.6,1.8-21-4.7c-4.4-6.5-2.3-16.7,4.7-20.3"/>
	<path class="st4" d="M176.8,263.4c7.6,8,20.1,11.1,30.6,7.4"/>
	<path class="st4" d="M234.3,188.4c-0.9,8.2,4.5,16.6,12.3,19.2c7.8,2.6,17.2-0.8,21.5-7.8"/>
	<path class="st4" d="M248.5,231c-7.1,1.1-14.6-1.6-19.4-7s-6.4-13.3-4.3-20.1"/>
	<path class="st4" d="M303,188.4c38.7-3.5,81.3-5.9,120.1-9.4c15.8-1.4,38,0.5,44.2,11"/>
	<path class="st4" d="M299.3,404.5c-3.7,2-6.3,5.8-6.8,9.9s1,8.5,4,11.4"/>
	<path class="st4" d="M333.1,445.1c-9.4-7.1-16-17.7-18.4-29.2c20.9-10.1,38.8-25.4,56.5-40.4c-2.4,3.8-4.8,7.6-5,12.2
		c-0.1,2.5,0.6,5,2.2,6.9c4.9,5.6,13.9,1.7,20.6,4.5c4.4,1.8,7.1,6.2,11.1,8.8c4.4,2.7,10.2,2.8,14.7,0.2c4.4-2.6,7.6-8,7.1-12.8
		c0-0.2,0.4-0.3,1-0.6c0.2-0.1,0.3-0.2,0.5-0.3c2.9-1.9,4.5-1.9,3.3-5.7c-0.7-2.2-2-4.3-3.5-6.1c-8.4-10.4-15.8-22.3-18.4-35.5
		c-2.5-12.2-0.4-25.8,7.5-35.5"/>
	<path class="st4" d="M427.5,390.4c1.3-0.8,3-0.5,4.3,0.2s2.2,2,3.1,3.2c3.2,4.3,6.4,8.6,9.5,13.1"/>
	<path class="st5" d="M339.3,425.7c11.5-8,30.5-0.9,46.7,1.1c10.6,1.3,21.4,0.5,31.7-2.3c1.6,9-6,17.5-14.7,20.1s-18,1-27-0.8
		c-7.1-1.4-14.3-2.8-20.8-6S344.8,433,339.3,425.7"/>
	<path class="st4" d="M433.6,199.8c18.5,1.6,34.4-13.4,52.7-16.4c14.7-2.4,30.5,4,39.5,15.8c9,11.9,10.9,28.7,4.7,42.3
		c-3.1,6.8-8.2,12.8-14.9,16c-6.7,3.3-15,3.5-21.4-0.3"/>
	<path class="st4" d="M504.4,222.9l2.4-6.7c1.5-4.3-1.1-9-5.7-9.6c-8.9-1.3-19,3.7-22.1,12.4c-5,14.2,7.2,28.8,7.6,43.8
		c0.3,9.7-4.7,19.3-12.7,24.7s-18.9,6.3-27.7,2.3c-7.6-3.4-13-9.8-16.7-17.4c-3-6.2,3.3-12.7,9.5-9.8c10.6,4.9,22.9,6,34,2.5"/>
	<path class="st4" d="M459.4,252.9c-1.7,4.4-3.3,8.8-5,13.1"/>
	<path class="st4" d="M420.5,224.1c0.6,11.6-4.1,23.3-12.5,31.2"/>
	<path class="st4" d="M374.6,271.2c16.3,10.3,40,10.4,53.9-3"/>
	<path class="st4" d="M299.8,251.6c21,2.4,43-7.4,55.4-24.6"/>
	<path class="st4" d="M322.4,228.1c12.8-3.4,24.7-10.4,33.9-20"/>
	<path class="st4" d="M289.7,275.2c-14.6,7.8-32.5,9.1-48.1,3.7c-1.4,5,0.2,10.7,4,14.2s9.6,4.6,13.5,4.1
		c-16.7,0.7-33.6-6.7-44.5-19.3c-2.9,7.8-1.1,17,4.3,23.2c5.4,6.2,14.4,9.2,22.7,7c-13.3,6.5-29.9,5.9-42.7-1.6
		c0.1,12.1,6.7,24,17,30.5s23.9,7.3,34.8,2.1c-11.8,12.2-28.8,19.3-45.9,19c-1.1,3.1,2.3,5.9,5.3,7.2c16,7,42.5,2.2,52.4-12.1
		c12.5-18.1,13.3-27.4,9.9-43.7"/>
	<path class="st4" d="M175.4,411.7c13.1,4,28.1,1.1,38.7-7.5"/>
	<path class="st4" d="M185.6,393.6c15.4,2.7,31.9-1.2,44.4-10.5"/>
	<path class="st4" d="M214.1,427c0.3,11.8,4.6,22.6,13.2,30.7c3.2,3,7.2,5.6,11.5,5.3c7.4-0.5,11.6-8.8,12.7-16.2
		c1.7-11.7-0.6-23.9-6.6-34.1"/>
	<path class="st4" d="M473.8,287.7c-4.7,18.9-7.1,48.8-7.2,70.7c-0.1,15.9,6.5,24.9-2.5,46.1"/>
	<path class="st4" d="M251.1,428.8c31.7,41.1,54,57.5,91.2,73.9c15.4,6.8,32.6,12,49,8c23.5-5.9,35.6-22.2,47.8-43.1"/>
	<path class="st4" d="M515.1,416.7c-1.4-11.8-12.9-20.8-24.7-21.6c-11.8-0.8-23.4,5.4-31.4,14.2c-8,8.8-12.9,19.9-16.7,31.1
		c-3.7,10.8-6.1,23.9,1.2,32.6c6.5,7.8,18.5,8.7,28,5.1c18.1-6.9,28.9-28.9,23.1-47.4c-6.6,13.9-22.3,22.9-37.6,21.6
		c1-1.8,2-3.5,3-5.3"/>
	<path class="st4" d="M467.8,425.6c1.1,7.9,2.2,15.9,3.4,23.8"/>
	<path class="st4" d="M497.6,442.4c10.5,5.2,24.2-0.5,30-10.7c5.7-10.2,4.3-23.3-1.3-33.6c-6.3-11.6-17.9-20.3-30.8-23.1"/>
	<path class="st4" d="M499.6,354.8c6.2,6.8,10.8,17.2,11,26.4"/>
	<path class="st4" d="M489.4,359.9c13.3-5,23.7-18.1,23.9-33.9c13.9-8.8,27.1-30.7,26.6-47.1"/>
	<path class="st4" d="M488.8,308c11.2,5.9,44.5-5.2,42.4-20.6c11.7-10.2,19-19.5,25.1-31.9c6.2-12.4,3.7-17.8-3.8-35.6"/>
	<path class="st4" d="M517.4,189.2c5.2-5.9,14.9-6.4,21.7-2.3c6.7,4.1,10.7,11.8,11.6,19.6s3.2,14.1,0.8,21.6"/>
	<path d="M290.4,306.7c7.5-10.4,19.9-16.4,32.6-18.3s25.6,0,38,2.9c2.9,0.7,5.9,1.4,8.3,3.1s4.3,4.6,3.9,7.6
		c-0.5,3.8-4.4,6.3-8.1,7.1c-12.3,2.4-23.2-8-35.4-10.5c-13.3-2.8-26.6,4-38.5,10.5c-1.4-0.6-1.3-3,0.1-3.5"/>
	<path d="M448.6,291.8c-11.1-0.9-22.5,4.2-29.3,13c-1.1,1.4-2.1,3-1.7,4.8c0.3,1.8,2.1,3,3.9,3.3s3.6-0.3,5.3-0.9
		c6.6-2.4,12.6-6.1,19.2-8.3c6.6-2.2,14.5-2.5,20,1.7c0.5,0.4,1,0.8,1.7,1c1.3,0.3,2.7-0.7,3.4-1.9c1.9-3.4-0.2-7.9-3.5-10
		s-7.4-2.2-11.3-2.1s-4.2-1.8-11.6-0.4"/>
	<path class="st4" d="M165.4,479.9c3.8-4.5,9-7.7,14.7-9.1s11.8-0.8,17.2,1.5"/>
	<path class="st4" d="M159.3,473.4c0.9-7.4,6.4-13.6,12.8-17.3c6.4-3.7,13.8-5.4,21.1-7"/>
	<path class="st4" d="M149.1,292.9c-4.7,1.4-8.1,5.8-9.6,10.5s-1.4,9.7-1.2,14.6c0.1,2.6,0.2,5.3-0.1,7.9
		c-0.9,6.1-4.5,11.9-4.1,18.1c0.2,2.9,1.3,5.6,2.5,8.3c2.5,5.6,5.6,11.2,10.3,15.2c5.1,4.3,11.7,6.5,18.1,8.5"/>
	<path d="M332.4,312.7c-5,0.4-37.6,15.5-24.4,16.8c20,2,44.3,11.4,61-1.3c4.5-3.5-4.9-8-7.8-9.9c-12.8-8.4-24.2-6.6-30.2-5.4"/>
	<path class="st4" d="M256.3,188.8c2.8-10.1,15-15.3,25.3-13.4c10.3,2,18.7,9.4,25.3,17.5c2.8,3.5,5.5,7.2,9.4,9.6
		c4.2,2.6,9.6,3.2,14.3,1.5"/>
	<path class="st4" d="M248.2,326c26.2-12.2,42.8-39.2,68.3-52.8c10.8-5.7,22.8-8.8,34.2-13.4c11.4-4.6,22.6-11.1,29.1-21.5
		c3.4-5.5,5.5-12.1,9.5-17.1c1.8-2.3,5.4-1.7,6.6,0.9c6.6,14.4,1.1,33.6-11.9,43.3c-14.4,10.9-35.4,10.6-51.2,1.9
		c0.8-0.2-0.7-0.6,0.1-0.8"/>
	<path class="st4" d="M452.4,239.9c-3.9-12.6,3.4-27.7,15.8-32.4"/>
	<path d="M109.3,259.1c-3.3-6.7-7.9-13.2-13.8-17.8c-4-3.3-8.5-6.4-13.8-7.1c-5.5-1.1-11.6,0.8-15.2,5.1c-3.6,4.6-4.2,10.9-3.8,16.6
		c0.4,5.1,2,10.1,4.3,14.7c1.3,3.5,4.7,7.1,8.2,6.9c-6.2-1.6-6.7-9.3-7.9-14.5c-1.1-9.4,0.1-19.2,6.5-21.8
		c9.5-4.4,23.8,7.1,30.4,21.9c2.3,6.1,6.9,20.4,4.1,24.3c0,0,0,0-0.1,0.1l0,0c-0.3,0.2-0.5,0.4-0.8,0.5s-0.5,0.3-0.8,0.4
		c-0.1,0-0.2,0-0.3,0.1c-1.4-0.3-6.6-3.5-9.6-6.3c-1-0.8-2.1-1.6-3.2-2.3c-1.5-1.5-3-3-4.5-4.5c-5.3-4.6-10.4-9.6-16.6-13.2
		c5.1,4.4,9.1,9.9,13.4,15c-0.6,0-1.2,0-1.8,0.1c-2.6,0.8-4.7,3.2-5.2,5.8c-1,8.7,4.1,17.1,10.2,23c3.3,2.7,7.2,5.9,11.7,5.6
		c2.3-0.4,4.7-1.6,5.9-3.6c1.8-4.7-0.2-9.4-2.6-13.6c0.7,0.2,1.4,0.4,2.1,0.4C122.6,293,113,268.6,109.3,259.1z M96.2,292.1
		c2.7,5.7,4.8,8.7,4.6,12.8c-0.4,0.2-0.8,0.4-1.2,0.6h-0.1c-1.9-0.4-2.1-0.6-4.7-2.3c-7.2-4.4-11.8-15.9-10-19.4
		c0.1-0.2,0.3-0.3,0.5-0.4l0,0c1.9,0.1,3,0.6,6.5,3c0.2,0.2,0.9,0.8,1.9,1.6C94.7,289.3,95.5,290.7,96.2,292.1z"/>
	<path d="M129.4,232.9c-1.6-4.3-4.6-7.9-8.4-10.4c-2.4-1.8-5.3-2.9-8.3-2.2c-1.8,0.3-3.6,1.1-5.2,1.6c0.5-0.1,1-0.2,1.5-0.3
		c2.3-0.5,4.8-0.8,7.1,0.1c3.4,1.8,5.9,4.7,7.7,7.7c2.4,5.2,4.5,13.6,3.7,16.7c-0.9,3.1-1,3.2-1.6,3.8c-2.2,2.3-8,3.7-8.7,2.7
		c-2.2-1-4.1-1.9-4.4-2.4c-3.4-3.6-5.6-5.5-6.3-8.5c-1.1-4.8-2.1-8.3,0.8-12.2c2.5-2.3,6-3.9,9.5-4.2c-3.8-0.4-8,0.6-11.1,2.8
		c-4.6,4.2-4.3,11.2-2.9,16.8c1.4,3.7,4.1,6.8,6.6,9.8c1.9,1.6,4.2,2.7,6.4,3.8c5.1,1.6,10.9-1,14.4-4.8
		C135,247.6,132.4,239.3,129.4,232.9z"/>
	<path d="M180.5,165.8c-0.3-0.6-0.6-1.3-0.9-1.9c1.1-3.3,2.3-6.6,3.5-9.8c0.3-0.8,1.6-3.6,0.7-2.1c-2,2.9-3.8,6-5.5,9.1
		c-1.5-3.2-2.9-6.5-4.4-9.7c-1.4-2.8-3-6.2-6.1-7.6c-2.4-0.7-4.8,1.6-4.1,4c0.8,6.8,0.5,18.7-1.9,27c0,0,0,0,0,0.1
		c-0.1,0.2-0.2,0.5-0.4,0.7l0,0c-0.3,0.4-0.7,0.7-1.1,1.1c-0.4,0.2-0.9,0.5-1.3,0.7c-0.1,0.1-0.3,0.1-0.4,0.1c-0.1,0-0.3,0-0.4,0
		c-0.1,0-0.2-0.1-0.3-0.1c-0.1-0.1-0.2-0.2-0.3-0.3s-0.2-0.2-0.3-0.4c-0.3-0.4-0.6-0.9-0.9-1.3c-0.1-6.2-0.5-12.4-1.8-18.5
		c-0.5-3.7-5.1-6.8-7.9-3.2c-2.6,3.4-0.5,15.5,3.2,23.2l0,0c0,9.1-0.5,18.1-2.9,23.4c-0.1,0.1-0.1,0.1-0.2,0.2
		c-0.4,0.4-1,1.2-1.3,1.4c-0.2,0.1-0.3,0.3-0.5,0.4l0,0c-0.1,0.1-0.2,0.1-0.3,0.2c-0.1,0-0.3,0-0.5,0l0,0c-0.3-2.2-0.6-4.5-1-6.7
		c-1.3-11.2-4.7-22.2-11.1-31.6c-2.3-3.4-5.2-7.3-6.3-8.7c-1.9-2-5.1-2.9-7.7-1.8c-4,2.5-2.8,8.1-1.9,12c1.6,6.6,2.7,13.4,5.8,19.4
		c4.1,7.7,9.4,15,16.1,20.7c0.1,1.4,0.3,2.7,0.4,4.1c0.4,4.2,0.9,9.5,0.3,12c-2.8,1.2-8.6-2.5-12.1-7.8c-0.8-1.1-2-2.7-3.4-4.5
		c-0.6-7.4-2.2-14.8-4.3-21.9c-1.5-5.2-3.3-10.6-7.2-14.4c-2.4-2.3-6.5-4.8-9.3-1.8c-1.2,1.3-1.4,3.1-1.2,4.8
		c0.2,2.9,0.9,5.9,1.7,8.7c2.2,8.4,6.2,16.1,11.4,23c4.8,6.4,7,10.5,12,15.4c4.1,3.8,10.4,6.8,15.7,3.9c4.7-2.8,3-9.3,3-13.8
		c-0.1-1.5-0.2-3.1-0.4-4.6c3.8-0.4,7.3-4,8.6-7.7c1.8-5.8,2.4-11.8,2.7-17.8c5.7,1.5,11.4-3.7,12.2-9.3c1-5,1.7-10.1,1.9-15.3
		c1.4,3,2.9,6.3,4.4,9.4c-1.2,3-2.3,6.1-3,9.2c-0.9,5.4-0.2,11.5,1.3,16.7c1,2.3,2.4,4.5,4.4,6.1c2.5,1.4,5.8,1.4,8.3-0.1
		c3.3-2.8,2.4-4.5,2.9-7.4C189.7,183.2,184.9,174.2,180.5,165.8z M110.7,187.8c-1.2-4-2.4-7.5-2.8-10.6c1.2,1,2.6,2.5,3.5,4.1
		c3.7,7.5,7.2,15.9,9.7,24.9C116.7,200,111.8,192.5,110.7,187.8z M134.1,191.9c-1.4-1.7-4.5-6.1-6.4-10.2c-0.2-0.3-0.6-1.2-0.8-1.7
		c-2.1-5.4-4.2-15.8-4.8-18.3c-0.1-0.2-0.1-0.6-0.1-1.1c0,0.1,0.1,0.1,0.1,0.2c0.4,0.5,5.9,7.8,7.4,11.1c4.1,6.9,6.2,15.4,7.5,23.7
		C136.1,194.5,135,193.2,134.1,191.9z M176.2,180.4c0.1-2.2,0.4-4.7,0.9-7.2c0.9,1.9,1.8,3.4,2.3,4.4c1.2,3.2,2.3,6.5,3,9.9
		c0,0.8,0.1,2.8,0,3.4c0.1,0.6-0.1,3.1-0.2,3.6c0,0.2-0.1,0.4-0.1,0.6c0,0.1,0,0.1-0.1,0.2l0,0c-0.1,0-0.2,0.1-0.3,0.1s-0.3,0-0.4,0
		c-0.2,0-0.5-0.1-0.7-0.1l-0.1-0.1c-1.4-1.8-1-1-2.1-2.9C177,187.8,176.4,183.2,176.2,180.4z"/>
	<path d="M412.2,331.3c1.6-6.8,7-12.6,13.7-14.7c2.1-0.7,4.4-1,6.6-1.3c2.7-0.4,5.4-0.8,8.1-0.8c7.9-0.1,15.5,2.9,22.8,5.8
		c2.3,0.9,5,2.4,4.8,4.9c-0.1,1.9-1.9,3.1-3.5,4c-3.6,2.1-7.2,4.2-11.3,5c-3.1,0.6-6.3,0.3-9.4,0.1c-10.7-0.6-21.4-0.6-32,0.2
		c-0.2,0-0.5,0-0.7-0.1c-0.9-0.4-0.5-1.7,0-2.5c1-1.5,2.1-3.1,3.2-4.5"/>
	<path class="st6" d="M354.5,325.1c-0.5-0.8-0.8-1.8-0.9-2.7c0-0.3,0-0.6,0.1-0.9c0.3-0.7,1.3-0.7,2.1-0.5c1.3,0.4,2.4,1,3.4,1.8
		c0.8,0.6,1.4,1.4,1.7,2.4c0.3,1,0.1,2.1-0.6,2.8c-0.5,0.4-1,0.6-1.6,0.9c-0.7,0.2-1.4,0.5-2.1,0.8c-0.6,0.2-1.4,0.5-2,0
		s-0.4-1.4-0.3-2.1c0.2-1,0.3-0.8,0.3-2"/>
	<path class="st6" d="M443.2,326.8c-0.7-0.8-0.6-2.2,0.2-3c1.1-1,2.9-0.5,4.4,0c1.1,0.4,2.3,0.9,3.2,1.7c0.9,0.8,1.4,2.2,0.9,3.3
		c-0.6,1.4-2.4,1.8-3.9,1.9c-1.4,0.1-2.7,0.1-4.1,0.1c-0.3,0-0.7,0-1-0.2c-0.2-0.2-0.3-0.5-0.4-0.8c-0.3-1.6,0-3.3,1-4.7"/>
	<path class="st7" d="M432.2,320.7c-8.8-0.3-18.9,11.1-3.1,9c14.1,2.9,16.1-11.4,2-8.8"/>
	<path class="st7" d="M330,323.1c1.3-2.1,3.8-3.3,6.3-3.7c2.5-0.4,5,0,7.5,0.3c1.9,0.3,3.9,0.6,5.2,2c0.9,0.9,1.3,2.2,1.5,3.5
		c0.1,0.6,0.2,1.3,0,1.9c-0.5,1.6-2.5,2.2-4.2,2.3c-4.6,0.4-9.2-0.2-13.5-1.8c-1.1-0.4-2.2-0.9-2.8-1.9s-0.4-2.6,0.7-3"/>
	<path d="M338.7,320.7c-2.7-1.1-3.5,3.2-2.5,4.9c0.9,1.2,3,2,4.8,1.9c1.3-0.1,2.3-1,2.7-2.2c1.2-3.7-2.9-6.9-6.6-4.5"/>
	<path d="M432.7,322.2c-0.5-0.7-1.4-1.1-2.2-1.2s-1.7,0.3-2.5,0.7c-0.4,0.2-0.7,0.5-1,0.8c-0.9,1-1.1,2.5-0.7,3.7s1.5,2.2,2.8,2.6
		c0.5,0.2,1.1,0.3,1.7,0.2c1.4-0.2,2.5-1.3,2.9-2.6s0-2.8-0.8-3.9c-0.2-0.3-0.5-0.6-0.6-0.9"/>
	<path class="st4" d="M436.8,414c-4.4,3.3-9.4,6.7-14.8,6.1c-2.6-0.3-5-1.6-7.6-2.3c-4.6-1.2-9.6-0.5-13.7,1.8
		c-1.6,0.9-3.2,2.2-5,2.1c-1.4-0.1-2.6-0.8-3.8-1.5c-14.3-8.2-32.1-4.5-48.6-3.8c-8.3,0.4-16.7-0.1-25.3-0.4
		c14,7.9,23.3,22.2,36.4,31.7c12.8,9.4,29,13.8,44.8,12.2c4.7-0.5,9.6-1.6,13.3-4.5c10.7-8.5,6.9-26.7,16.4-36.5"/>
	<path class="st4" d="M431.9,411c4.4,2.6,10,3.1,14.7,1.3"/>
	<circle class="st6" cx="347.4" cy="324.9" r="1.1"/>
	<circle class="st6" cx="436.8" cy="324.4" r="1.1"/>
</g>
</svg>
