<?xml version="1.0" encoding="utf-8"?>
<!-- Generator: Adobe Illustrator 27.0.1, SVG Export Plug-In . SVG Version: 6.00 Build 0)  -->
<svg version="1.1" id="Ebene_1" xmlns="http://www.w3.org/2000/svg" xmlns:xlink="http://www.w3.org/1999/xlink" x="0px" y="0px"
	 viewBox="0 0 108.91 239.51" style="enable-background:new 0 0 108.91 239.51;" xml:space="preserve">
<style type="text/css">
	.st0{fill:#1D1D1B;}
</style>
<path class="st0" d="M108.3,113.86v3.6L72,153.76v-3.1l-37.2-37.2l-1.6,1.6l0.9,0.9l1.6-1.6v2.7l-0.2,0.3l9.3,9.3l0.2,0.1l27.4,27.5
	l27.1-27.1l0.2-0.1l8.6-8.6v3.6l-7,6.9l-27,27.1l0.4,0.5l33.6-33.6v3.6L76,158.86l0.3,0.6l32-32v3.7l-2.3,2.2l-0.1,0.2l-22.5,22.5
	l-0.2,0.1l-6.7,6.7l0.5,0.5l31.3-31.3v3.6l-0.2,0.1l-22.6,22.7l-6.9,6.8l0.3,0.7l29.4-29.4v3.6l-29.5,29.5l0.4,0.5l29.1-29.1v3.7
	L90,162.96l-8.9,9l0.4,0.4v0.1l9-9.1l17.8-17.7v3.6l-27.2,27.2l0.4,0.5l26.8-26.8v3.6l-25,25l0.2,0.2l0.3,0.2l24.5-24.5v3.7
	l-23.2,23.1l0.3,0.7l-0.5-0.5l-1.6,1.6l0.5,0.5l24.5-24.5v3.6l-22.7,22.7l0.4,0.4l22.3-22.2v3.6l-20.6,20.6l0.3,0.7l20.3-20.4v3.7
	l-4.7,4.6l-15.8,15.8l0.5,0.5l15.9-16l4.1-4v3.6l-18.2,18.2l0.4,0.4l17.8-17.7v3.6l-18.2,18.2l0.5,0.5l17.7-17.7v3.6l-15.9,15.9
	l0.4,0.4l15.5-15.4v3.6l-14.1,14.1l0.2,0.7l-0.4-0.5l-1.6,1.6l0.4,0.5l15.5-15.5v3.6l-13.7,13.7l0.5,0.4l13.2-13.1v3.6l-11.5,11.5
	l0.2,0.6l11.3-11.2v3.6l-11.4,11.4l0.5,0.4l10.9-10.9v3.6l-9.1,9.1l0.4,0.4v0.1l8.7-8.6v3.6l-9.1,9.1l0.4,0.4l2.2-2.1l0.1-0.2
	l6.4-6.3v3.6l-4.6,4.5l-2.3,2.3l0.5,0.5l2.1-2.2l4.3-4.2v3.7l-2.3,2.2l-0.1,0.2l-2.7,2.6l0.3,0.6l4.8-4.7v3.6l-0.2,0.1l-4.4,4.4
	l0.5,0.5l4.1-4.1v3.6l-2.5,2.5l0.3,0.6l2.2-2.2v3.7l-2.3,2.2l0.4,0.5l1.9-1.8v3.1h-3.1l0.6-0.6l-0.5-0.5l-1,1.1h-3.7l0.6-0.6
	l-0.4-0.5l-1.1,1.1h-3.6l0.6-0.6l-0.5-0.5l-1,1.1h-3.6l0.5-0.6l-0.4-0.5l-1,1.1H87l0.6-0.6l-0.4-0.5l-1.1,1.1h-3.6l0.6-0.6l-0.5-0.5
	l-1,1.1H78l0.5-0.6l-0.4-0.5l-1,1.1h-3.7l0.6-0.6l-0.5-0.5l-1,1.1H72v-2.6l-1.8-1.8l-0.9-2.2l2.7,2.6l0.4,0.4l1.6-1.5l-0.5-0.5
	l-1.5,1.6v-3.2l-4.8-4.7l-0.9-2.3l6.1,6.1l1.6-1.6l-0.5-0.4l-1.5,1.5v-3.1l-7.8-7.8l-0.9-2.2l9.1,9.1l1.6-1.6l-0.5-0.5l-1.5,1.6
	v-3.1l-10.8-10.8l-0.9-2.3l12.1,12.1l1.6-1.5l-0.5-0.5l-1.5,1.6v-3.2l-13.9-13.8l-0.9-2.3l15.2,15.2l1.6-1.6l-0.5-0.4l-1.5,1.5v-3.1
	l-12-12l-4.9-4.8l-0.9-2.3l18.2,18.2l1.6-1.6l-0.5-0.5l-1.5,1.6v-3.1l-19.9-19.9l-0.9-2.3l21.2,21.2l1.6-1.5l-0.5-0.5l-1.5,1.6v-3.2
	l-22.9-22.9l-0.9-2.2l24.2,24.2l1.6-1.6l-0.5-0.4l-1.5,1.5v-3.1l-25.9-25.9l-0.9-2.3l27.2,27.3l1.6-1.6l-0.4-0.5l-1.6,1.6v-3.1
	l-29-29l-0.9-2.2l5,4.9l22.6,22.7l2.7,2.6l1.6-1.5l-0.4-0.5l-1.6,1.6v-3.2l-32-31.9l-0.9-2.3l33.3,33.3l1.6-1.6l-0.4-0.4l-1.6,1.5
	v-3.1l-35-35l-0.9-2.3l36.3,36.4l1.6-1.6l-0.4-0.5l-1.6,1.6v-3.1l-37.2-37.2l-22,21.9l-13.4,13.5v-2.8l11.9-11.9l0.2-0.1l22.2-22.2
	l-0.6-1.3l-22.5,22.6l-11.2,11.1v-2.7l34-34l-0.9-0.9l-33.1,33.1v-2.7l30.1-30.1l0.1-0.2l1.6-1.5l-0.3-0.2l-0.3-1l-31.2,31.2v-2.8
	l27.8-27.8l4-3.9l-0.9-0.9l-30.9,30.8v-2.7l29.5-29.5l-0.9-0.9l-28.6,28.6v-2.7l27.8-27.8l-0.2-0.4l0.3,0.3l1.6-1.6l-0.9-0.9
	l-28.6,28.5v-2.7l27.2-27.2l-0.9-0.9l-6,6.1l-0.2,0.1l-20.1,20.1v-2.7l25.2-25.2l-0.5-1.3l-24.7,24.7v-2.7l25-25l-0.9-0.9l-24.1,24
	v-2.7l22.7-22.7l-0.2-0.2l-0.4-1l-22.1,22.1v-2.7l22.7-22.7l-0.9-0.9l-21.8,21.8v-2.7l20.4-20.5l-0.9-0.9l-19.5,19.5v-2.7l18.7-18.7
	l-0.2-0.4l0.3,0.3l1.6-1.6l-0.9-0.9l-19.5,19.5v-2.7l18.2-18.2l-0.9-0.9l-17.3,17.3v-2.7l2.9-2.9l0.1-0.2l13.1-13.1l-0.5-1.2
	l-15.6,15.5v-2.7l15.9-15.9l-0.9-0.9l-15,15v-2.7l13.6-13.6l-0.2-0.3l-0.4-0.9l-13,13v-2.8l13.6-13.6l-0.9-0.9l-12.7,12.7v-2.7
	l11.4-11.3l-0.9-0.9l-10.5,10.4v-2.7l9.6-9.6l-0.1-0.5l0.3,0.3l1.6-1.6l-0.9-0.9l-10.5,10.5v-2.8l9.1-9l-0.9-0.9l-8.2,8.1v-2.7
	l7.1-7l-0.6-1.3l-6.5,6.5v-2.7l6.8-6.8l-0.9-0.9l-5.9,5.9v-2.8l4.6-4.5l-0.3-0.2l-0.4-1l-3.9,3.9v-2.7l2.9-2.8l0.1-0.2l1.6-1.5
	l-1-0.9l-3.6,3.6v-2.7l2.3-2.3l-0.9-0.9l-1.4,1.4v-2.8l0.6-0.5l-0.2-0.4l0.3,0.3l1.2-1.3h2.8l-0.4,0.4l0.9,0.9l1.3-1.3h2.7l-0.3,0.4
	l0.9,0.9l1.2-1.3h2.7l-0.3,0.4l0.9,0.9l1.2-1.3h2.8l-0.4,0.4l0.9,0.9l1.3-1.3h2.7l-0.3,0.4l0.9,0.9l1.2-1.3h2.7l-0.3,0.4l0.9,0.9
	l1.2-1.3h2.8l-0.4,0.4l0.9,0.9l1.3-1.3h2.6v0.1l-0.2,0.3l0.6,0.5l0.9,2.3l-2.2-2.2l-1.6,1.6l0.9,0.9l1.6-1.6v2.8l-0.2,0.2l3.6,3.6
	l0.9,2.3l-5.2-5.2l-1.6,1.6l0.9,0.9l1.6-1.6v2.7l-0.2,0.2l6.6,6.7l0.9,2.2l-8.2-8.2l-1.6,1.6l0.9,0.9l1.6-1.6v2.7l-0.2,0.3l9.6,9.6
	l0.9,2.3l-10.3-10.4v2.8l-0.2,0.2l7.2,7.2l5.4,5.5l1,2.2l-14.3-14.2l-1.6,1.6l0.9,0.9l1.6-1.6v2.7l-0.2,0.2l4.9,5l10.8,10.7l0.9,2.3
	l-17.3-17.3l-1.6,1.6l0.9,0.9l1.6-1.6v2.7l-0.3,0.3l2.6,2.5l16.2,16.2l0.9,2.3l-19.4-19.5v2.8l-0.3,0.2l0.3,0.2l21.5,21.6l0.9,2.2
	l-23.3-23.3l-1.6,1.6l0.9,0.9l1.6-1.6v2.7l-0.3,0.2l24.8,24.8l0.9,2.3l-5.5-5.6l-0.2-0.1l-19.7-19.8v2.7l-0.3,0.2l27.9,27.9l0.9,2.2
	l-10.9-10.8l-0.1-0.2l-18.4-18.4l-1.6,1.6l0.9,0.9l1.6-1.6v2.8l-0.3,0.2l30.9,30.8l0.9,2.3l-16.1-16.2l-0.2-0.1l-16.1-16.1l-1.6,1.5
	l0.9,1l1.6-1.6v2.7l-0.3,0.2l33.9,33.9l0.9,2.2l-35.4-35.4l-1.6,1.6l0.9,0.9l1.6-1.6v2.7l-0.3,0.2l37,37l2.1-2.2L108.3,113.86z
	 M-0.51,58.06l-0.1,0.1v-0.1H-0.51z M35.7,146.16v2.7l-36.3,36.3v-2.7L35.7,146.16z M35.7,150.66v2.8l-36.3,36.2v-2.7L35.7,150.66z
	 M35.7,155.26v2.7l-36.3,36.3v-2.7L35.7,155.26z M-0.61,196.07l36.3-36.3v2.7l-36.3,36.3V196.07z M35.7,164.26v2.8l-11.7,11.6
	l-24.6,24.7v-2.8l0.6-0.5L35.7,164.26z M2.39,202.17l33.3-33.3v2.7l-9.3,9.2l-27,27.1v-2.7l2.8-2.9L2.39,202.17z M35.7,176.06
	l-36.3,36.3v-2.7l36.3-36.3V176.06z M29.59,183.96l6.1-6v2.7l-27.4,27.4l-0.2,0.1l-8.7,8.8v-2.8l7.4-7.3l0.1-0.2L29.59,183.96z
	 M35.7,185.16l-36.3,36.3v-2.7l36.3-36.3V185.16z M35.7,186.96v2.7l-0.3,0.4l-36,35.9v-2.7L35.7,186.96z M-0.61,227.87l36.3-36.3
	v2.7l-36.3,36.3V227.87z M35.7,196.07v2.7l-36.3,36.3v-2.7L35.7,196.07z M35.7,200.57v2.8l-16.1,16l-0.1,0.2l-20,19.9h-0.1v-2.6
	L35.7,200.57z M35.7,207.87l-31.6,31.6h-2.8l34.4-34.3V207.87z M3.99,59.86l-0.9-0.9l-1.6,1.6l0.9,0.9L3.99,59.86z M4.69,63.76
	l1.5-1.6l-0.9-0.9l-1.5,1.6L4.69,63.76z M6.19,66.66l-0.9-0.9l-1.5,1.6l0.9,0.9L6.19,66.66z M5.89,239.47l29.8-29.8v2.7l-27.1,27.1
	H5.89z M5.99,60.56l0.9,0.9l1.6-1.6l-0.9-0.9L5.99,60.56z M8.49,64.46l-0.9-0.9l-1.6,1.5l0.9,1L8.49,64.46z M6.89,70.56l1.6-1.6
	l-0.9-0.9l-1.6,1.6L6.89,70.56z M8.49,73.46l-0.9-0.9l-1.6,1.6l0.9,0.9L8.49,73.46z M8.29,62.86l0.9,0.9l1.6-1.6l-0.9-0.9
	L8.29,62.86z M8.29,67.36l0.9,0.9l1.6-1.6l-0.9-0.9L8.29,67.36z M8.29,71.86v0.1l0.9,0.9l1.6-1.6l-0.9-0.9L8.29,71.86z M10.79,75.76
	l-0.9-0.9l-1.6,1.6l0.9,0.9L10.79,75.76z M10.39,239.47l25.3-25.3v2.8l-22.6,22.5H10.39z M10.59,60.56l0.9,0.9l1.6-1.6l-1-0.9
	L10.59,60.56z M12.99,64.46l-0.9-0.9l-1.5,1.6l0.9,0.9L12.99,64.46z M12.99,68.96l-0.5-0.5l-0.1-0.2l-0.3-0.2l-1.5,1.6l0.9,0.9
	L12.99,68.96z M10.59,74.16l0.9,0.9l1.6-1.5l-1-1L10.59,74.16z M11.49,79.66l1.5-1.6l-0.9-0.9l-1.5,1.6L11.49,79.66z M12.99,82.56
	l-0.9-0.9l-1.5,1.6l0.9,0.9L12.99,82.56z M12.79,62.86l0.9,0.9l1.6-1.6l-0.9-0.9L12.79,62.86z M14.39,65.76l-1.6,1.6l0.9,0.9
	l1.6-1.6L14.39,65.76z M12.79,71.86l0.9,1l1.6-1.6l-0.9-0.9L12.79,71.86z M13.69,77.36l1.6-1.6l-0.9-0.9l-1.6,1.6L13.69,77.36z
	 M12.79,80.96l0.9,0.9l1.6-1.5l-0.9-1L12.79,80.96z M13.69,86.46l1.6-1.6l-0.9-0.9l-1.6,1.6L13.69,86.46z M15.29,89.36l-0.9-0.9
	l-1.6,1.6l0.9,0.9L15.29,89.36z M14.99,239.47l20.7-20.7v2.7l-18,18H14.99z M15.09,60.56l0.9,0.9l1.6-1.6l-0.9-0.9L15.09,60.56z
	 M17.59,64.46l-0.9-0.9l-1.6,1.6l0.9,0.9L17.59,64.46z M17.59,68.96l-0.9-0.9l-1.6,1.6l0.9,0.9L17.59,68.96z M15.09,74.16l0.9,0.9
	l1.6-1.6l-0.9-0.9L15.09,74.16z M15.09,78.76l0.9,0.9l1.6-1.6l-0.9-0.9L15.09,78.76z M15.09,83.26l0.9,0.9l1.6-1.6l-0.9-0.9
	L15.09,83.26z M15.09,87.76l0.9,0.9l1.6-1.5l-0.9-0.9L15.09,87.76z M15.99,93.26l1.6-1.6l-0.9-0.9l-1.6,1.6L15.99,93.26z
	 M17.59,96.16l-0.9-0.9l-1.6,1.6l0.9,0.9L17.59,96.16z M17.39,62.86l0.9,0.9l1.6-1.6l-0.9-0.9L17.39,62.86z M18.89,65.76l-1.5,1.6
	l0.9,0.9l1.6-1.6L18.89,65.76z M18.89,70.36l-1.5,1.6l0.9,0.9l1.6-1.6L18.89,70.36z M18.89,74.86l-1.5,1.6l0.9,0.9l1.6-1.6
	L18.89,74.86z M17.39,80.96l0.9,0.9l1.6-1.6l-0.9-0.9L17.39,80.96z M17.39,85.56l0.9,0.9l1.6-1.6l-0.9-0.9L17.39,85.56z
	 M17.39,90.06l0.9,0.9l1.6-1.6l-1-0.9L17.39,90.06z M17.39,94.56l0.9,1l1.6-1.6l-1-0.9L17.39,94.56z M19.79,98.46l-0.9-0.9l-1.5,1.6
	l0.9,0.9L19.79,98.46z M35.7,225.97l-13.5,13.5h-2.7l16.2-16.2V225.97z M19.59,60.56l0.9,0.9l1.6-1.6l-0.9-0.9L19.59,60.56z
	 M22.09,64.46l-0.9-0.9l-1.6,1.6l0.9,0.9L22.09,64.46z M22.09,68.96l-0.9-0.9l-1.6,1.6l0.9,0.9L22.09,68.96z M22.09,73.46l-0.9-0.9
	l-1.6,1.6l0.9,0.9L22.09,73.46z M19.59,78.76l0.9,0.9l1.6-1.6l-0.9-0.9L19.59,78.76z M19.59,83.26l0.9,0.9l1.6-1.6l-0.9-0.9
	L19.59,83.26z M19.59,87.76l0.9,0.9l1.6-1.5l-0.9-1L19.59,87.76z M19.59,92.36l0.9,0.9l1.6-1.6l-0.9-0.9L19.59,92.36z M19.59,96.86
	l0.9,0.9l1.6-1.6l-0.9-0.9L19.59,96.86z M20.49,102.26l1.6-1.5l-0.9-0.9l-1.6,1.5L20.49,102.26z M22.09,105.26l-0.9-0.9l-1.6,1.6
	l0.9,0.9L22.09,105.26z M21.89,62.86l0.9,0.9l1.6-1.6l-0.9-0.9L21.89,62.86z M23.49,65.76l-1.6,1.6l0.9,0.9l1.6-1.6L23.49,65.76z
	 M23.49,70.36l-1.6,1.6l0.9,0.9l1.6-1.6L23.49,70.36z M23.49,74.86l-1.6,1.6l0.9,0.9l1.6-1.6L23.49,74.86z M24.39,80.26l-0.9-0.9
	l-1.6,1.6l0.9,0.9L24.39,80.26z M21.89,85.56l0.9,0.9l1.6-1.6l-0.9-0.9L21.89,85.56z M21.89,90.06l0.9,0.9l1.6-1.6l-0.9-0.9
	L21.89,90.06z M21.89,94.56l0.9,0.9l1.6-1.5l-0.9-0.9L21.89,94.56z M21.89,99.16l0.9,0.9l1.6-1.6l-0.9-0.9L21.89,99.16z
	 M21.89,103.66l0.9,0.9l1.6-1.6l-0.5-0.5l-0.2-0.1l-0.2-0.3L21.89,103.66z M22.79,109.06l1.6-1.5l-0.9-0.9l-1.6,1.5L22.79,109.06z
	 M24.39,112.06l-0.9-0.9l-1.6,1.6l0.9,0.9L24.39,112.06z M23.99,239.47l11.7-11.7v2.8l-8.9,8.9H23.99z M25.09,115.96l1.5-1.6
	l-0.9-0.9l-1.6,1.5L25.09,115.96z M26.59,118.86l-0.9-0.9l-1.6,1.6l1,0.9L26.59,118.86z M24.19,60.56l0.9,0.9l1.6-1.6l-0.9-0.9
	L24.19,60.56z M26.69,64.46l-1-0.9l-1.5,1.6l0.9,0.9L26.69,64.46z M26.69,68.96l-0.9-0.9l-1.6,1.6l0.9,0.9L26.69,68.96z
	 M26.69,73.46l-1-0.9l-1.5,1.6l0.9,0.9L26.69,73.46z M26.69,78.06l-1-0.9l-1.5,1.6l0.9,0.9L26.69,78.06z M26.69,82.56l-1-0.9
	l-1.5,1.6l0.9,0.9L26.69,82.56z M24.19,87.76l0.9,0.9l1.6-1.6l-1-0.9L24.19,87.76z M24.19,92.36l0.9,0.9l1.6-1.6l-1-0.9L24.19,92.36
	z M24.19,96.86l0.9,0.9l1.6-1.6l-0.9-0.9L24.19,96.86z M24.19,101.36l0.2,0.3l0.7,0.6l1.6-1.5l-0.9-0.9L24.19,101.36z M24.19,105.96
	l0.9,0.9l1.6-1.6l-0.9-0.9L24.19,105.96z M24.19,110.46l0.9,0.9l1.6-1.6l-0.9-0.9L24.19,110.46z M26.39,62.86l0.9,0.9l1.6-1.6
	l-0.9-0.9L26.39,62.86z M27.99,65.76l-1.6,1.6l0.9,0.9l1.6-1.6L27.99,65.76z M28.89,71.26l-0.9-0.9l-1.6,1.6l0.9,0.9L28.89,71.26z
	 M28.89,75.76l-0.9-0.9l-1.6,1.6l0.9,0.9L28.89,75.76z M28.89,80.26l-0.9-0.9l-1.6,1.6l0.9,0.9L28.89,80.26z M28.89,84.86l-0.9-0.9
	l-1.6,1.6l0.9,0.9L28.89,84.86z M28.89,89.36l-0.9-0.9l-1.6,1.6l0.9,0.9L28.89,89.36z M28.89,93.96l-0.9-1l-1.6,1.6l0.9,0.9
	L28.89,93.96z M26.39,99.16l0.9,0.9l1.6-1.6l-0.9-0.9L26.39,99.16z M26.39,103.66l0.9,0.9l1.6-1.6l-0.9-0.9L26.39,103.66z
	 M26.39,108.16l0.9,1l1.6-1.6l-0.9-0.9L26.39,108.16z M26.39,112.76l0.9,0.9l1.6-1.6l-0.9-0.9L26.39,112.76z M26.39,117.26l0.9,0.9
	l1.6-1.6l-0.9-0.9L26.39,117.26z M28.89,121.16l-0.9-0.9l-1.6,1.6l0.9,0.9L28.89,121.16z M28.59,239.47l7.1-7.1v2.7l-4.4,4.4H28.59z
	 M28.69,60.56l0.9,0.9l1.6-1.6l-0.9-0.9L28.69,60.56z M31.19,64.46l-0.9-0.9l-1.6,1.6l0.9,0.9L31.19,64.46z M31.19,68.96l-0.9-0.9
	l-1.6,1.6l0.9,0.9L31.19,68.96z M31.19,73.46l-0.9-0.9l-1.6,1.6l0.9,0.9L31.19,73.46z M31.19,78.06l-0.9-0.9l-1.6,1.6l0.9,0.9
	L31.19,78.06z M31.19,82.56l-0.9-0.9l-1.6,1.6l0.9,0.9L31.19,82.56z M31.19,87.16l-0.9-1l-1.6,1.6l0.9,0.9L31.19,87.16z
	 M31.19,91.66l-0.9-0.9l-1.6,1.6l0.9,0.9L31.19,91.66z M31.19,96.16l-0.9-0.9l-1.6,1.6l0.9,0.9L31.19,96.16z M31.19,100.76l-0.9-0.9
	l-1.6,1.5l0.9,0.9L31.19,100.76z M29.59,106.86l1.6-1.6l-0.9-0.9l-1.6,1.6L29.59,106.86z M31.19,109.76l-0.9-0.9l-1.6,1.6l0.9,0.9
	L31.19,109.76z M31.19,114.36l-0.9-0.9l-1.6,1.6l0.9,0.9L31.19,114.36z M31.19,118.86l-0.9-0.9l-1.6,1.6l0.9,0.9L31.19,118.86z
	 M29.59,124.96l1.6-1.6l-0.9-0.9l-1.6,1.6L29.59,124.96z M31.19,127.96l-0.9-0.9l-1.6,1.6l0.9,0.9L31.19,127.96z M33.39,112.06
	l-0.9-0.9l-1.6,1.6l0.9,0.9L33.39,112.06z M32.5,115.66l-1.6,1.6l0.9,0.9l1.6-1.6L32.5,115.66z M31.89,131.76l1.5-1.6l-0.9-0.9
	l-1.6,1.6L31.89,131.76z M33.39,134.76l-0.9-0.9l-1.6,1.6l1,0.9L33.39,134.76z M31,62.86l0.9,0.9l1.6-1.6l-0.9-0.9L31,62.86z
	 M32.6,65.76l-1.6,1.6l0.9,0.9l1.6-1.6L32.6,65.76z M32.6,70.36l-1.6,1.6l0.9,0.9l1.6-1.6L32.6,70.36z M33.5,75.76l-0.9-0.9
	l-1.6,1.6l0.9,0.9L33.5,75.76z M32.6,79.36l-1.6,1.6l0.9,0.9l1.6-1.6L32.6,79.36z M32.6,83.96l-1.6,1.6l0.9,0.9l1.6-1.6L32.6,83.96z
	 M33.5,89.36l-0.9-0.9l-1.6,1.6l0.9,0.9L33.5,89.36z M32.6,93.06l-1.6,1.5l0.2,0.3l0.2,0.1l0.5,0.6l1.6-1.6L32.6,93.06z M33.5,98.46
	l-0.9-0.9l-1.6,1.6l0.9,0.9L33.5,98.46z M32.6,102.06l-1.6,1.6l0.9,0.9l1.6-1.6L32.6,102.06z M32.6,106.66l-1.6,1.5l0.9,1l1.6-1.6
	L32.6,106.66z M33.5,121.16l-0.9-0.9l-1.6,1.5l0.9,1L33.5,121.16z M32.6,124.76l-1.6,1.6l0.9,0.9l1.6-1.6L32.6,124.76z M33.1,239.47
	l2.6-2.6v2.6H33.1z M33.19,74.26l0.9,0.9l1.6-1.6l-0.9-0.9L33.19,74.26z M33.19,87.86l0.9,0.9l1.6-1.6l-0.9-0.9L33.19,87.86z
	 M33.19,96.96l0.9,0.9v-0.1l1.6-1.5l-0.9-0.9L33.19,96.96z M33.19,119.56l0.9,0.9l1.6-1.6v2.7l-0.2,0.2l36.9,37l1.6-1.6l-0.4-0.4
	l-1.6,1.5v-3.1l-37.2-37.2L33.19,119.56z M72,159.66l-37.2-37.2l-1.6,1.6l0.9,0.9l1.6-1.6v2.8l-0.2,0.2l4.8,4.8l0.2,0.1l22.6,22.7
	l8.9,8.8V159.66z M74,166.26l-0.4-0.5l-1.6,1.6v-3.1l-9.5-9.6l-22.7-22.7l-5-4.9l-1.6,1.6l0.9,0.9l1.6-1.6v2.7l-0.2,0.2l37,37
	L74,166.26z M74,170.76l-0.4-0.4l-1.6,1.5v-3.1l-37.2-37.2l-1.6,1.6l0.9,0.9l1.6-1.6v2.7l-0.2,0.3l36.9,36.9L74,170.76z
	 M34.1,138.56l1.6-1.6l-0.5-0.4l-0.4-0.5l-1.6,1.6L34.1,138.56z M74,179.86l-0.4-0.5l-1.6,1.6v-3.1l-16.4-16.4l-0.1-0.2l-20.7-20.6
	l-1.6,1.6l0.9,0.9l1.6-1.6v2.7l-0.2,0.2l36.9,37L74,179.86z M74,175.36l-0.4-0.5l-1.6,1.6v-3.2l-36.3-36.2v2.7l-0.2,0.2l36.9,36.9
	L74,175.36z M108.3,58.06v0.5l-16.1,16L72,94.86v-3.7l33.1-33.1H108.3z M104.2,58.06L72,90.26v-3.6l16.1-16.2l12.5-12.4H104.2z
	 M72,82.16l24.1-24.1h3.6L72,85.76V82.16z M85.4,67.76L72,81.26v-3.7l19.5-19.5h3.7l-9.6,9.6L85.4,67.76z M72,73.06l15-15h3.6
	L72,76.66V73.06z M72,72.16v-3.6l7.2-7.3l3.3-3.2h3.6L72,72.16z M81.6,58.06l-9.6,9.6v-3.7l5.9-5.9H81.6z M77,58.06l-5,5v-3.6
	l1.4-1.4H77z M72.5,58.06l-0.5,0.5v-0.5H72.5z M72,99.36v-3.6l36.2-36.3v3.6L72,99.36z M108.3,67.66L72,103.96v-3.7l36.3-36.3V67.66
	z M99,81.36l-27,27.1v-3.6l36.2-36.3v3.6l-9,9.1L99,81.36z M108.3,76.66L72,112.96v-3.6l36.3-36.3V76.66z M108.3,81.26l-4.6,4.5
	l-0.1,0.2l-22.7,22.6l-8.9,9v-3.7l36.3-36.3V81.26z M108.3,82.16v3.6l-25,24.9L72,122.06v-3.6l32-32.1L108.3,82.16z M72,122.96
	l34.3-34.3l0.1-0.2l1.8-1.8v3.6L72,126.56V122.96z M72,131.16v-3.7l36.2-36.2v3.6L72,131.16z M90,117.66l-18,18v-3.6l36.2-36.3v3.6
	l-18.1,18.1L90,117.66z M72,140.16v-3.6l36.2-36.3v3.7L72,140.16z M72,144.76v-3.7l36.2-36.2v3.6L72,144.76z M72,145.66l36.2-36.3
	v3.6L72,149.26V145.66z M74,161.66l-0.4-0.4l-1.6,1.6l0.5,0.4L74,161.66z M74.3,165.16l0.4,0.4l1.6-1.6l-0.5-0.4L74.3,165.16z
	 M74.3,169.66l0.4,0.4l1.6-1.5l-0.5-0.5L74.3,169.66z M74.3,174.16l0.4,0.5l1.6-1.6l-0.5-0.5L74.3,174.16z M74.3,178.76l0.4,0.4
	l1.6-1.6l-0.5-0.4L74.3,178.76z M74.3,183.26l0.4,0.5l1.6-1.6l-0.5-0.5L74.3,183.26z M74.3,187.76l0.2,0.2l0.2,0.3l1.6-1.6l-0.5-0.5
	L74.3,187.76z M74.3,192.36l0.4,0.4l1.6-1.6l-0.5-0.4L74.3,192.36z M74.3,196.86l0.4,0.5l1.6-1.6l-0.5-0.5L74.3,196.86z
	 M74.3,201.36l0.4,0.5l1.6-1.6l-0.5-0.4L74.3,201.36z M74.3,205.97l0.4,0.4l1.6-1.6l-0.5-0.4L74.3,205.97z M74.3,210.47l0.4,0.5
	l1.6-1.6l-0.5-0.5L74.3,210.47z M74.3,215.07l0.4,0.4l1.6-1.6l-0.5-0.4L74.3,215.07z M74.3,219.57l0.4,0.4l1.6-1.5l-0.5-0.5
	L74.3,219.57z M74.3,224.07l0.4,0.5l1.6-1.6l-0.5-0.5L74.3,224.07z M74.3,228.67l0.4,0.4l1.6-1.6l-0.5-0.4L74.3,228.67z
	 M74.3,233.17l0.2,0.2l0.2,0.3l1.6-1.6l-0.5-0.5L74.3,233.17z M74.3,237.67l0.4,0.5l1.6-1.6l-0.5-0.5L74.3,237.67z M76.5,167.36
	l0.5,0.5l1.6-1.6l-0.5-0.5L76.5,167.36z M76.5,171.96l0.5,0.4l1.6-1.6l-0.5-0.4L76.5,171.96z M76.5,176.46l0.5,0.5l1.6-1.6l-0.5-0.5
	L76.5,176.46z M76.5,180.96l0.5,0.5l1.6-1.6l-0.5-0.4L76.5,180.96z M76.5,185.56l0.5,0.4l1.6-1.6l-0.5-0.4L76.5,185.56z
	 M76.5,190.07l0.5,0.5l1.6-1.6l-0.5-0.5L76.5,190.07z M76.5,194.57l0.5,0.5l1.6-1.6l-0.5-0.4L76.5,194.57z M76.5,199.17l0.5,0.4
	l1.6-1.5l-0.5-0.5L76.5,199.17z M76.5,203.67l0.5,0.5l1.6-1.6l-0.5-0.5L76.5,203.67z M76.5,208.27l0.5,0.4l1.6-1.6l-0.5-0.4
	L76.5,208.27z M76.5,212.77l0.5,0.4l1.6-1.5l-0.5-0.5L76.5,212.77z M76.5,217.27l0.5,0.5l1.6-1.6l-0.5-0.5L76.5,217.27z
	 M76.5,221.87l0.5,0.4l1.6-1.6l-0.5-0.4L76.5,221.87z M76.5,226.37l0.5,0.4l1.6-1.5l-0.5-0.5L76.5,226.37z M76.5,230.87l0.5,0.5
	l1.6-1.6l-0.5-0.5L76.5,230.87z M76.5,235.47l0.5,0.4l1.6-1.6l-0.5-0.4L76.5,235.47z M78.8,174.16l0.4,0.5l1.6-1.6l-0.4-0.4
	L78.8,174.16z M78.8,178.76l0.4,0.4l1.6-1.6l-0.4-0.4L78.8,178.76z M78.8,183.26l0.4,0.5l1.6-1.6l-0.4-0.5L78.8,183.26z
	 M78.8,187.76l0.4,0.5l1.6-1.6l-0.4-0.4L78.8,187.76z M78.8,192.36l0.4,0.4l1.6-1.6l-0.4-0.4L78.8,192.36z M78.8,196.86l0.4,0.5
	l1.6-1.6l-0.4-0.5L78.8,196.86z M78.8,201.47l0.4,0.4l1.6-1.6l-0.4-0.4L78.8,201.47z M78.8,205.97l0.4,0.4l1.6-1.5l-0.4-0.5
	L78.8,205.97z M78.8,210.47l0.4,0.5l1.6-1.6l-0.4-0.5L78.8,210.47z M78.8,215.07l0.4,0.4l1.6-1.6l-0.4-0.4L78.8,215.07z
	 M78.8,219.57l0.4,0.5l1.6-1.6l-0.4-0.5L78.8,219.57z M78.8,224.07l0.4,0.5l1.6-1.6l-0.4-0.4L78.8,224.07z M78.8,228.67l0.4,0.4
	l1.6-1.6l-0.4-0.4L78.8,228.67z M78.8,233.17l0.4,0.5l1.6-1.6l-0.4-0.5L78.8,233.17z M78.8,237.67l0.4,0.5l1.6-1.6l-0.4-0.4
	L78.8,237.67z M81.1,180.96l0.4,0.5l1.6-1.6l-0.3-0.2l-0.2-0.2L81.1,180.96z M81.1,185.56l0.4,0.4l1.6-1.6l-0.5-0.4L81.1,185.56z
	 M81.1,190.07l0.4,0.5l1.6-1.6l-0.5-0.5L81.1,190.07z M81.1,194.66l0.4,0.4l1.6-1.6l-0.5-0.4L81.1,194.66z M81.1,199.17l0.4,0.4
	l1.6-1.5l-0.5-0.5L81.1,199.17z M81.1,203.67l0.4,0.5l1.6-1.6l-0.5-0.5L81.1,203.67z M81.1,208.27l0.4,0.4l1.6-1.6l-0.5-0.4
	L81.1,208.27z M81.1,212.77l0.4,0.5l1.6-1.6l-0.5-0.5L81.1,212.77z M81.1,217.27l0.4,0.5l1.6-1.6l-0.5-0.5L81.1,217.27z
	 M81.1,221.87l0.4,0.4l1.6-1.6l-0.5-0.4L81.1,221.87z M81.1,226.37l0.4,0.5l1.6-1.6l-0.5-0.5L81.1,226.37z M81.1,230.87l0.4,0.5
	l1.6-1.6l-0.5-0.4L81.1,230.87z M81.1,235.47l0.4,0.4l1.6-1.6l-0.5-0.4L81.1,235.47z M83.3,187.86l0.5,0.4l1.6-1.6l-0.5-0.4
	L83.3,187.86z M83.3,192.36l0.5,0.4l1.6-1.5l-0.5-0.5L83.3,192.36z M83.3,196.86l0.5,0.5l1.6-1.6l-0.5-0.5L83.3,196.86z
	 M83.3,201.47l0.5,0.4l1.6-1.6l-0.5-0.4L83.3,201.47z M83.3,205.97l0.5,0.5l1.6-1.6l-0.5-0.5L83.3,205.97z M83.3,210.47l0.5,0.5
	l1.6-1.6l-0.5-0.5L83.3,210.47z M83.3,215.07l0.5,0.4l1.6-1.6l-0.5-0.4L83.3,215.07z M83.3,219.57l0.5,0.5l1.6-1.6l-0.5-0.5
	L83.3,219.57z M83.3,224.07l0.5,0.5l1.6-1.6l-0.5-0.4L83.3,224.07z M83.3,228.67l0.5,0.4l1.6-1.6l-0.5-0.4L83.3,228.67z
	 M83.3,233.17l0.5,0.5l1.6-1.6l-0.5-0.5L83.3,233.17z M83.3,237.67l0.5,0.5l1.6-1.6l-0.5-0.4L83.3,237.67z M85.6,190.07l0.4,0.5
	l1.6-1.6l-0.4-0.5L85.6,190.07z M85.6,194.66l0.4,0.4l1.6-1.6l-0.4-0.4L85.6,194.66z M85.6,199.17l0.4,0.4l1.6-1.5l-0.4-0.5
	L85.6,199.17z M85.6,203.67l0.4,0.5l1.6-1.6l-0.4-0.5L85.6,203.67z M85.6,208.27l0.4,0.4l1.6-1.6l-0.4-0.4L85.6,208.27z
	 M85.6,212.77l0.4,0.5l1.6-1.6l-0.4-0.5L85.6,212.77z M85.6,217.27l0.4,0.5l1.6-1.6l-0.4-0.5L85.6,217.27z M85.6,221.87l0.4,0.4
	l1.6-1.6l-0.4-0.4L85.6,221.87z M85.6,226.37l0.4,0.5l1.6-1.6l-0.4-0.5L85.6,226.37z M85.6,230.87l0.4,0.5l1.6-1.6l-0.4-0.4
	L85.6,230.87z M85.6,235.47l0.4,0.4l1.6-1.6l-0.4-0.4L85.6,235.47z M87.9,196.86l0.4,0.5l1.6-1.6l-0.5-0.5L87.9,196.86z
	 M87.9,201.47l0.4,0.4l1.6-1.6l-0.5-0.4L87.9,201.47z M87.9,205.97l0.4,0.5v-0.1l1.6-1.5l-0.5-0.5L87.9,205.97z M87.9,210.47
	l0.4,0.5l1.6-1.6l-0.5-0.4L87.9,210.47z M87.9,215.07l0.4,0.4l1.6-1.6l-0.5-0.4L87.9,215.07z M87.9,219.67l0.4,0.4l1.6-1.6l-0.5-0.5
	l-1.5,1.6V219.67z M87.9,224.07l0.4,0.5l1.6-1.6l-0.5-0.4L87.9,224.07z M87.9,228.67l0.4,0.4l1.6-1.5l-0.5-0.5L87.9,228.67z
	 M87.9,233.17l0.4,0.5l1.6-1.6l-0.5-0.5L87.9,233.17z M87.9,237.77l0.4,0.4l1.6-1.6l-0.5-0.4L87.9,237.77z M90.1,203.67l0.5,0.5
	l1.6-1.6l-0.5-0.5L90.1,203.67z M90.1,208.27l0.5,0.4l1.6-1.6l-0.5-0.4L90.1,208.27z M90.1,212.77l0.5,0.5l1.6-1.6l-0.5-0.5
	L90.1,212.77z M90.1,217.27l0.5,0.5l1.6-1.6l-0.5-0.4L90.1,217.27z M90.1,221.87l0.5,0.4l1.6-1.6l-0.5-0.4L90.1,221.87z
	 M90.1,226.37l0.5,0.5l1.6-1.6l-0.5-0.5L90.1,226.37z M90.1,230.97l0.5,0.4l1.6-1.6l-0.5-0.4L90.1,230.97z M90.1,235.47l0.5,0.4
	l1.6-1.5l-0.5-0.5L90.1,235.47z M92.4,210.47l0.4,0.5h0.1l1.5-1.6l-0.4-0.4L92.4,210.47z M92.4,215.07l0.4,0.4l1.6-1.5l-0.2-0.3
	l-0.2-0.2L92.4,215.07z M92.4,219.57l0.4,0.5l1.6-1.6l-0.4-0.5L92.4,219.57z M92.4,224.17l0.4,0.4l1.6-1.6l-0.4-0.4L92.4,224.17z
	 M92.4,228.67l0.4,0.4l1.6-1.5l-0.4-0.5L92.4,228.67z M92.4,233.17l0.4,0.5l1.6-1.6l-0.4-0.5L92.4,233.17z M92.4,237.77l0.4,0.4
	l1.6-1.6l-0.4-0.4L92.4,237.77z M94.7,212.87l0.2,0.1l0.2,0.3l1.6-1.6l-0.2-0.3l-0.2-0.2l-1.6,1.6V212.87z M94.7,217.27l0.4,0.5
	l1.6-1.6l-0.4-0.4L94.7,217.27z M94.7,221.87l0.4,0.4l1.6-1.6l-0.4-0.4L94.7,221.87z M94.7,226.37l0.4,0.5l1.6-1.6l-0.4-0.5
	L94.7,226.37z M94.7,230.97l0.4,0.4l1.6-1.6l-0.4-0.4L94.7,230.97z M94.7,235.47l0.4,0.5l1.6-1.6l-0.4-0.5L94.7,235.47z
	 M96.9,219.57l0.5,0.5l1.6-1.6l-0.5-0.5L96.9,219.57z M96.9,224.17l0.5,0.4l1.6-1.6l-0.5-0.4L96.9,224.17z M96.9,228.67l0.5,0.5
	l1.6-1.6l-0.5-0.5L96.9,228.67z M96.9,233.17l0.5,0.5l1.6-1.6l-0.5-0.5L96.9,233.17z M96.9,237.77l0.5,0.4l1.6-1.6l-0.5-0.4
	L96.9,237.77z M99.2,226.37l0.5,0.5l1.5-1.6l-0.4-0.5L99.2,226.37z M99.2,230.97l0.5,0.4l1.5-1.6l-0.4-0.4L99.2,230.97z
	 M99.2,235.47l0.5,0.5l1.5-1.6l-0.4-0.5L99.2,235.47z M101.5,228.67l0.4,0.5l1.6-1.6l-0.4-0.5L101.5,228.67z M101.5,233.17l0.4,0.5
	l1.6-1.6l-0.4-0.5L101.5,233.17z M101.5,237.77l0.4,0.4l1.6-1.6l-0.4-0.4L101.5,237.77z M103.7,235.47l0.5,0.5l1.6-1.6l-0.5-0.5
	L103.7,235.47z"/>
</svg>
