<?xml version="1.0" encoding="utf-8"?>
<!-- Generator: Adobe Illustrator 27.0.1, SVG Export Plug-In . SVG Version: 6.00 Build 0)  -->
<svg version="1.1" id="Ebene_1" xmlns="http://www.w3.org/2000/svg" xmlns:xlink="http://www.w3.org/1999/xlink" x="0px" y="0px"
	 viewBox="0 0 108.91 235.64" style="enable-background:new 0 0 108.91 235.64;" xml:space="preserve">
<style type="text/css">
	.st0{fill:#1D1D1B;}
</style>
<g>
	<path class="st0" d="M33.2,90.43L0,57.22v-3.1h0.5l36.3,36.3H33.2z M0,58.12l32.3,32.3h-3.7L3.4,65.13L0,61.83V58.12z M24.1,90.43
		L0,66.33v-3.6l2.8,2.7l24.9,25H24.1z M19.6,90.43L0,70.83v-3.6l23.2,23.2H19.6z M0,71.73l18.7,18.7H15l-15-15V71.73z M0,76.33
		l14.1,14.1h-3.6L0,79.93V76.33z M0,80.83l9.6,9.6H6l-6-6V80.83z M0,85.43l5.1,5H1.4L0,89.03V85.43z M108.91,90.43h-3.1l-18.5-18.4
		l-0.1-0.2l-14.6-14.6v0.8l-0.1,0.1l32.4,32.3h-3.7l-28.6-28.6v0.8h-0.1l27.8,27.8h-3.6l-24.1-24.1v0.8l-0.1,0.1l9.8,9.7l13.5,13.5
		h-3.6l-11.9-11.8l-7.7-7.8v0.9h-0.1l18.8,18.7h-3.7l-15-15v0.8h-0.1l14.2,14.2h-3.6l-10.5-10.5v0.8l-0.1,0.1l3,2.9l6.7,6.7h-3.7
		l-5-5l-0.9-1v0.9h-0.1l5.1,5.1H74l-1.4-1.4v0.8h-0.1l0.6,0.6H72l-35.7,35.7v-1.4l34.3-34.3h-1.1l-1-1l-0.5,0.4l0.5,0.6h-1.1
		l-18.1,18.1l-0.1,0.2l-12.9,12.9v-1.4l29.8-29.8h-1.2l-1-1l-0.4,0.4l0.5,0.6h-1.1l-26.6,26.6v-1.3l25.2-25.3h-1.1l-1-1l-0.5,0.4
		l0.6,0.6h-1.1l-22.1,22.1v-1.4L57,90.43h-1.1l-1-1l-0.5,0.4l0.6,0.6h-1.2l-17.5,17.5v-1.3l16.2-16.2h-1.2l-1-1l-0.4,0.4l0.5,0.6
		h-1.1l-13,13v-1.4l11.6-11.6h-1.1l-1-1l-0.5,0.4l0.6,0.6h-1.1l-8.5,8.5v-1.4l7.1-7.1h-1.1l-1.1-1l-0.4,0.4l0.6,0.6h-1.2l-3.9,3.9
		v-1.3l2.6-2.6h-1.2l-1-1l-0.4,0.4v-0.8l-5.7-5.7l-0.1-0.2l-29.1-29h3.7l27.2,27.2l0.1,0.2l5.4,5.4l0.5-0.5l-1.6-1.5l-0.4,0.4v-0.8
		L10,58.23l-4-4.1h3.6l28.2,28.3l0.5-0.5l-1.6-1.6l-0.4,0.4v-0.8l-25.8-25.8h3.6l23.7,23.7l0.5-0.4l-1-1.1l-0.6-0.5l-0.4,0.4v-0.8
		l-21.2-21.3h3.6l19.1,19.2l0.5-0.5l-1.6-1.5l-0.4,0.4v-0.8l-16.7-16.8h3.6l14.6,14.7l0.5-0.5l-1.6-1.6l-0.4,0.4v-0.8l-12.2-12.2
		h3.7l10,10.1l0.5-0.4l-1.6-1.6l-0.4,0.4v-0.8l-7.6-7.7h3.6l5.5,5.6l0.5-0.5l-1.6-1.5l-0.4,0.4v-0.8l-3.1-3.2h3.6l1,1.1l0.5-0.5
		l-0.6-0.5h3.7l1,1l0.4-0.5l-0.5-0.5h3.6l1,1l0.5-0.5l-0.6-0.5h3.6l1.1,1l0.4-0.5l-0.5-0.5H55l1,1l0.5-0.5l-0.6-0.5h3.6l1,1l0.5-0.5
		l-0.6-0.5h3.7l1,1l0.4-0.5l-0.5-0.5h3.6l1,1l0.5-0.5l-0.6-0.5h3.6l35.8,35.7V90.43z M53.2,112.43l19.4-19.4v1.4l-36.3,36.2v-1.3
		l16.7-16.8L53.2,112.43z M72.6,97.53v1.4l-36.3,36.3v-1.4L72.6,97.53z M72.6,102.13v1.3l-36.3,36.3v-1.3L72.6,102.13z M72.6,108.03
		l-36.3,36.2v-1.3l36.3-36.3V108.03z M72.6,112.53l-9.7,9.6l-26.6,26.7v-1.4l36.3-36.3V112.53z M72.6,115.73v1.3l-36.3,36.3v-1.3
		L72.6,115.73z M72.6,121.63l-5.1,5.1l-0.2,0.1l-22.7,22.7l-8.3,8.4v-1.4l36.3-36.3V121.63z M72.6,124.73v1.4l-36.3,36.3v-1.4
		L72.6,124.73z M71.3,130.53l1.3-1.2v1.3l-36.3,36.3v-1.3l34.9-34.9L71.3,130.53z M36.3,170.13l36.3-36.3v1.4l-21,20.9l-15.3,15.4
		V170.13z M72.6,139.73l-36.3,36.3v-1.4l36.3-36.2V139.73z M72.6,142.93v1.3l-36.3,36.3v-1.3L72.6,142.93z M72.6,148.83l-14.2,14.1
		l-0.1,0.2l-22,22v-1.4l36.3-36.3V148.83z M72.6,152.03v1.3l-36.3,36.3v-1.3l23.5-23.6L72.6,152.03z M39.4,189.63l33.2-33.1v1.4
		l-9.7,9.6l-26.6,26.6v-1.3L39.4,189.63z M72.6,162.43l-30.1,30l-0.1,0.2l-6.1,6.1v-1.4l36.3-36.3V162.43z M66.6,171.53l6-5.9v1.3
		l-36.3,36.3v-1.3l7.8-7.9L66.6,171.53z M72.6,171.53l-25.5,25.5l-0.2,0.1l-10.6,10.7v-1.4l36.3-36.3V171.53z M72.6,176.03
		l-23.3,23.2l-13,13.1v-1.4l36.3-36.3V176.03z M50.9,200.83l21.7-21.6v1.3l-21.1,21.2l-15.2,15.1v-1.3L50.9,200.83z M53,203.23
		l19.6-19.5v1.4l-36.3,36.2v-1.3L53,203.23z M72.6,188.23v1.4l-36.3,36.3v-1.4L72.6,188.23z M72.6,192.83v1.3l-36.3,36.3v-1.3
		L72.6,192.83z M72.6,197.33v1.4l-36.3,36.2v-1.3L72.6,197.33z M40.6,57.03l-1.6-1.6l-0.5,0.4l1.6,1.6L40.6,57.03z M40.6,61.53
		l-1.6-1.6l-0.5,0.5l1.6,1.5L40.6,61.53z M40.6,66.03l-1.6-1.6l-0.5,0.5l1.6,1.6L40.6,66.03z M40.6,70.63l-1.6-1.6l-0.5,0.4l1.6,1.6
		L40.6,70.63z M40.6,75.13l-1.6-1.6l-0.5,0.5l0.6,0.5l0.1,0.2l0.9,0.9L40.6,75.13z M40.6,79.63l-1.6-1.6l-0.5,0.5l1.6,1.6
		L40.6,79.63z M40.6,84.23l-1.6-1.6l-0.5,0.4l1.6,1.6L40.6,84.23z M40.6,88.73l-1.6-1.6l-0.5,0.5l1.6,1.6L40.6,88.73z M72.6,203.23
		l-32.4,32.4h-1.3l0.7-0.8l33-33V203.23z M42.8,59.23l-1.5-1.6l-0.5,0.5l1.6,1.6L42.8,59.23z M42.8,63.83l-1.5-1.6l-0.5,0.4l1.6,1.6
		L42.8,63.83z M42.8,68.33l-1.5-1.6l-0.5,0.5l1.6,1.6L42.8,68.33z M42.8,72.83l-0.8-0.9l-0.2-0.1l-0.5-0.6l-0.5,0.5l1.6,1.6
		L42.8,72.83z M42.8,77.43l-1.5-1.6l-0.5,0.4l1.6,1.6L42.8,77.43z M42.8,81.93l-1.5-1.6l-0.5,0.5l1.6,1.6L42.8,81.93z M42.8,86.43
		l-1.5-1.5l-0.5,0.4l1.6,1.6L42.8,86.43z M45.1,57.03l-1.6-1.6l-0.4,0.4l1.6,1.6L45.1,57.03z M45.1,61.53l-1.6-1.6l-0.4,0.5l1.6,1.5
		L45.1,61.53z M45.1,66.03l-1.6-1.6l-0.4,0.5l1.6,1.6L45.1,66.03z M45.1,70.63l-1-1.1l-0.6-0.5l-0.4,0.4l0.5,0.6l0.2,0.1l0.9,0.9
		L45.1,70.63z M45.1,75.13l-1.6-1.6l-0.4,0.5l1.6,1.6L45.1,75.13z M45.1,79.63l-1.6-1.6l-0.4,0.5l1.6,1.6L45.1,79.63z M45.1,84.23
		l-1.6-1.6l-0.4,0.4l1.6,1.6L45.1,84.23z M45.1,88.73l-1.6-1.6l-0.4,0.5l1.6,1.6L45.1,88.73z M72.6,206.43v1.3l-27.8,27.9h-1.4
		L72.6,206.43z M47.4,59.23l-1.6-1.6l-0.5,0.5l1.6,1.6L47.4,59.23z M47.4,63.83l-1.6-1.6l-0.5,0.4l1.6,1.6L47.4,63.83z M47.4,68.33
		l-0.9-0.9l-0.2-0.1l-0.5-0.6l-0.5,0.5l1.6,1.5L47.4,68.33z M47.4,72.83l-1.6-1.6l-0.5,0.5l1.6,1.6L47.4,72.83z M47.4,77.43
		l-1.6-1.6l-0.5,0.4l1.6,1.6L47.4,77.43z M47.4,81.93l-1.6-1.6l-0.5,0.5l1.6,1.6L47.4,81.93z M47.4,86.43l-1.6-1.5l-0.5,0.4l1.6,1.6
		L47.4,86.43z M49.6,57.03l-1.5-1.6l-0.5,0.4l1.6,1.6L49.6,57.03z M49.6,61.53l-1.5-1.6l-0.5,0.5l1.6,1.5L49.6,61.53z M49.6,66.03
		l-1-1l-0.5-0.6l-0.5,0.5l0.6,0.5l0.1,0.2l0.9,0.9L49.6,66.03z M49.6,70.63l-1.5-1.6l-0.5,0.4l1.6,1.6L49.6,70.63z M49.6,75.13
		l-1.5-1.6l-0.5,0.5l1.6,1.6L49.6,75.13z M49.6,79.63l-1.5-1.5l-0.5,0.4l1.6,1.6L49.6,79.63z M49.6,84.23l-1.5-1.6l-0.5,0.4l1.6,1.6
		L49.6,84.23z M49.6,88.73l-1.5-1.6l-0.5,0.5l1.6,1.6L49.6,88.73z M72.6,212.33l-5.1,5.1l-0.2,0.1l-18,18.1h-1.4l24.7-24.7V212.33z
		 M51.9,59.23l-1.6-1.6l-0.4,0.5l1.6,1.6L51.9,59.23z M51.9,63.83l-1.6-1.6l-0.4,0.4l0.5,0.6l0.2,0.1l0.9,0.9L51.9,63.83z
		 M51.9,68.33l-1.6-1.6l-0.4,0.5l1.6,1.6L51.9,68.33z M51.9,72.83l-1.6-1.6l-0.4,0.5l1.6,1.6L51.9,72.83z M51.9,77.43l-1.6-1.6
		l-0.4,0.4l1.6,1.6L51.9,77.43z M51.9,81.93l-1.6-1.6l-0.4,0.5l1.6,1.6L51.9,81.93z M51.9,86.43l-1.6-1.5l-0.4,0.4l1.6,1.6
		L51.9,86.43z M54.2,57.03l-1.6-1.6l-0.5,0.4l1.6,1.6L54.2,57.03z M54.2,61.53l-0.9-0.9l-0.2-0.1l-0.5-0.6l-0.5,0.5l0.6,0.6l1,0.9
		L54.2,61.53z M54.2,66.03l-1.6-1.6l-0.5,0.5l1.6,1.6L54.2,66.03z M54.2,70.63l-1.6-1.6l-0.5,0.4l1.6,1.6L54.2,70.63z M54.2,75.13
		l-1.6-1.6l-0.5,0.5l1.6,1.6L54.2,75.13z M54.2,79.63l-1.6-1.5l-0.5,0.4l1.6,1.6L54.2,79.63z M54.2,84.23l-1.6-1.6l-0.5,0.4l1.6,1.6
		L54.2,84.23z M54.2,88.73l-1.6-1.6l-0.5,0.5l1.6,1.6L54.2,88.73z M52.5,235.64l20.1-20.1v1.3l-18.8,18.8H52.5z M56.4,59.23l-1-1
		l-0.5-0.6l-0.5,0.5l0.6,0.5l0.1,0.2l0.9,0.9L56.4,59.23z M56.4,63.83l-1.5-1.6l-0.5,0.4l1.6,1.6L56.4,63.83z M56.4,68.33l-1.5-1.6
		l-0.5,0.5l1.6,1.6L56.4,68.33z M56.4,72.83l-1.5-1.6l-0.5,0.5l1.6,1.6L56.4,72.83z M56.4,77.43l-1.5-1.6l-0.5,0.4l1.6,1.6
		L56.4,77.43z M56.4,81.93l-1.5-1.6l-0.5,0.5l1.6,1.6L56.4,81.93z M56.4,86.43l-1.5-1.5l-0.5,0.4l1.6,1.6L56.4,86.43z M58.7,57.03
		l-0.9-0.9l-0.1-0.2l-0.6-0.5l-0.4,0.4l1.6,1.6L58.7,57.03z M58.7,61.53l-1.6-1.6l-0.4,0.5l1.6,1.6L58.7,61.53z M58.7,66.03
		l-1.6-1.6l-0.4,0.5l1.6,1.6L58.7,66.03z M58.7,70.63l-1.6-1.6l-0.4,0.4l1.6,1.6L58.7,70.63z M58.7,75.13l-1.6-1.6l-0.4,0.5l1.6,1.6
		L58.7,75.13z M58.7,79.63l-1.6-1.5l-0.4,0.4l1.6,1.6L58.7,79.63z M58.7,84.23l-1.6-1.6l-0.4,0.4l1.6,1.6L58.7,84.23z M58.7,88.73
		l-1.6-1.6l-0.4,0.5l1.6,1.6L58.7,88.73z M71.3,221.24l1.3-1.2v1.4l-14.2,14.2H57l14.2-14.2L71.3,221.24z M61,59.23l-1.6-1.5
		l-0.5,0.4l1.6,1.6L61,59.23z M61,63.83l-1.6-1.6l-0.5,0.4l1.6,1.6L61,63.83z M61,68.33l-1.6-1.6l-0.5,0.5l1.6,1.6L61,68.33z
		 M61,72.83l-1.6-1.5l-0.5,0.4l1.6,1.6L61,72.83z M61,77.43l-1.6-1.6l-0.5,0.4l1.6,1.6L61,77.43z M61,81.93l-1.6-1.6l-0.5,0.5
		l1.6,1.6L61,81.93z M61,86.53l-1.6-1.6l-0.5,0.4l1.6,1.6L61,86.53z M63.2,57.03l-1.5-1.6l-0.5,0.4l1.6,1.6L63.2,57.03z M63.2,61.53
		l-1.5-1.6l-0.5,0.5l1.6,1.6L63.2,61.53z M63.2,66.03l-1.5-1.5l-0.5,0.4l1.6,1.6L63.2,66.03z M63.2,70.63l-1.5-1.6l-0.5,0.4l1.6,1.6
		L63.2,70.63z M63.2,75.13l-1.5-1.6l-0.5,0.5l1.6,1.6L63.2,75.13z M63.2,79.73l-1.5-1.6l-0.5,0.4l1.6,1.6L63.2,79.73z M63.2,84.23
		l-1.5-1.6l-0.5,0.5l1.6,1.5L63.2,84.23z M63.2,88.73l-1.5-1.6l-0.5,0.5l1.6,1.6L63.2,88.73z M61.6,235.64l11-11.1v1.4l-9.7,9.7
		H61.6z M65.5,59.23l-1.6-1.6l-0.4,0.5l1.6,1.6L65.5,59.23z M65.5,63.83l-1.6-1.6l-0.4,0.4l1.6,1.6L65.5,63.83z M65.5,68.33
		l-1.6-1.6l-0.4,0.5l1.6,1.6L65.5,68.33z M65.5,72.83l-1.6-1.5l-0.4,0.4l1.6,1.6L65.5,72.83z M65.5,77.43l-1.6-1.6l-0.4,0.4l1.6,1.6
		L65.5,77.43z M65.5,81.93l-1.6-1.6l-0.4,0.5l1.6,1.6L65.5,81.93z M65.5,86.53l-1.6-1.6l-0.4,0.4l1.6,1.6L65.5,86.53z M67.8,57.03
		l-1.6-1.6l-0.5,0.4l1.6,1.6L67.8,57.03z M67.8,61.53l-1.6-1.6l-0.5,0.5l1.6,1.6L67.8,61.53z M67.8,66.03l-1.6-1.5l-0.5,0.4l1.6,1.6
		L67.8,66.03z M67.8,70.63l-1.6-1.6l-0.5,0.4l1.6,1.6L67.8,70.63z M67.8,75.13l-1.6-1.6l-0.5,0.5l1.6,1.6L67.8,75.13z M67.8,79.73
		l-1.6-1.6l-0.5,0.4l1.6,1.6L67.8,79.73z M67.8,84.23l-1.6-1.6l-0.5,0.5l1.6,1.5L67.8,84.23z M67.8,88.73l-1.6-1.6l-0.5,0.5l1.6,1.6
		L67.8,88.73z M66.1,235.54l6.5-6.4v1.3l-5.2,5.1H66.1z M70,59.23l-1.5-1.6l-0.5,0.5l1.6,1.6L70,59.23z M70,63.83l-1.5-1.6l-0.5,0.4
		l1.6,1.6L70,63.83z M70,68.33l-1.5-1.6l-0.5,0.5l1.6,1.6L70,68.33z M70,72.83l-1.5-1.5l-0.5,0.4l1.6,1.6L70,72.83z M70,77.43
		l-1.5-1.6l-0.5,0.5l1.6,1.5L70,77.43z M70,81.93l-1.5-1.6l-0.5,0.5l1.6,1.6L70,81.93z M70,86.53l-1.5-1.6l-0.5,0.4l1.6,1.6
		L70,86.53z M72.3,57.03l-1.6-1.6l-0.4,0.4l1.6,1.6L72.3,57.03z M72.3,61.53l-1.6-1.6l-0.4,0.5l1.6,1.6L72.3,61.53z M72.3,66.03
		l-1.6-1.5l-0.4,0.4l1.6,1.6L72.3,66.03z M72.3,70.63l-1.6-1.6l-0.4,0.5l1.6,1.5L72.3,70.63z M72.3,75.13l-1.6-1.6l-0.4,0.5l1.6,1.6
		L72.3,75.13z M72.3,79.73l-1.6-1.6l-0.4,0.4l1.6,1.6L72.3,79.73z M72.3,84.23l-1.6-1.6l-0.4,0.5l1.6,1.5L72.3,84.23z M72.3,88.73
		l-1.6-1.6l-0.4,0.5l1.6,1.6L72.3,88.73z M70.6,235.54l2-1.9v1.4l-0.6,0.5H70.6z M108.91,89.03L74,54.12h3.6l31.3,31.2V89.03z
		 M93.61,65.63l15.3,15.2v3.6l-30.4-30.3h3.7l11.3,11.3L93.61,65.63z M108.91,79.93l-14.8-14.8l-0.2-0.1l-10.8-10.9h3.6l22.2,22.2
		V79.93z M108.91,71.73v3.7l-21.3-21.3h3.6L108.91,71.73z M108.91,67.23v3.6l-10.3-10.2l-0.1-0.2l-6.3-6.3h3.6L108.91,67.23z
		 M108.91,62.73v3.6l-12.2-12.2h3.6L108.91,62.73z M108.91,58.12v3.6l-5.7-5.6l-2-2h3.7L108.91,58.12z M108.91,54.12v3.1l-3.1-3.1
		H108.91z"/>
</g>
</svg>
