<?xml version="1.0" encoding="utf-8"?>
<!-- Generator: Adobe Illustrator 27.0.0, SVG Export Plug-In . SVG Version: 6.00 Build 0)  -->
<svg version="1.1" id="Ebene_1" xmlns="http://www.w3.org/2000/svg" xmlns:xlink="http://www.w3.org/1999/xlink" x="0px" y="0px"
	 viewBox="0 0 596 323" style="enable-background:new 0 0 596 323;" xml:space="preserve">
<style type="text/css">
	.st0{fill:#027FA5;}
</style>
<g>
	<path class="st0" d="M461.3,201.7c-19.6,0.1-38.5-7.7-52.3-21.7c-7.5-8.4-18.2-13.3-29.5-13.3c-11.3,0-22,4.8-29.5,13.3
		c-13.8,13.9-32.6,21.7-52.2,21.7c-19.6,0-38.4-7.8-52.2-21.7c-7.4-8.4-18.2-13.3-29.4-13.3s-22,4.8-29.4,13.3
		c-13.8,13.9-32.6,21.8-52.2,21.8c-19.6,0-38.4-7.8-52.2-21.8c-7.5-8.4-18.2-13.3-29.4-13.3c-6.3,0-12-3.3-15.2-8.8
		s-3.1-12.1,0-17.5s8.9-8.8,15.2-8.8c19.6-0.1,38.4,7.7,52.2,21.7c7.4,8.4,18.2,13.3,29.4,13.3s22-4.8,29.4-13.3
		c13.8-13.9,32.6-21.8,52.2-21.8c19.6,0,38.4,7.8,52.2,21.8c7.4,8.4,18.2,13.3,29.4,13.3c11.3,0,22-4.8,29.4-13.3
		c13.8-13.9,32.6-21.7,52.2-21.7c19.6,0,38.4,7.8,52.2,21.7c7.5,8.5,18.2,13.3,29.5,13.3s22-4.8,29.5-13.3
		c13.8-14,32.6-21.8,52.3-21.7c6.3,0,12,3.3,15.2,8.8s3.1,12.1,0,17.5s-8.9,8.8-15.2,8.8c-11.3,0-22,4.9-29.5,13.3
		C499.7,193.9,480.9,201.7,461.3,201.7L461.3,201.7z"/>
	<path class="st0" d="M461.3,114.2c-19.6,0.1-38.5-7.7-52.3-21.7c-7.5-8.4-18.2-13.3-29.5-13.3c-11.3,0-22,4.8-29.5,13.3
		c-13.8,13.9-32.6,21.7-52.2,21.7c-19.6,0-38.4-7.8-52.2-21.7c-7.4-8.4-18.2-13.3-29.4-13.3s-22,4.8-29.4,13.3
		c-13.8,13.9-32.6,21.8-52.2,21.8c-19.6,0-38.4-7.8-52.2-21.8C75,84,64.3,79.2,53,79.2c-6.3,0-12-3.3-15.2-8.8s-3.1-12.1,0-17.5
		s8.9-8.8,15.2-8.8c19.6-0.1,38.4,7.7,52.2,21.7c7.4,8.4,18.2,13.3,29.4,13.3s22-4.8,29.4-13.3c13.8-13.9,32.6-21.8,52.2-21.8
		c19.6,0,38.4,7.8,52.2,21.8c7.4,8.4,18.2,13.3,29.4,13.3c11.3,0,22-4.8,29.4-13.3c13.8-13.9,32.6-21.7,52.2-21.7
		c19.6,0,38.4,7.8,52.2,21.7c7.5,8.5,18.2,13.3,29.5,13.3s22-4.8,29.5-13.3c13.8-14,32.6-21.8,52.3-21.7c6.3,0,12,3.3,15.2,8.8
		s3.1,12.1,0,17.5s-8.9,8.8-15.2,8.8c-11.3,0-22,4.9-29.5,13.3C499.7,106.4,480.9,114.2,461.3,114.2L461.3,114.2z"/>
	<path class="st0" d="M461.3,289.2c-19.6,0.1-38.5-7.7-52.3-21.7c-7.5-8.4-18.2-13.3-29.5-13.3c-11.3,0-22,4.8-29.5,13.3
		c-13.8,13.9-32.6,21.7-52.2,21.7c-19.6,0-38.4-7.8-52.2-21.7c-7.4-8.4-18.2-13.3-29.4-13.3s-22,4.8-29.4,13.3
		c-13.8,13.9-32.6,21.8-52.2,21.8c-19.6,0-38.4-7.8-52.2-21.8C75,259,64.3,254.2,53,254.2c-6.3,0-12-3.3-15.2-8.8s-3.1-12.1,0-17.5
		s8.9-8.8,15.2-8.8c19.6-0.1,38.4,7.7,52.2,21.7c7.4,8.4,18.2,13.3,29.4,13.3s22-4.8,29.4-13.3c13.8-13.9,32.6-21.8,52.2-21.8
		c19.6,0,38.4,7.8,52.2,21.8c7.4,8.4,18.2,13.3,29.4,13.3c11.3,0,22-4.8,29.4-13.3c13.8-13.9,32.6-21.7,52.2-21.7
		c19.6,0,38.4,7.8,52.2,21.7c7.5,8.5,18.2,13.3,29.5,13.3s22-4.8,29.5-13.3c13.8-14,32.6-21.8,52.3-21.7c6.3,0,12,3.3,15.2,8.8
		s3.1,12.1,0,17.5s-8.9,8.8-15.2,8.8c-11.3,0-22,4.9-29.5,13.3C499.7,281.4,480.9,289.2,461.3,289.2L461.3,289.2z"/>
</g>
</svg>
