<?xml version="1.0" encoding="utf-8"?>
<!-- Generator: Adobe Illustrator 27.0.1, SVG Export Plug-In . SVG Version: 6.00 Build 0)  -->
<svg version="1.1" id="Ebene_1" xmlns="http://www.w3.org/2000/svg" xmlns:xlink="http://www.w3.org/1999/xlink" x="0px" y="0px"
	 viewBox="0 0 108.41 239.51" style="enable-background:new 0 0 108.41 239.51;" xml:space="preserve">
<style type="text/css">
	.st0{fill:#1D1D1B;}
</style>
<path class="st0" d="M34.92,92.54l-35.7,35.6v-2.7l32.1-32l-0.9-0.9l-31.2,31.1v-2.7l25.2-25.2l0.2-0.1l2.1-2.2l-0.9-0.9l-26.6,26.6
	v-2.8l23-22.9l-0.9-0.9l-22.1,22v-2.7l18.5-18.4l-1-0.9l-17.4,17.5v-2.7l13.8-13.9l-0.9-0.9l-12.9,13v-2.8l9.3-9.3l-0.9-0.9
	l-8.4,8.4v-2.7l4.7-4.8l-0.9-0.9l-3.8,3.9v-2.7l0.2-0.3l-0.2-0.2v-1.4l0.9,0.9l1.6-1.6l-0.9-0.9l-1.6,1.6c0-1,0-1.9,0.1-2.8l0.1-0.1
	l-0.1-0.2v-1.3l0.8,0.8l1.6-1.6l-0.9-0.9l-1.4,1.4l0.3-3.8l0.4,0.4l1.6-1.6l-0.9-0.9l-0.9,0.9l0.6-3.4l1.2-1.2l-0.8-0.7
	c0.5-1.7,1-3.3,1.7-4.7l1.3-1.4l-0.4-0.4c0.1-0.3,0.3-0.6,0.5-0.9l0.6,0.7l1.6-1.6l-0.9-0.9l-0.3,0.3c1.3-1.8,2.8-3.3,4.5-4.6
	l-1.2,1.3l0.9,0.9l1.5-1.6l-0.8-0.8l0.8-0.6l0.7,0.8l1.6-1.6l-0.3-0.3l1-0.4l0.1-0.1c1.3-0.6,2.7-1.1,4.2-1.5l-0.7,0.7l0.9,0.9
	l1.6-1.6l-0.4-0.4l5-0.9l0.6,0.6l0.8-0.7l3-0.3l-0.1,0.1l0.9,0.9l1.1-1.1c0.9-0.1,1.9-0.1,2.8-0.1l-0.3,0.3l0.9,0.9l1.2-1.2h0.1v2.5
	l23.3,23.3l0.1,0.2l10.3,10.3h-1.3l-33-33l-1.6,1.6l0.9,0.9l1.3-1.4v2.7l21.1,21.1h0.1l8,8.1h-1.4l-28.4-28.5l-1.6,1.6l0.9,0.9
	l1.3-1.3v2.6l24.7,24.7h-1.4l-23.9-24l-1.6,1.6l0.9,0.9l1.3-1.3v2.7l20.1,20.1h-1.3l-19.4-19.4l-1.6,1.6l0.9,0.9l1.3-1.3v2.6
	l15.6,15.6h-1.4l-14.8-14.9l-1.6,1.6l0.9,0.9l1.3-1.3v2.6l11,11.1h-1.3l-10.3-10.3l-1.6,1.5l0.9,0.9l1.3-1.3v2.7l6.5,6.5h-1.4
	l-5.7-5.8l-1.6,1.6l0.9,0.9l1.3-1.3v2.6l2,2h-1.4L34.92,92.54z M-0.78,130.04l36.3-36.3v2.7l-36.3,36.3V130.04z M35.52,100.94
	l-36.3,36.3v-2.7l9.3-9.3l0.2-0.1l22.5-22.5l0.1-0.2l4.2-4.2V100.94z M35.52,105.54l-36.3,36.3v-2.7l36.3-36.3V105.54z
	 M-0.78,143.64l36.3-36.3v2.7l-36.3,36.3V143.64z M47.32,159.74l24.5,24.6h-2.7l-33.6-33.6v0.1l-0.5,0.6l-0.2,0.1l-0.1,0.1
	l32.6,32.7h-2.7l-29.1-29.1v0.2l-0.8,0.8l28.1,28.1h-2.8l-24.5-24.6v0.2l-0.8,0.8l23.5,23.6h-2.7l-20-20v0.2l-0.8,0.8l19,19h-2.7
	l-15.5-15.5v0.2l-0.8,0.8l14.5,14.5h-2.8l-10.9-10.9v0.1l-0.8,0.8l9.9,10h-2.7l-6.4-6.4v0.1l-0.8,0.8l5.4,5.5h-2.7l-1.9-1.9v0.2
	l-0.8,0.8l0.9,0.9h-1.8l-34.6,34.6v-2.8l4.8-4.7l0.1-0.2l27.8-27.8l-0.9-0.9l-0.9,0.9l0.9,0.9h-1.8l-30,30v-2.7l28.2-28.2l-0.9-0.9
	l-0.9,0.9l0.9,0.9h-1.8l-1.1,1.1l-0.1,0.2l-24.3,24.2v-2.7l23.7-23.7l-0.9-0.9l-0.9,0.9l0.8,0.9h-1.7l-21,21v-2.8l19.1-19.1
	l-0.9-0.9l-0.9,0.9l0.9,0.9h-1.8l-16.4,16.4v-2.7l14.6-14.6l-0.9-0.9l-0.9,0.9l0.9,0.9h-1.8l-11.9,11.9v-2.7l10.1-10.1l-0.9-0.9
	l-0.9,0.9l0.8,0.9h-1.7l-7.4,7.4v-2.8l5.5-5.5l-0.9-0.9l-0.9,0.9l0.9,0.9h-1.8l-2.8,2.8v-2.7l1-1l-0.9-0.9l-0.1,0.1v-2.9l0.1,0.1
	l0.9-0.9l-0.9-0.9l-0.1,0.1v-2.9h0.1l0.9-0.9l-0.9-0.9l-0.1,0.1v-2.8l0.1,0.1l0.9-1l-0.9-0.9l-0.1,0.1v-2.9l0.1,0.1l0.9-0.9
	l-0.9-0.9h-0.1v-2.8h0.1l0.9-0.9l-0.9-0.9l-0.1,0.1v-2.8h0.1l0.9-0.9l-0.9-0.9l-0.1,0.1v-2.9l0.1,0.1l0.9-0.9l-0.9-0.9h-0.1v-2.8
	h0.1l36.2-36.2v2.8l-33.5,33.4h1.9l31.6-31.6v2.7l-28.9,28.9h1.8l27.1-27.1v2.7l-24.4,24.4h1.8l22.6-22.6v2.8l-19.9,19.8h1.8l7-6.9
	l0.1-0.2l11-10.9v2.7l-15.3,15.3h1.8l13.5-13.5v2.7l-10.8,10.8h1.8l2.4-2.4l0.2-0.1l6.4-6.5v2.8l-6.2,6.2h1.8l4.4-4.4v2.7l-1.7,1.7
	h1.8l11.5,11.6L47.32,159.74z M35.52,184.45v2.7l-36.3,36.3v-2.7L35.52,184.45z M35.52,191.75l-36.3,36.2v-2.7l36.3-36.3V191.75z
	 M-0.78,229.85l36.3-36.3v2.7l-36.3,36.3V229.85z M-0.78,234.35l36.3-36.3v2.7l-36.3,36.3V234.35z M-0.78,238.85l36.3-36.3v2.8
	l-33.6,33.6h-2.7V238.85z M1.52,159.44l0.9-0.9l-0.9-0.9l-0.9,0.9L1.52,159.44z M1.62,163.94l0.1-0.1l0.1-0.2l0.6-0.6l-0.9-0.9
	l-0.9,0.9L1.62,163.94z M1.52,173.04l1-1l-0.9-0.9l-1,1L1.52,173.04z M1.62,150.34l0.9-0.9l-0.9-0.9l-0.9,0.9L1.62,150.34z
	 M1.62,154.84l0.9-0.9l-0.9-0.9l-0.9,0.9L1.62,154.84z M1.62,168.54l0.9-0.9l-0.9-1l-0.9,0.9L1.62,168.54z M1.62,177.54l0.9-0.9
	l-0.9-0.9l-0.9,0.9L1.62,177.54z M2.52,181.14l-0.9-0.9l-0.9,0.9l0.9,0.9L2.52,181.14z M2.52,76.84l1.5-1.6l-0.9-0.9l-1.5,1.6
	L2.52,76.84z M2.52,81.44l1.5-1.6l-0.9-0.9l-1.5,1.6L2.52,81.44z M2.52,85.94l1.5-1.6l-0.9-0.9l-1.5,1.6L2.52,85.94z M4.02,88.84
	l-0.9-0.9l-1.5,1.6l0.9,0.9L4.02,88.84z M3.82,155.34l-0.9,0.9l0.9,0.9l0.9-0.9L3.82,155.34z M2.92,160.74l0.9,0.9l0.9-0.9l-0.9-0.9
	L2.92,160.74z M3.82,164.44l-0.9,0.9l0.9,0.9l0.2-0.1l0.1-0.2l0.6-0.6L3.82,164.44z M3.82,168.94l-0.9,0.9l0.9,0.9l0.9-0.9
	L3.82,168.94z M3.92,173.44l-1,1l0.9,0.9l1-1L3.92,173.44z M3.82,178.04l-0.9,0.9l0.9,0.9l0.9-0.9L3.82,178.04z M4.82,151.64
	l-0.9-0.9l-0.9,0.9l0.9,0.9L4.82,151.64z M3.72,238.95l31.8-31.8v2.7l-29.1,29.1H3.72z M3.82,73.64l0.9,1l1.6-1.6l-0.9-0.9
	L3.82,73.64z M5.42,76.64l-1.6,1.6l0.9,0.9l1.6-1.6L5.42,76.64z M3.82,82.74l0.9,0.9l1.6-1.5l-0.9-0.9L3.82,82.74z M3.82,87.34
	l0.9,0.9l1.6-1.6l-0.9-0.9L3.82,87.34z M6.32,91.14l-0.9-0.9l-1.6,1.6l0.9,0.9L6.32,91.14z M5.22,149.44l0.9,0.9l0.9-0.9l-0.9-0.9
	L5.22,149.44z M5.22,153.94l0.9,0.9l0.9-0.9l-0.9-0.9L5.22,153.94z M6.12,157.64l-0.9,0.9l0.9,0.9l0.9-0.9L6.12,157.64z
	 M5.22,163.04l0.9,0.9l0.9-0.9l-0.9-0.9L5.22,163.04z M5.22,167.54l0.9,0.9l0.9-0.9l-0.9-0.8l-0.6,0.6l-0.2,0.1L5.22,167.54z
	 M5.22,172.14l0.9,0.9l0.9-0.9l-0.9-0.9L5.22,172.14z M6.12,177.54l0.9-0.9l-0.9-0.9l-0.9,0.9L6.12,177.54z M7.02,181.25l-0.9-1
	l-0.9,0.9l0.9,1L7.02,181.25z M7.02,67.84l1.6-1.6l-0.9-0.9l-1.6,1.5L7.02,67.84z M6.12,71.44l0.9,0.9l1.6-1.6l-0.9-0.9L6.12,71.44z
	 M7.72,74.34l-1.6,1.6l0.9,0.9l1.6-1.5L7.72,74.34z M7.72,78.94l-1.6,1.6l0.9,0.9l1.6-1.6L7.72,78.94z M7.02,85.94l1.6-1.6l-0.9-0.9
	l-1.6,1.6L7.02,85.94z M8.62,88.84l-0.9-0.9l-1.6,1.6l0.9,0.9L8.62,88.84z M7.42,178.94l0.9,0.9l1-0.9l-0.9-1L7.42,178.94z
	 M9.32,151.64l-0.9-0.9l-0.9,0.9l0.9,0.9L9.32,151.64z M7.52,156.24l0.9,0.9l0.8-0.9l-0.9-0.9L7.52,156.24z M7.52,160.74l0.9,0.9
	l0.9-0.9l-0.9-0.9L7.52,160.74z M8.42,164.44l-0.9,0.9l0.9,0.8l0.8-0.8L8.42,164.44z M7.62,169.74l-0.1,0.1l0.9,0.9l0.9-0.9l-1-0.9
	l-0.6,0.6L7.62,169.74z M8.42,173.44l-0.9,0.9l0.9,0.9l0.9-0.9L8.42,173.44z M7.72,21.74v-0.5l20.4-20.4h0.5c0.6,0,1.1,0,1.7,0.1
	l-22.5,22.5C7.72,22.94,7.72,22.33,7.72,21.74z M20.52,6.23l-12.6,12.5c0.1-1,0.4-1.9,0.6-2.9l10.8-10.8l0.2-0.1l3.2-3.2
	c1-0.3,1.9-0.5,2.9-0.7l-5,5L20.52,6.23z M24.02,9.43l8.3-8.3c0.6,0.2,1.2,0.3,1.9,0.5l-9,9l-0.2,0.1l-16.6,16.6
	c-0.1-0.6-0.3-1.2-0.4-1.9l15.9-15.8L24.02,9.43z M8.22,238.95l27.3-27.3v2.7l-24.6,24.6H8.22z M9.92,72.14l-1.6,1.6l1,0.9l1.5-1.6
	L9.92,72.14z M8.32,82.74l1,0.9l1.5-1.5l-0.9-0.9L8.32,82.74z M8.32,87.34l0.6,0.5l0.1,0.2l0.3,0.2l1.5-1.6l-0.9-0.9L8.32,87.34z
	 M8.42,69.14l0.9,0.9l1.5-1.6l-0.9-0.9L8.42,69.14z M9.92,76.64l-1.5,1.6l0.9,0.9l1.5-1.6L9.92,76.64z M10.92,91.14l-1-0.9l-1.5,1.6
	l0.9,0.9L10.92,91.14z M35.92,2.13c0.5,0.2,1.1,0.4,1.6,0.7l-10.1,10l-17.7,17.8c-0.3-0.5-0.5-1.1-0.7-1.6L35.92,2.13z M9.72,149.44
	l0.9,0.9l0.9-0.9l-0.9-0.9L9.72,149.44z M10.62,153.04l-0.9,0.9l0.9,0.9l0.9-0.9L10.62,153.04z M9.72,163.04l0.9,0.9l0.9-0.9
	l-0.9-0.9L9.72,163.04z M9.72,167.54l1,0.9l0.8-0.8l-0.9-1L9.72,167.54z M10.62,173.04l0.9-0.9l-0.9-0.9l-0.9,0.9L10.62,173.04z
	 M10.62,177.54l0.9-0.9l-0.9-0.9l-0.9,0.9L10.62,177.54z M11.62,181.14l-0.9-0.9l-1,1l0.9,0.9L11.62,181.14z M10.62,157.64l-0.8,0.8
	l0.9,0.9l0.8-0.8L10.62,157.64z M18.42,3.83l-8.3,8.2c2-3.7,5-6.8,8.8-8.8L18.42,3.83z M10.42,32.14l28.6-28.5l1.4,0.8l-29.1,29.1
	L10.42,32.14z M10.62,66.84l0.9,1l1.6-1.6l-0.9-0.9L10.62,66.84z M12.22,69.84l-1.6,1.6l0.9,0.9l1.6-1.6L12.22,69.84z M12.22,74.34
	l-1.6,1.6l0.9,0.9l1.6-1.5L12.22,74.34z M11.52,81.44l1.6-1.6l-0.9-0.9l-1.6,1.6L11.52,81.44z M11.52,85.94l1.6-1.6l-0.9-0.9
	l-1.6,1.6L11.52,85.94z M13.12,88.84l-0.9-0.9l-1.6,1.6l0.9,0.9L13.12,88.84z M12.02,151.74l0.9,0.9l0.9-0.9l-0.9-0.9L12.02,151.74z
	 M13.82,156.24l-0.9-0.9l-0.9,0.9l0.9,0.9L13.82,156.24z M13.82,160.74l-0.9-0.8l-0.9,0.8l0.9,0.9L13.82,160.74z M12.92,164.44
	l-0.9,0.9l0.9,0.9l0.9-0.9L12.92,164.44z M12.92,168.94l-0.9,0.9l0.9,0.9l0.9-0.9L12.92,168.94z M12.02,174.34l0.9,1l0.9-1l-0.9-0.9
	L12.02,174.34z M12.02,178.94l0.9,0.9l0.9-0.9l-0.9-0.9L12.02,178.94z M12.32,34.84l29.4-29.4l1.2,1l-29.6,29.6L12.32,34.84z
	 M12.82,238.95l22.7-22.7v2.7l-20,20H12.82z M12.92,64.64l0.9,0.9l1.6-1.6l-0.9-0.9L12.92,64.64z M14.52,67.54l-1.6,1.6l0.9,0.9
	l1.6-1.6L14.52,67.54z M14.52,72.14l-1.6,1.6l0.9,0.9l1.6-1.6L14.52,72.14z M14.52,76.64l-1.6,1.6l0.9,0.9l1.6-1.6L14.52,76.64z
	 M12.92,82.74l0.5,0.6l0.2,0.1l0.2,0.2l1.6-1.5l-0.9-0.9L12.92,82.74z M12.92,87.34l0.9,0.9l1.6-1.6l-0.9-0.9L12.92,87.34z
	 M15.42,91.14l-0.9-0.9l-1.6,1.6l0.9,0.9L15.42,91.14z M14.32,149.44l0.9,0.9l0.9-0.9l-0.9-0.9L14.32,149.44z M15.22,153.04
	l-0.9,0.9l0.9,0.9l0.9-0.9L15.22,153.04z M15.22,157.64l-0.9,0.9l0.9,0.8l0.9-0.9L15.22,157.64z M14.32,163.04l0.9,0.9l0.9-0.9
	l-1-0.9L14.32,163.04z M15.22,168.44l0.9-0.9l-0.9-0.9l-0.9,0.9L15.22,168.44z M15.22,173.04l0.8-0.9l-0.9-0.9l-0.8,0.8
	L15.22,173.04z M15.22,177.54l0.9-0.9l-0.9-0.9l-0.9,0.9L15.22,177.54z M16.12,181.14l-0.9-0.9l-0.9,0.9l0.9,0.9L16.12,181.14z
	 M44.02,7.63c0.4,0.4,0.7,0.8,1,1.2l-29.3,29.4l-1.2-1.1L44.02,7.63z M15.22,62.34l0.9,0.9l1.6-1.6l-1-0.9L15.22,62.34z
	 M17.62,66.24l-0.9-0.9l-1.5,1.6l0.9,0.9L17.62,66.24z M17.62,70.74l-0.9-0.9l-1.5,1.6l0.9,0.9L17.62,70.74z M16.12,76.84l1.6-1.5
	l-1-1l-1.5,1.6L16.12,76.84z M16.12,81.44l1.5-1.6l-0.2-0.2l-0.1-0.2l-0.6-0.5l-1.5,1.6L16.12,81.44z M16.12,85.94l1.5-1.6l-0.9-0.9
	l-1.5,1.6L16.12,85.94z M17.72,88.84l-0.9-0.9l-1.6,1.6l0.9,0.9L17.72,88.84z M18.32,156.24l-0.9-0.9l-0.9,0.9l0.9,0.9L18.32,156.24
	z M17.52,161.64l0.9-0.9l-1-0.9l-0.9,0.9L17.52,161.64z M16.52,169.84l0.9,0.9l0.9-0.9l-0.9-0.9L16.52,169.84z M16.52,178.94
	l0.9,0.9l0.9-0.9l-0.9-0.9L16.52,178.94z M18.42,151.64l-0.9-0.9l-0.9,0.9l0.9,0.9L18.42,151.64z M16.62,165.24l0.9,0.9l0.8-0.8
	l-0.9-0.9L16.62,165.24z M16.62,174.34l0.9,0.9l0.8-0.8l-0.9-0.9L16.62,174.34z M35.42,20.83l10.6-10.7l0.9,1.4l-28.5,28.5l-1.4-0.9
	l18.2-18.2L35.42,20.83z M17.32,238.95l18.2-18.2v2.7l-15.5,15.5H17.32z M17.42,64.64l0.9,0.9l1.6-1.6l-0.9-0.9L17.42,64.64z
	 M19.02,67.54l-1.6,1.6l0.9,0.9l1.6-1.6L19.02,67.54z M19.02,72.14l-1.6,1.6l0.9,0.9l1.6-1.6L19.02,72.14z M17.42,78.24l0.9,0.9
	l1.6-1.6l-0.9-0.9L17.42,78.24z M17.42,82.74l0.9,0.9l1.6-1.5l-0.9-0.9L17.42,82.74z M17.42,87.34l0.9,0.9l1.6-1.6l-0.9-0.9
	L17.42,87.34z M19.92,91.14l-0.9-0.9l-1.6,1.6l0.9,0.9L19.92,91.14z M18.82,149.44l0.9,0.9l0.9-0.9l-0.9-0.9L18.82,149.44z
	 M19.72,153.04l-0.9,0.9l0.9,0.9l0.9-0.9L19.72,153.04z M19.72,157.64l-0.9,0.9l0.9,0.9l0.9-0.9L19.72,157.64z M20.62,163.04
	l-0.9-0.9l-0.9,0.9l0.9,0.9L20.62,163.04z M20.62,167.64l-0.9-1l-0.9,0.9l0.9,0.9L20.62,167.64z M19.72,173.04l0.9-0.9l-0.9-0.9
	l-0.9,0.9L19.72,173.04z M19.72,177.54l0.9-0.9l-0.9-0.9l-0.9,0.9L19.72,177.54z M20.62,181.14l-0.9-0.9l-0.9,1l0.9,0.9
	L20.62,181.14z M19.72,62.34l0.9,0.9l1.6-1.6l-0.9-0.9L19.72,62.34z M21.32,65.34l-1.6,1.6l0.9,0.9l1.6-1.6L21.32,65.34z
	 M21.32,69.84l-1.6,1.6l0.9,0.9l1.6-1.6L21.32,69.84z M20.22,76.54l0.2,0.1l0.2,0.2l1.6-1.5l-0.9-1l-1.6,1.6L20.22,76.54z
	 M20.62,81.44l1.6-1.6l-0.9-0.9l-1.6,1.6L20.62,81.44z M20.62,85.94l1.6-1.6l-0.9-0.9l-1.6,1.6L20.62,85.94z M22.22,88.94l-0.9-1
	l-1.6,1.6l0.9,0.9L22.22,88.94z M19.92,40.84l27.7-27.8c0.3,0.6,0.5,1.1,0.7,1.6l-26.8,26.8L19.92,40.84z M22.92,151.64l-0.9-0.8
	l-0.9,0.9l0.9,0.8L22.92,151.64z M22.02,157.14l0.9-0.9l-0.9-0.9l-0.9,0.9L22.02,157.14z M22.02,161.64l0.9-0.9l-0.9-0.9l-0.9,0.9
	L22.02,161.64z M22.02,166.24l0.9-0.9l-0.9-1l-0.9,0.9L22.02,166.24z M21.12,169.84l0.9,0.9l0.9-0.9l-0.9-0.9L21.12,169.84z
	 M21.12,174.34l0.9,0.9l0.9-0.9l-0.9-0.9L21.12,174.34z M21.12,178.94l0.9,0.9l0.8-0.9l-0.9-0.9L21.12,178.94z M21.82,238.95
	l13.7-13.7v2.7l-11,11H21.82z M22.02,60.04l0.9,0.9l1.6-1.5l-0.9-0.9L22.02,60.04z M24.52,63.94l-1-0.9l-1.5,1.6l0.9,0.9
	L24.52,63.94z M24.52,68.44l-1-0.9l-1.5,1.6l0.9,0.9L24.52,68.44z M22.92,74.64l1.6-1.6l-1-0.9l-1.5,1.6L22.92,74.64z M22.02,78.24
	l0.9,0.9l1.6-1.6l-1-0.9L22.02,78.24z M22.02,82.74l0.9,0.9l1.5-1.5l-0.9-1L22.02,82.74z M22.02,87.34l0.9,0.9l1.6-1.6l-1-0.9
	L22.02,87.34z M24.52,91.14l-0.9-0.9l-1.6,1.6l0.9,0.9L24.52,91.14z M48.82,16.43c0.2,0.6,0.3,1.2,0.4,1.8l-8.2,8.2l-0.1,0.2
	l-15.8,15.7c-0.6-0.1-1.2-0.2-1.8-0.4L48.82,16.43z M23.32,149.44l0.9,0.9l0.9-0.9l-0.8-0.9L23.32,149.44z M24.22,153.04l-0.9,0.9
	l1,0.9l0.9-0.9L24.22,153.04z M25.12,163.04l-0.9-0.9l-0.9,0.9l0.9,0.9L25.12,163.04z M24.22,177.54l0.9-0.9l-0.9-0.9l-0.9,0.9
	L24.22,177.54z M25.22,158.44l-0.9-0.9l-0.9,0.9l0.9,0.9L25.22,158.44z M25.22,167.54l-0.9-0.9l-0.9,0.9l0.9,0.9L25.22,167.54z
	 M25.12,172.14l-0.9-0.9l-0.8,0.8l0.9,0.9L25.12,172.14z M24.32,182.04l0.8-0.8l-0.9-0.9l-0.8,0.8L24.32,182.04z M24.22,62.34
	l0.9,0.9l1.6-1.6l-0.9-0.9L24.22,62.34z M25.82,65.34l-1.6,1.6l0.9,0.9l1.6-1.6L25.82,65.34z M25.82,69.84l-1.6,1.6l0.6,0.5l0.1,0.2
	l0.2,0.2l1.6-1.6L25.82,69.84z M25.12,76.84l1.6-1.5l-0.9-1l-1.6,1.6L25.12,76.84z M25.12,81.44l1.6-1.6l-0.9-0.9l-1.6,1.6
	L25.12,81.44z M25.12,85.94l1.6-1.6l-0.9-0.9l-1.6,1.6L25.12,85.94z M26.72,88.94l-0.9-1l-1.6,1.6l0.9,0.9L26.72,88.94z
	 M26.52,152.64l0.9-0.9l-0.9-1l-0.9,1L26.52,152.64z M26.52,157.14l0.9-0.9l-0.9-0.9l-0.9,0.9L26.52,157.14z M26.52,161.64l0.9-0.9
	l-0.9-0.9l-0.9,0.9L26.52,161.64z M26.52,166.24l0.9-0.9l-0.9-0.9l-0.9,0.9L26.52,166.24z M26.52,170.74l0.9-0.9l-0.9-0.9l-0.9,0.9
	L26.52,170.74z M25.62,174.34l0.9,0.9l0.9-0.9l-0.9-0.9L25.62,174.34z M27.42,178.94l-0.9-0.9l-0.9,0.9l0.9,0.9L27.42,178.94z
	 M26.42,238.95l9.1-9.1v2.7l-6.4,6.4H26.42z M26.52,60.04l0.9,0.9l1.6-1.5l-0.9-0.9L26.52,60.04z M29.02,63.94l-0.9-0.9l-1.6,1.6
	l0.9,0.9L29.02,63.94z M29.02,68.44l-0.2-0.2l-0.2-0.1l-0.5-0.6l-1.6,1.6l0.9,0.9L29.02,68.44z M29.02,73.04l-0.9-0.9l-1.6,1.6
	l0.9,0.9L29.02,73.04z M26.52,78.24l0.9,0.9l1.6-1.6l-0.9-0.9L26.52,78.24z M26.52,82.74l0.9,0.9l1.6-1.5l-0.9-1L26.52,82.74z
	 M26.52,87.34l0.9,0.9l1.6-1.6l-0.9-0.9L26.52,87.34z M29.02,91.14l-0.9-0.9l-1.6,1.6l0.9,0.9L29.02,91.14z M49.52,20.33v1.4
	c0,0.3,0,0.5,0,0.8l-20.1,20.1h-0.8c-0.5,0-1,0-1.5,0L49.52,20.33z M27.92,149.44l0.9,0.9l0.9-0.9l-0.9-0.9L27.92,149.44z
	 M29.72,153.94l-0.9-0.9l-0.9,0.9l0.9,0.9L29.72,153.94z M29.72,158.54l-0.9-1l-0.9,0.9l0.9,1L29.72,158.54z M29.72,163.04l-0.9-0.9
	l-0.9,0.9l0.9,0.9L29.72,163.04z M29.72,167.54l-0.9-0.9l-0.9,0.9l0.9,0.9L29.72,167.54z M29.72,172.14l-0.9-0.9l-0.9,0.9l0.9,0.9
	L29.72,172.14z M29.72,176.64l-0.9-0.9l-0.9,0.9l0.9,0.9L29.72,176.64z M29.72,181.14l-0.9-0.9l-0.9,0.9l0.9,0.9L29.72,181.14z
	 M28.82,62.34l0.9,0.9l1.6-1.6l-0.9-0.9L28.82,62.34z M31.32,66.24l-1-0.9l-1.5,1.6l0.9,0.9L31.32,66.24z M31.32,70.74l-1-0.9
	l-1.5,1.6l0.9,0.9L31.32,70.74z M31.32,75.24l-1-0.9l-1.5,1.6l0.9,0.9L31.32,75.24z M29.72,81.44l1.6-1.6l-1-0.9l-1.5,1.6
	L29.72,81.44z M29.72,85.94l1.6-1.6l-1-0.9l-1.5,1.6L29.72,85.94z M31.32,88.94l-0.9-1l-1.6,1.6l0.9,0.9L31.32,88.94z M31.02,157.14
	l1-0.9l-1-0.9l-0.9,0.9L31.02,157.14z M31.02,170.74l0.9-0.9l-0.9-0.9l-0.9,0.9L31.02,170.74z M30.12,178.94l0.9,0.9l0.9-0.9
	l-0.9-0.9L30.12,178.94z M31.12,152.54l0.9-0.9l-0.9-0.9l-0.9,0.9L31.12,152.54z M31.12,161.64l0.9-0.9l-0.9-0.9l-0.9,0.9
	L31.12,161.64z M31.12,166.14l0.9-0.9l-0.9-0.9l-0.9,0.9L31.12,166.14z M31.12,175.24l0.9-0.9l-0.9-0.9l-0.9,0.9L31.12,175.24z
	 M30.92,238.95l4.6-4.6v2.7l-1.9,1.9H30.92z M31.02,60.04l0.9,0.9l1.6-1.5l-0.9-0.9L31.02,60.04z M33.22,63.54l-0.6-0.5l-1.6,1.6
	l0.6,0.5l0.1,0.2l0.2,0.2l1.6-1.6L33.22,63.54z M32.62,67.54l-1.6,1.6l0.9,0.9l1.6-1.6L32.62,67.54z M32.62,72.14l-1.6,1.6l0.9,0.9
	l1.6-1.6L32.62,72.14z M32.62,76.64l-1.6,1.6l0.9,0.9l1.6-1.6L32.62,76.64z M32.62,81.14l-1.6,1.6l0.9,0.9l1.6-1.6L32.62,81.14z
	 M32.62,85.74l-1.6,1.6l0.9,0.9l1.6-1.6L32.62,85.74z M33.52,91.14l-0.9-0.9l-1.6,1.6l0.9,0.9L33.52,91.14z M48.62,28.04l-3.2,3.1
	l-10.6,10.6c-0.9,0.3-1.9,0.5-2.9,0.7l12.5-12.6l4.9-4.8C49.12,26.04,48.92,27.04,48.62,28.04z M34.22,149.44l-0.9-0.9l-0.9,0.9
	l0.9,0.9L34.22,149.44z M33.32,153.04l-0.9,0.9l0.9,0.9l0.9-0.9L33.32,153.04z M33.32,157.64l-0.9,0.9l0.9,0.9l0.9-0.9L33.32,157.64
	z M33.32,162.14l-0.9,0.9l0.9,0.9l0.9-0.9L33.32,162.14z M33.32,166.64l-0.9,0.9l0.9,0.9l0.9-0.9L33.32,166.64z M33.32,171.24
	l-0.9,0.9l0.9,0.9l0.9-0.9L33.32,171.24z M33.32,175.74l-0.9,0.9l0.9,0.9l0.9-0.9L33.32,175.74z M33.32,180.25l-0.9,0.9l0.9,1
	l0.9-0.9L33.32,180.25z M71.82,79.64l-22.1-22.1h1.4l20.7,20.7v-3.2l-17.5-17.5h1.3l16.2,16.1v-3.1l-13-13h1.4l11.6,11.6v-3.1
	l-8.4-8.5h1.3l7.1,7.1v-3.2l-3.9-3.9h1.4l2.5,2.5v-2.5h3l-0.5,0.5l0.5,0.5l0.9-1c1.2,0.1,2.4,0.1,3.5,0.2l-0.3,0.3l0.4,0.5l0.7-0.7
	c1.3,0.1,2.5,0.2,3.6,0.4l0.3,0.3l0.1-0.2c1.1,0.1,2.1,0.3,3.1,0.5l-1.4,1.5l0.4,0.4l1.6-1.6l-0.2-0.2l3.2,0.9l-0.5,0.5l0.5,0.4
	l0.6-0.6c0.9,0.3,1.8,0.6,2.6,1l-1.4,1.4l0.4,0.5l1.6-1.6c1.8,0.9,3.5,2,4.9,3.3l-0.1,0.1l0.4,0.5l0.2-0.2c0.6,0.6,1.2,1.3,1.7,1.9
	l-0.1,0.1l0.5,0.4c1.2,1.6,2.1,3.3,2.9,5.3l-1.1,1.1l0.5,0.4l0.9-0.9l0.9,2.7v0.1l0.9,3.6l-0.9,0.9l0.4,0.4l0.6-0.5
	c0.2,1,0.3,2,0.5,3.1l-1.5,1.5l0.4,0.5l1.2-1.1l0.3,3.9l-0.3-0.3l-1.6,1.6l0.4,0.4l1.5-1.4c0,1.4,0.1,2.8,0.1,4.3l-0.4-0.4
	l-35.9,35.9v-3.7l31.8-31.7l-0.5-0.5l-22.6,22.6l-0.1,0.2l-8.6,8.5v-3.6l27.2-27.2l-0.4-0.5l-26.8,26.8v-3.6l22.7-22.7l-0.4-0.5
	l-18.1,18.1l-0.2,0.1l-4,4.1v-3.7l2.2-2.2l0.2-0.1l15.8-15.8l-0.5-0.5l-17.7,17.7v-3.6l13.6-13.6l-0.4-0.5l-13.2,13.2v-3.6l9.1-9.1
	l-0.5-0.5l-8.6,8.7v-3.7l4.6-4.5l-0.5-0.5l-4.1,4.1v-3.6l-35.7-35.7h1.4l34.3,34.3v-3.2l-31.1-31.1h1.3l21.3,21.3l0.2,0.1l8.3,8.3
	v-3.1l-6.7-6.8l-0.2-0.1l-19.7-19.7h1.4l25.2,25.2V79.64z M71.82,147.64l36.3-36.3v3.7l-33.2,33.1h1l32.2-32.2v3.6l-28.5,28.5h0.9
	l27.6-27.6v3.6l-24,24h0.9l23.1-23.1v3.7l-19.5,19.5h0.9l11.7-11.8l0.2-0.1l6.7-6.7v3.6l-14.9,14.9h0.9l14-14v3.7l-10.3,10.3h0.8
	l9.5-9.5v3.7l-5.8,5.8h0.9l4.9-4.9v3.6l-1.4,1.4h0.9l0.5-0.5v3.6l-0.6,0.6l0.4,0.5l0.2-0.1v3.6l-0.6,0.6l0.5,0.4l0.1-0.1v3.6
	l-0.6,0.6l0.4,0.5l0.2-0.2v3.7l-0.6,0.6l0.4,0.5l0.2-0.2v3.6l-0.6,0.6l0.4,0.5l0.2-0.2v3.6l-0.6,0.6l0.4,0.5l0.2-0.2v3.7l-0.6,0.6
	l0.4,0.5l0.2-0.2v3.6l-0.6,0.6l0.4,0.5l0.2-0.2v3.6l-36.3,36.3v-3.6l35.9-35.9h-0.9l-35,35v-3.6l9-9.1l0.2-0.1l22.2-22.2h-0.9
	l-30.5,30.5v-3.7l26.8-26.8h-0.9l-25.9,25.9v-3.6l22.3-22.3h-0.9l-21.4,21.4v-3.6l2.2-2.3l0.2-0.1l15.4-15.4h-0.9l-16.9,16.8v-3.6
	l13.2-13.2h-0.9l-12.3,12.3v-3.6l8.7-8.7h-0.9l-7.8,7.8v-3.7l4.1-4.1h-0.9l-3.2,3.2v-3.6l0.7-0.7l-0.4-0.5l-0.3,0.3v-0.6l-34.4-34.3
	h2.7l31.7,31.6v-0.3l0.8-0.8l-0.5-0.4l-0.3,0.3v-0.6l-29.9-29.9h2.7l27.2,27.2v-0.4l0.7-0.7l-0.4-0.4l-0.3,0.2v-0.5l-25.3-25.3h2.7
	l22.6,22.5v-0.3l0.8-0.8l-0.5-0.4l-0.3,0.3v-0.6l-20.8-20.8h2.7l18.1,18.1v-0.3l0.8-0.8l-0.5-0.4l-0.3,0.3v-0.6l-14.7-14.7l-1.6-1.5
	h2.7l0.3,0.2l13.3,13.3v-0.4l0.7-0.7l-0.4-0.5l-0.3,0.3v-0.6l-11.7-11.7h2.7l9,9v-0.3l0.7-0.7l-0.4-0.5l-0.3,0.3v-0.5l-7.2-7.2h2.7
	l4.5,4.5v-0.4l0.8-0.8l-0.5-0.4l-0.3,0.2v-0.5l-2.7-2.7h2.7V147.64z M38.82,40.04l8-8C45.02,35.34,42.22,38.14,38.82,40.04z
	 M58.02,21.74v-0.7l20.2-20.2h0.7c0.7,0,1.3,0,1.9,0.1l-22.7,22.7C58.12,23.04,58.02,22.44,58.02,21.74z M76.22,1.03l-18,18
	c0.2-1.2,0.4-2.4,0.8-3.5l13.7-13.8C73.82,1.43,75.02,1.13,76.22,1.03z M82.42,1.13c0.8,0.1,1.5,0.3,2.3,0.5l-9.3,9.2l-16.6,16.6
	c-0.2-0.7-0.4-1.4-0.5-2.2L82.42,1.13z M76.52,11.63l9.5-9.5c0.7,0.2,1.3,0.5,2,0.8l-27.9,27.9c-0.3-0.7-0.6-1.3-0.8-2l17-17.1
	L76.52,11.63z M60.22,12.53c2-4.1,5.4-7.5,9.5-9.5L60.22,12.53z M89.12,3.53c0.6,0.3,1.2,0.6,1.7,1l-10.8,10.9l-18.3,18.2
	c-0.3-0.5-0.7-1.1-1-1.7L89.12,3.53z M62.52,34.74l29.4-29.4c0.5,0.4,1,0.8,1.4,1.3l-29.5,29.5C63.32,35.64,62.92,35.24,62.52,34.74
	z M64.72,37.04l29.5-29.5c0.5,0.4,0.9,0.9,1.3,1.4l-29.4,29.4C65.62,37.94,65.12,37.54,64.72,37.04z M67.22,39.04l29-29
	c0.4,0.5,0.8,1.1,1.1,1.7l-28.4,28.4C68.32,39.74,67.72,39.44,67.22,39.04z M70.12,40.74l27.8-27.8c0.3,0.6,0.5,1.2,0.8,1.9
	l-26.7,26.7C71.42,41.24,70.72,41.04,70.12,40.74z M71.82,129.54l36.3-36.3v0.5v3.1l-36.3,36.3V129.54z M71.82,134.04l36.3-36.3v3.7
	l-36.3,36.2V134.04z M71.82,138.54l36.3-36.2v3.6l-36.3,36.3V138.54z M90.02,124.84l18.1-18v3.6l-16.2,16.3l-0.2,0.1l-19.9,19.9
	v-3.6l18.1-18.1L90.02,124.84z M71.82,224.75l36.3-36.3v3.7l-20.8,20.7l-0.1,0.2l-15.4,15.4V224.75z M87.82,213.35l20.3-20.3v3.6
	l-36.3,36.3v-3.6l15.8-15.9L87.82,213.35z M71.82,233.85l36.3-36.3v3.6l-36.3,36.3V233.85z M71.82,238.35l36.3-36.2v3.6l-33.2,33.2
	h-3.1V238.35z M72.02,60.34l0.5,0.4l1.6-1.6l-0.5-0.4L72.02,60.34z M72.02,78.44l0.5,0.5l1.6-1.6l-0.5-0.5L72.02,78.44z
	 M72.02,83.04l0.5,0.4l1.6-1.6l-0.5-0.4L72.02,83.04z M72.02,87.54l0.5,0.5l1.6-1.6l-0.5-0.5L72.02,87.54z M72.02,92.04l0.5,0.5
	l1.6-1.6l-0.5-0.5L72.02,92.04z M74.12,63.74l-0.5-0.5l-0.1,0.1l-1.4,1.5l0.4,0.5L74.12,63.74z M74.12,68.24l-0.5-0.4l-1.5,1.5
	l0.4,0.5L74.12,68.24z M73.62,72.34l-1.5,1.6l0.4,0.4l1.6-1.6L73.62,72.34z M73.42,41.94l25.7-25.7c0.2,0.7,0.4,1.5,0.5,2.2l-24,24
	C74.92,42.34,74.12,42.14,73.42,41.94z M73.92,154.64l0.9-0.9l-0.4-0.5l-1,1L73.92,154.64z M73.92,172.74l0.9-0.9l-0.4-0.4l-1,0.9
	L73.92,172.74z M73.92,181.84l0.9-0.9l-0.4-0.5l-1,1L73.92,181.84z M74.32,148.74l-0.8,0.9l0.4,0.5l0.9-0.9L74.32,148.74z
	 M73.92,159.14l0.9-0.9l-0.5-0.4l-0.8,0.8L73.92,159.14z M73.92,163.74l0.9-0.9l-0.4-0.5l-0.9,0.9L73.92,163.74z M73.92,168.24
	l0.9-0.9l-0.4-0.5l-0.9,0.9L73.92,168.24z M73.92,177.34l0.9-0.9l-0.4-0.5l-0.9,0.9L73.92,177.34z M74.32,62.54l0.5,0.5l1.6-1.6
	l-0.5-0.4L74.32,62.54z M74.32,67.14l0.5,0.4l1.6-1.6l-0.5-0.4L74.32,67.14z M74.32,71.64l0.5,0.5l1.6-1.6l-0.5-0.5L74.32,71.64z
	 M74.32,76.14l0.5,0.5l1.6-1.6l-0.5-0.4L74.32,76.14z M74.32,80.74l0.5,0.4l1.6-1.6l-0.5-0.4L74.32,80.74z M74.32,85.24l0.5,0.5
	l1.6-1.6l-0.5-0.5L74.32,85.24z M74.32,89.84l0.5,0.4l1.6-1.6l-0.5-0.4L74.32,89.84z M77.12,151.44l-0.5-0.4l-0.9,0.9l0.5,0.4
	L77.12,151.44z M77.12,155.94l-0.5-0.4l-0.9,0.9l0.4,0.5L77.12,155.94z M76.62,164.64l-0.9,0.9l0.5,0.4l0.9-0.9L76.62,164.64z
	 M76.62,169.14l-0.9,0.9l0.5,0.4l0.9-0.9L76.62,169.14z M76.72,173.64l-1,1l0.5,0.4l0.9-0.9L76.72,173.64z M76.62,178.25l-0.9,0.9
	l0.5,0.4l0.9-0.9L76.62,178.25z M76.22,184.15l0.9-0.9l-0.5-0.5l-0.9,0.9L76.22,184.15z M76.62,160.14l-0.8,0.8l0.4,0.5l0.9-0.9
	L76.62,160.14z M75.82,238.95l32.3-32.3v3.6l-28.6,28.7H75.82z M76.62,60.34l0.4,0.4l1.6-1.6l-0.4-0.4L76.62,60.34z M76.62,64.84
	l0.4,0.5l1.6-1.6l-0.4-0.5L76.62,64.84z M76.62,69.34l0.4,0.5l1.6-1.6l-0.4-0.4h-0.1L76.62,69.34z M76.62,73.94l0.4,0.4l1.6-1.5
	l-0.4-0.5L76.62,73.94z M76.62,78.44l0.4,0.5l1.6-1.6l-0.4-0.5L76.62,78.44z M76.62,83.04l0.4,0.4l1.6-1.6l-0.4-0.4L76.62,83.04z
	 M76.62,87.54l0.4,0.5l1.6-1.6l-0.4-0.5L76.62,87.54z M76.62,92.04l0.4,0.5l1.6-1.6l-0.4-0.5L76.62,92.04z M77.32,42.64l22.5-22.5
	c0,0.5,0.1,1.1,0.1,1.6c0,0.4-0.1,0.7-0.1,1l-6.2,6.3l-13.7,13.6h-1H77.32z M78.92,148.74l-0.9,0.9l0.4,0.5l0.9-0.9L78.92,148.74z
	 M78.92,153.24l-0.9,0.9l0.4,0.5l0.9-0.9L78.92,153.24z M78.02,158.74l0.4,0.5l0.3-0.3l0.6-0.7l-0.4-0.4L78.02,158.74z
	 M78.02,163.24l0.5,0.4l0.8-0.8l-0.4-0.5L78.02,163.24z M78.02,167.84l0.4,0.4l0.9-0.9l-0.4-0.5L78.02,167.84z M78.02,172.34
	l0.5,0.4l0.9-0.9l-0.5-0.4L78.02,172.34z M78.02,176.84l0.4,0.5l1-1l-0.5-0.4L78.02,176.84z M78.02,181.34l0.4,0.5l0.9-0.9l-0.4-0.5
	L78.02,181.34z M78.92,62.54l0.4,0.5l1.6-1.6l-0.5-0.4L78.92,62.54z M78.92,67.14l0.4,0.4l1.6-1.6l-0.5-0.4L78.92,67.14z
	 M78.92,71.64l0.4,0.5l1.6-1.6l-0.5-0.5L78.92,71.64z M78.92,76.24l0.4,0.4l1.6-1.6l-0.5-0.4L78.92,76.24z M78.92,80.74l0.4,0.4
	l1.6-1.5l-0.5-0.5L78.92,80.74z M78.92,85.24l0.4,0.5l1.6-1.6l-0.5-0.5L78.92,85.24z M78.92,89.84l0.4,0.4l1.6-1.6l-0.5-0.4
	L78.92,89.84z M81.62,151.44l-0.5-0.4l-0.9,0.9l0.5,0.4L81.62,151.44z M80.72,161.44l0.9-0.9l-0.4-0.5l-1,1L80.72,161.44z
	 M80.72,179.54l0.9-0.9l-0.4-0.5l-1,1L80.72,179.54z M81.62,156.04l-0.4-0.5l-0.9,0.9l0.4,0.5L81.62,156.04z M81.12,164.64l-0.8,0.9
	l0.4,0.4l0.9-0.9L81.12,164.64z M81.22,169.14l-0.9,0.9l0.4,0.5l0.9-0.9L81.22,169.14z M81.22,173.64l-0.9,0.9l0.4,0.5l0.9-0.9
	L81.22,173.64z M80.72,184.15l0.9-0.9l-0.4-0.5l-0.9,0.9L80.72,184.15z M80.42,238.95l27.7-27.8v3.7l-9.4,9.4l-0.2,0.1l-14.5,14.6
	H80.42z M81.12,60.34l0.5,0.4l1.6-1.6l-0.5-0.4L81.12,60.34z M81.12,64.84l0.5,0.5l1.6-1.6l-0.5-0.5L81.12,64.84z M81.12,69.44
	l0.5,0.4l1.6-1.6l-0.5-0.4L81.12,69.44z M81.12,73.94l0.5,0.4l1.6-1.5l-0.5-0.5L81.12,73.94z M81.12,78.44l0.5,0.5l1.6-1.6l-0.5-0.5
	L81.12,78.44z M81.12,83.04l0.5,0.4l1.6-1.6l-0.5-0.4L81.12,83.04z M81.12,87.54l0.5,0.4l1.6-1.5l-0.5-0.5L81.12,87.54z
	 M81.12,92.04l0.5,0.5l1.6-1.6l-0.5-0.5L81.12,92.04z M98.82,28.34l-13.3,13.3c-1.1,0.4-2.3,0.6-3.5,0.8l12.5-12.5l0.1-0.2l5-5
	C99.52,26.04,99.22,27.24,98.82,28.34z M83.42,148.74l-0.9,0.9l0.5,0.4l0.9-0.9L83.42,148.74z M83.42,153.34l-0.9,0.9l0.5,0.4
	l0.9-0.9L83.42,153.34z M83.42,157.84l-0.9,0.9l0.5,0.4l0.9-0.9L83.42,157.84z M82.52,163.24l0.4,0.5l1-1l-0.5-0.4L82.52,163.24z
	 M82.52,172.34l0.5,0.4l0.9-0.9l-0.5-0.4L82.52,172.34z M82.52,176.84l0.5,0.5l0.9-0.9l-0.5-0.5L82.52,176.84z M82.52,181.45
	l0.5,0.4l0.9-0.9l-0.4-0.5L82.52,181.45z M82.62,167.74l0.4,0.5l0.9-0.9l-0.5-0.4L82.62,167.74z M83.42,62.64l0.4,0.4l1.6-1.6
	l-0.4-0.4L83.42,62.64z M83.42,67.14l0.4,0.4l1.6-1.5l-0.4-0.5L83.42,67.14z M83.42,71.64l0.4,0.5l1.6-1.6l-0.4-0.5L83.42,71.64z
	 M83.82,76.64l1.6-1.6l-0.4-0.4l-1.6,1.6L83.82,76.64z M83.42,80.74l0.4,0.5l1.6-1.6l-0.4-0.5L83.42,80.74z M83.42,85.24l0.4,0.5
	l1.6-1.6l-0.4-0.5L83.42,85.24z M83.42,89.84l0.4,0.4l1.6-1.6l-0.4-0.4L83.42,89.84z M86.12,151.44l-0.4-0.4l-0.9,0.9l0.4,0.4
	L86.12,151.44z M86.12,156.04l-0.4-0.5l-0.9,0.9l0.4,0.5L86.12,156.04z M86.12,160.54l-0.4-0.4l-0.9,0.8l0.4,0.5L86.12,160.54z
	 M86.22,165.04l-0.5-0.4l-0.9,0.9l0.4,0.5L86.22,165.04z M85.72,169.14l-0.9,0.9l0.5,0.4l0.8-0.8L85.72,169.14z M85.22,175.04l1-0.9
	l-0.5-0.5l-0.9,0.9L85.22,175.04z M85.32,179.54l0.9-0.9l-0.5-0.4l-0.9,0.9L85.32,179.54z M85.22,184.15l1-1l-0.5-0.4l-0.9,0.9
	L85.22,184.15z M84.92,238.95l23.2-23.2v3.6l-19.6,19.6H84.92z M85.72,64.84l0.4,0.5l1.6-1.6l-0.5-0.5L85.72,64.84z M85.72,69.44
	l0.4,0.4l1.6-1.6l-0.5-0.4L85.72,69.44z M85.72,73.94l0.4,0.4l1.6-1.5l-0.5-0.5L85.72,73.94z M85.72,78.44l0.4,0.5l1.6-1.6l-0.5-0.5
	L85.72,78.44z M85.72,83.04l0.4,0.4l1.6-1.6l-0.5-0.4L85.72,83.04z M85.72,87.54l0.4,0.5l1.6-1.6l-0.4-0.5L85.72,87.54z
	 M85.72,92.04l0.4,0.5l1.6-1.6l-0.4-0.4L85.72,92.04z M87.92,157.84l-0.9,0.9l0.5,0.4l0.9-0.9L87.92,157.84z M87.02,167.84l0.5,0.4
	l0.9-0.9l-0.4-0.5L87.02,167.84z M88.02,148.74l-0.9,0.9l0.4,0.4l0.9-0.8L88.02,148.74z M88.02,153.24l-0.9,0.9l0.4,0.5l0.9-0.9
	L88.02,153.24z M88.02,162.34l-0.9,0.9l0.4,0.5l0.9-0.9L88.02,162.34z M87.12,172.24l0.4,0.5l0.9-0.8l-0.5-0.5L87.12,172.24z
	 M87.12,176.84l0.4,0.5l0.9-0.9l-0.4-0.5L87.12,176.84z M87.12,181.34l0.4,0.5l0.9-0.9l-0.4-0.5L87.12,181.34z M87.92,62.64l0.5,0.4
	l1.6-1.6l-0.5-0.4L87.92,62.64z M87.92,67.14l0.5,0.4l1.6-1.5l-0.5-0.5L87.92,67.14z M87.92,71.64l0.5,0.5l1.6-1.6l-0.5-0.5
	L87.92,71.64z M87.92,76.24l0.5,0.4l1.6-1.6l-0.5-0.4L87.92,76.24z M87.92,80.74l0.5,0.5l1.6-1.6l-0.5-0.5L87.92,80.74z
	 M87.92,85.24l0.5,0.5l1.6-1.6l-0.5-0.5L87.92,85.24z M87.92,89.84l0.5,0.4l1.6-1.6l-0.5-0.4L87.92,89.84z M96.82,32.24l0.1-0.2
	l0.5-0.5c-1.9,3.7-5,6.8-8.7,8.7L96.82,32.24z M90.72,151.44l-0.5-0.4l-0.9,0.9l0.5,0.4L90.72,151.44z M90.72,155.94l-0.5-0.4
	l-0.9,0.9l0.5,0.4L90.72,155.94z M90.72,160.54l-0.5-0.4l-0.9,0.9l0.5,0.4L90.72,160.54z M89.82,165.94l0.9-0.9l-0.5-0.4l-0.9,0.9
	L89.82,165.94z M89.82,170.54l0.1-0.1l0.1-0.2l0.7-0.6l-0.5-0.5l-0.9,0.9L89.82,170.54z M89.82,179.54l0.9-0.9l-0.5-0.4l-0.9,0.9
	L89.82,179.54z M89.82,184.15l0.9-0.9l-0.5-0.5l-0.9,0.9L89.82,184.15z M89.82,175.04l0.9-0.9l-0.5-0.4l-0.8,0.8L89.82,175.04z
	 M89.42,238.95l18.7-18.7v3.6l-15,15.1H89.42z M90.22,64.84l0.4,0.5l1.6-1.6l-0.4-0.5L90.22,64.84z M90.22,69.44l0.4,0.4l1.6-1.6
	l-0.4-0.4L90.22,69.44z M90.22,73.94l0.4,0.4l1.6-1.5l-0.4-0.5L90.22,73.94z M90.22,78.44l0.4,0.5l1.6-1.6l-0.4-0.5L90.22,78.44z
	 M90.22,83.04l0.4,0.4l1.6-1.6l-0.4-0.4L90.22,83.04z M90.22,87.54l0.5,0.5l1.5-1.6l-0.4-0.5L90.22,87.54z M90.22,92.04l0.5,0.5
	l1.5-1.6l-0.4-0.4L90.22,92.04z M92.52,148.74l-0.9,0.9l0.4,0.5l1-1L92.52,148.74z M92.52,153.34l-0.9,0.9l0.4,0.4l0.9-0.9
	L92.52,153.34z M92.52,157.84l-0.9,0.9l0.5,0.4l0.9-0.9L92.52,157.84z M92.52,162.34l-0.9,0.9l0.4,0.5l0.9-0.9L92.52,162.34z
	 M92.92,167.34l-0.4-0.5l-0.9,0.9l0.4,0.5L92.92,167.34z M92.02,172.84l1-1l-0.5-0.4l-0.9,0.9L92.02,172.84z M91.62,176.84l0.5,0.4
	l0.8-0.8l-0.4-0.5L91.62,176.84z M91.62,181.45l0.5,0.4l0.9-0.9l-0.5-0.4L91.62,181.45z M92.52,67.14l0.4,0.4l1.6-1.5l-0.5-0.5
	L92.52,67.14z M92.52,71.64l0.4,0.5l1.6-1.6l-0.5-0.5L92.52,71.64z M92.52,76.24l0.4,0.4l1.6-1.6l-0.5-0.4L92.52,76.24z
	 M92.52,80.74l0.4,0.5l1.6-1.6l-0.5-0.5L92.52,80.74z M92.52,85.24l0.4,0.5l1.6-1.6l-0.5-0.5L92.52,85.24z M92.52,89.84l0.4,0.4
	l1.6-1.6l-0.4-0.4L92.52,89.84z M95.22,151.44l-0.4-0.4l-1,0.9l0.5,0.4L95.22,151.44z M94.32,165.94l0.9-0.8l-0.5-0.5l-0.9,0.9
	L94.32,165.94z M94.32,175.04l0.9-0.9l-0.4-0.5l-1,1L94.32,175.04z M95.22,156.04l-0.4-0.5l-0.9,0.9l0.4,0.5L95.22,156.04z
	 M93.92,160.94l0.4,0.5l0.9-0.9l-0.4-0.5L93.92,160.94z M94.32,170.54l0.9-0.9l-0.4-0.5l-0.9,0.9L94.32,170.54z M94.42,179.54
	l0.8-0.8l-0.4-0.5l-0.9,0.9L94.42,179.54z M94.32,184.15l0.9-0.9l-0.4-0.5l-0.9,0.9L94.32,184.15z M94.02,238.95l14.1-14.2v3.7
	l-2.6,2.6l-0.2,0.1l-7.7,7.8H94.02z M94.72,64.84l0.5,0.5l1.6-1.6l-0.5-0.5L94.72,64.84z M94.72,69.44l0.5,0.4l1.6-1.6l-0.5-0.4
	L94.72,69.44z M94.72,73.94l0.5,0.4l1.6-1.5l-0.5-0.5L94.72,73.94z M94.72,78.44l0.5,0.5l1.6-1.6l-0.5-0.5L94.72,78.44z
	 M94.72,83.04l0.5,0.4l1.6-1.6l-0.5-0.4L94.72,83.04z M94.72,87.54l0.5,0.5l1.6-1.6l-0.5-0.5L94.72,87.54z M94.72,92.04l0.5,0.5
	l1.6-1.6l-0.5-0.4L94.72,92.04z M97.02,148.74l-0.9,0.9l0.5,0.4l0.9-0.9L97.02,148.74z M97.12,153.24l-1,1l0.5,0.4l0.9-0.9
	L97.12,153.24z M97.02,157.84l-0.9,0.9l0.5,0.4l0.9-0.9L97.02,157.84z M97.52,162.84l-0.5-0.5l-0.9,0.9l0.5,0.5L97.52,162.84z
	 M97.52,167.34l-0.5-0.4l-0.9,0.9l0.5,0.4L97.52,167.34z M97.52,171.84l-0.5-0.4l-0.9,0.9l0.5,0.4L97.52,171.84z M97.12,175.94l-1,1
	l0.5,0.4l0.9-0.9L97.12,175.94z M96.22,181.34l0.4,0.5l0.9-0.9l-0.5-0.4L96.22,181.34z M97.02,67.14l0.5,0.4l1.5-1.5l-0.4-0.5
	L97.02,67.14z M97.02,71.64l0.5,0.5l1.5-1.6l-0.4-0.5L97.02,71.64z M97.02,76.24l0.5,0.4l1.5-1.6l-0.4-0.4L97.02,76.24z
	 M97.02,80.74l0.5,0.5l1.5-1.6l-0.4-0.5L97.02,80.74z M97.02,85.24l0.5,0.5l1.5-1.6l-0.4-0.5L97.02,85.24z M97.02,89.84l0.5,0.4
	l1.5-1.6l-0.4-0.4L97.02,89.84z M99.82,151.44l-0.5-0.4l-0.9,0.9l0.5,0.4L99.82,151.44z M98.82,156.94l1-1l-0.5-0.4l-0.9,0.9
	L98.82,156.94z M98.82,161.44l1-0.9l-0.5-0.5l-0.9,0.9L98.82,161.44z M98.92,165.94l0.9-0.9l-0.5-0.4l-0.9,0.9L98.92,165.94z
	 M98.82,170.54l0.9-0.9l-0.4-0.5l-0.9,0.9L98.82,170.54z M98.92,175.04l0.9-0.9l-0.5-0.4l-0.9,0.9L98.92,175.04z M98.82,179.64l1-1
	l-0.5-0.4l-0.9,0.9L98.82,179.64z M98.92,184.04l0.8-0.8l-0.4-0.5l-0.9,0.9L98.92,184.04z M98.52,238.95l9.6-9.6v3.6l-6,6H98.52z
	 M99.32,69.44l0.4,0.4l1.6-1.6l-0.4-0.4L99.32,69.44z M99.32,73.94l0.4,0.4l1.6-1.5l-0.4-0.5L99.32,73.94z M99.32,78.44l0.4,0.5
	l1.6-1.6l-0.4-0.5L99.32,78.44z M99.32,83.04l0.4,0.4l1.6-1.6l-0.4-0.4L99.32,83.04z M99.32,87.54l0.4,0.5l1.6-1.6l-0.4-0.5
	L99.32,87.54z M99.32,92.04l0.4,0.5l1.6-1.6l-0.4-0.4h-0.1L99.32,92.04z M102.02,158.24l-0.4-0.5l-1,1l0.5,0.4L102.02,158.24z
	 M100.62,181.45l0.5,0.4l0.9-0.9l-0.4-0.5L100.62,181.45z M101.62,148.74l-0.9,0.9l0.5,0.4l0.9-0.9L101.62,148.74z M101.62,153.24
	l-0.9,0.9l0.4,0.5l0.9-0.9L101.62,153.24z M102.02,162.84l-0.4-0.5l-0.9,0.9l0.4,0.5L102.02,162.84z M102.02,167.34l-0.4-0.5
	l-0.9,0.9l0.4,0.5L102.02,167.34z M102.02,171.94l-0.4-0.5l-0.9,0.9l0.4,0.5L102.02,171.94z M102.02,176.44l-0.4-0.5l-0.9,0.9
	l0.4,0.5L102.02,176.44z M101.52,71.64l0.5,0.5l1.6-1.6l-0.5-0.5L101.52,71.64z M101.52,76.24l0.5,0.4l1.6-1.6l-0.5-0.4
	L101.52,76.24z M101.52,80.74l0.5,0.5l1.6-1.6l-0.5-0.5L101.52,80.74z M101.52,85.24l0.5,0.5l1.6-1.6l-0.5-0.4L101.52,85.24z
	 M101.52,89.84l0.5,0.4l1.6-1.6l-0.5-0.4L101.52,89.84z M103.42,156.94l0.9-0.9l-0.5-0.5l-0.9,0.9L103.42,156.94z M103.42,161.44
	l0.9-0.9l-0.4-0.5l-1,1L103.42,161.44z M103.42,165.94l0.9-0.9l-0.5-0.4l-0.9,0.9L103.42,165.94z M103.42,175.04l0.9-0.9l-0.5-0.4
	l-0.9,0.9L103.42,175.04z M103.42,179.54l0.9-0.9l-0.5-0.4l-0.9,0.9L103.42,179.54z M103.42,184.15l0.9-0.9l-0.4-0.5l-1,1
	L103.42,184.15z M103.42,152.34l0.9-0.9l-0.4-0.5l-0.9,0.9L103.42,152.34z M103.42,170.54l0.9-0.9l-0.4-0.5l-0.9,0.9L103.42,170.54z
	 M103.02,238.95l5.1-5.1v3.6l-1.4,1.5H103.02z M103.82,78.44l0.5,0.5l1.5-1.6l-0.4-0.5L103.82,78.44z M103.82,83.04l0.5,0.4l1.5-1.6
	l-0.4-0.4L103.82,83.04z M103.82,87.54l0.5,0.5l1.5-1.6l-0.4-0.5L103.82,87.54z M103.82,92.04l0.5,0.5l1.5-1.6l-0.4-0.4
	L103.82,92.04z M106.12,148.74l-0.9,0.9l0.5,0.4l0.8-0.8L106.12,148.74z M106.12,153.24l-0.9,0.9l0.5,0.5l0.9-0.9L106.12,153.24z
	 M106.12,157.84l-0.9,0.9l0.5,0.4l0.9-0.9L106.12,157.84z M106.12,162.34l-0.9,0.9l0.4,0.5l1-1L106.12,162.34z M106.12,166.94
	l-0.9,0.9l0.5,0.4l0.9-0.9L106.12,166.94z M106.12,171.44l-0.9,0.9l0.5,0.4l0.9-0.9L106.12,171.44z M106.12,175.94l-0.9,0.9l0.4,0.5
	l0.9-0.9L106.12,175.94z M106.12,180.54l-0.9,0.9l0.5,0.4l0.9-0.9L106.12,180.54z M107.62,238.95l0.5-0.6v0.6H107.62z"/>
</svg>
