<?xml version="1.0" encoding="utf-8"?>
<!-- Generator: Adobe Illustrator 27.0.1, SVG Export Plug-In . SVG Version: 6.00 Build 0)  -->
<svg version="1.1" id="Ebene_1" xmlns="http://www.w3.org/2000/svg" xmlns:xlink="http://www.w3.org/1999/xlink" x="0px" y="0px"
	 viewBox="0 0 99.91 239.01" style="enable-background:new 0 0 99.91 239.01;" xml:space="preserve">
<style type="text/css">
	.st0{fill:#1D1D1B;}
</style>
<path class="st0" d="M-0.41,202.74v-2.7l5.2-5.3l28.4-28.4h-0.4l-0.7-0.7l-0.5,0.5l0.3,0.2h-0.5l-27.6,27.7l-4.2,4.1v-2.7l3-2.9
	l26.1-26.2h-0.5l-0.6-0.7l-0.5,0.5l0.2,0.2h-0.4l-27.3,27.3v-2.7l24.6-24.6h-0.5l-0.7-0.7l-0.4,0.5l0.2,0.2h-0.4l-22.8,22.8v-2.8
	l20-20h-0.4l-0.7-0.7l-0.5,0.5l0.3,0.2h-0.5l-18.2,18.2v-2.7l15.5-15.5h-0.5l-0.6-0.7l-0.5,0.5l0.2,0.2h-0.4l-13.7,13.7v-2.7l11-11
	h-0.5l-0.7-0.7l-0.4,0.5l0.2,0.2h-0.4l-9.2,9.2v-2.8l6.4-6.4h-0.4l-0.7-0.7l-0.5,0.5l0.3,0.2h-0.5l-4.6,4.6v-2.7l1.9-1.9h-0.5
	l-0.6-0.7l-0.5,0.5l0.2,0.2h-0.4l-0.1,0.1v-39l34-34l-0.9-0.9l-33.1,33.1v-2.8l29.5-29.4l-0.9-0.9l-28.6,28.5v-2.7l24.9-24.9
	l-0.9-0.9l-24,24v-2.7l20.4-20.4l-0.9-0.9l-19.5,19.5v-2.8l5.2-5.1l10.6-10.7l-0.9-0.9l-14.9,14.9v-2.7l11.3-11.3l-0.9-0.9
	l-10.4,10.4v-2.7l6.8-6.8l-0.9-0.9l-5.9,5.9v-2.8l2.2-2.2l-0.9-0.9l-1.3,1.3v-4l0.7,0.7l1.5-1.6l-0.9-0.9l-1.3,1.3v-4l0.7,0.6
	l1.5-1.6l-0.9-0.9l-1.3,1.4v-4l0.7,0.6l1.5-1.6l-0.9-0.9l-1.3,1.3v-4l0.7,0.7l1.5-1.6l-0.9-0.9l-1.3,1.3v-4l0.7,0.6l1.5-1.6
	l-0.9-0.9l-1.3,1.3v-3.9l0.7,0.6l1.6-1.6l-1-0.9l-1.3,1.3v-4l0.7,0.7l1.6-1.6l-1-0.9l-1.3,1.3v-4l0.7,0.6l1.2-1.2h2.7l-0.3,0.3
	l0.9,0.9l1.2-1.2h2.8l-0.4,0.3l0.9,0.9l1.3-1.2h2.7l-0.3,0.3l0.9,0.9l1.2-1.2h2.7l-0.3,0.3l0.9,0.9l1.2-1.2h2.8l-0.4,0.3l0.9,0.9
	l1.3-1.2h2.7l-0.3,0.3l0.9,0.9l1.2-1.2h2.7l-0.3,0.3l0.9,0.9l1.2-1.2h2.7l-0.3,0.3l36,36h-1.4l-1-1.1l-33.3-33.2v2.6l-0.3,0.3
	l31.4,31.4h-1.3l-29.8-29.8v2.6l-0.3,0.3l26.9,26.9h-1.4l-25.2-25.3v2.6l-0.3,0.3l22.4,22.4h-1.4l-16.9-17l-3.8-3.7v2.6l-0.3,0.3
	l2.5,2.4l15.3,15.4h-1.3l-16.2-16.2v2.6l-0.3,0.3l13.3,13.3h-1.4l-11.6-11.7v2.7l-0.3,0.2l8.8,8.8h-1.4l-7.1-7.1v2.6l-0.3,0.3
	l4.2,4.2h-1.3l-2.6-2.6v2.6l-36.2,36.2h0.4l0.7,0.7l0.5-0.4l-0.3-0.3h0.5l34.4-34.4v2.8l-31.7,31.6h0.5l0.7,0.7l0.4-0.4l-0.2-0.3
	h0.4l29.9-29.8v2.7l-27.1,27.1h0.4l0.7,0.7l0.4-0.4l-0.2-0.2h0.5l10-10.1l15.3-15.3v2.7l-22.6,22.7h0.4l0.7,0.6l0.5-0.4l-0.2-0.2
	h0.4l20.8-20.8v2.7l-18.1,18.1h0.5l0.7,0.6l0.4-0.4l-0.2-0.2h0.4l16.3-16.3v2.7l-9.3,9.3l-4.2,4.3h0.4l0.7,0.6l0.5-0.4l-0.3-0.2h0.5
	l11.7-11.8v2.8l-9,9h0.5l0.6,0.6l0.5-0.4l-0.2-0.2h0.4l7.2-7.2v2.7l-4.4,4.5h0.4l0.7,0.6l0.4-0.4l-0.2-0.2h0.5l2.6-2.7v2.7h0.5
	l36.3,36.2h-3.6l-33.2-33.1v0.9l9.8,9.7l22.5,22.5h-3.6l-28.7-28.6v0.9l27.8,27.7h-3.7l-24.1-24.1v0.9l23.2,23.2h-3.6l-16.2-16.2
	l-3.4-3.3v0.9l18.7,18.6h-3.7l-15-15v0.9l14.1,14.1h-3.6l-10.5-10.5v0.9l9.6,9.6h-3.6l-6-5.9v0.9l5.1,5h-3.7l-1.4-1.4v0.9l0.5,0.5
	h-0.5v0.1l-29.9,29.8L-0.41,202.74z M69.99,237.35l1.6,1.6h-1.4l-35.2-35.3l-1.6,1.6l0.9,0.9l1.6-1.6v2.7l-0.3,0.3l31.4,31.4h-1.3
	l-29.8-29.8v2.6l-0.3,0.3l26.9,26.9h-1.4l-26.1-26.2l-1.6,1.5l0.9,1l1.6-1.6v2.7l-0.3,0.2l22.4,22.4h-1.4l-20.7-20.7v2.6l-0.3,0.3
	l2.5,2.4l15.3,15.4h-1.4l-16.1-16.2v2.6l-0.3,0.3l13.3,13.3h-1.4l-12.5-12.6l-1.6,1.6l0.9,0.9l1.6-1.6v2.7l-0.3,0.2l8.7,8.8h-1.3
	l-7.1-7.1v2.6l-0.3,0.3l4.2,4.2h-1.4l-2.5-2.6v2.6h-2.7l0.4-0.4l-0.9-0.9l-1.3,1.3h-2.7l0.3-0.4l-0.9-0.9l-1.2,1.3h-2.7l0.3-0.4
	l-0.9-0.9l-1.2,1.3h-2.8l0.4-0.4l-0.9-0.9l-1.3,1.3h-2.7l0.3-0.4l-0.9-0.9l-1.2,1.3h-2.7l0.3-0.4l-0.9-0.9l-1.2,1.3h-2.8l0.4-0.4
	l-0.9-0.9l-1.3,1.3h-2.7l0.3-0.3l-0.9-1l-1.2,1.3h-0.1v-3.9l0.6,0.6l1.6-1.6l-0.9-0.9l-1.3,1.3v-4l0.6,0.7l1.6-1.6l-0.9-0.9
	l-1.3,1.3v-4l0.6,0.6l1.6-1.5l-0.9-1l-1.3,1.4v-4l0.6,0.6l1.6-1.6l-0.9-0.9l-1.3,1.3v-4l0.6,0.7l1.6-1.6l-0.9-0.9l-1.3,1.3v-4
	l0.6,0.6l1.6-1.5l-0.9-1l-1.3,1.4v-4l0.6,0.6l1.6-1.6l-0.9-0.9l-1.3,1.3v-4l0.6,0.7l35.7-35.7v2.7l-32,32.1l0.9,0.9l4.4-4.5
	l26.7-26.6v2.7l-25.2,25.1l-2.3,2.4l0.9,0.9l26.6-26.6v2.7l-23,23l1,0.9l22-22.1v2.7l-18.4,18.5l0.9,0.9l17.5-17.5v2.7l-13.9,13.9
	l0.9,0.9l13-13v2.7l-9.3,9.4l0.9,0.9l8.4-8.5v2.7l-4.8,4.8l0.9,1l3.9-3.9v2.7l-0.3,0.2l34.2,34.3L69.99,237.35z M1.29,134.84l-1-0.9
	l-0.4,0.4l0.9,0.9L1.29,134.84z M1.29,139.34l-0.9-0.9l-0.5,0.5l0.9,0.9L1.29,139.34z M1.29,143.94l-1-1l-0.4,0.5l0.9,0.9
	L1.29,143.94z M1.29,148.44l-0.9-0.9l-0.5,0.4l0.9,0.9L1.29,148.44z M1.29,152.94l-0.9-0.9l-0.5,0.5l0.9,0.9L1.29,152.94z
	 M1.29,157.54l-0.9-0.9l-0.5,0.4l0.9,0.9L1.29,157.54z M1.29,162.04l-0.9-0.9l-0.5,0.4l0.9,1L1.29,162.04z M2.49,61.04l1.6-1.6
	l-0.9-0.9l-1.6,1.6L2.49,61.04z M2.49,65.54l1.6-1.6l-0.9-0.9l-1.6,1.6L2.49,65.54z M2.49,70.04l1.6-1.5l-0.6-0.6l-0.3-0.4l-1.6,1.6
	L2.49,70.04z M2.49,74.64l1.6-1.6l-0.9-0.9l-1.6,1.6L2.49,74.64z M2.49,79.14l1.6-1.6l-0.9-0.9l-1.6,1.6L2.49,79.14z M2.49,83.64
	l1.6-1.5l-0.9-0.9l-1.6,1.5L2.49,83.64z M2.49,88.24l1.6-1.6l-0.9-0.9l-1.6,1.6L2.49,88.24z M4.09,91.14l-0.9-0.9l-1.6,1.6l0.9,0.9
	L4.09,91.14z M2.49,206.14l1.6-1.6l-0.9-0.9l-1.6,1.6L2.49,206.14z M2.49,210.64l1.6-1.6l-0.9-0.9l-1.6,1.6L2.49,210.64z
	 M2.49,215.25l1.6-1.6l-0.9-0.9l-1.6,1.5L2.49,215.25z M2.49,219.75l1.6-1.6l-0.9-0.9l-1.6,1.6L2.49,219.75z M2.49,224.25l1.6-1.6
	l-0.9-0.9l-1.6,1.6L2.49,224.25z M2.49,228.85l1.6-1.6l-0.9-0.9l-1.6,1.6L2.49,228.85z M2.49,233.35l1.6-1.6l-0.9-0.9l-1.6,1.6
	L2.49,233.35z M4.09,236.25l-0.9-0.9l-1.6,1.6l0.9,0.9h0.1L4.09,236.25z M3.49,132.54l-0.9-0.9l-0.4,0.5l0.9,0.9L3.49,132.54z
	 M3.49,137.04l-0.9-0.9l-0.4,0.5l0.9,0.9L3.49,137.04z M3.49,141.64l-0.9-0.9l-0.4,0.4l0.9,0.9L3.49,141.64z M3.49,146.14l-0.9-0.9
	l-0.4,0.5l0.9,0.9L3.49,146.14z M3.49,150.74l-0.9-1l-0.4,0.5l0.9,0.9L3.49,150.74z M3.49,155.24l-0.9-0.9l-0.4,0.4l0.9,0.9
	L3.49,155.24z M3.49,159.74l-0.9-0.9l-0.4,0.5l0.9,0.9L3.49,159.74z M3.49,164.34l-0.9-0.9l-0.4,0.4l0.9,0.9L3.49,164.34z
	 M3.89,62.34l0.9,0.9l1.6-1.5l-0.9-1L3.89,62.34z M5.49,65.34l-1.6,1.6l0.9,0.9l1.6-1.6L5.49,65.34z M3.89,71.44l0.9,0.9l1.6-1.6
	l-0.9-0.9L3.89,71.44z M3.89,76.04l0.9,0.9l1.6-1.6l-0.9-0.9L3.89,76.04z M3.89,80.54l0.9,0.9l1.6-1.6l-0.9-0.9L3.89,80.54z
	 M3.89,85.04l0.9,0.9l1.6-1.6l-0.9-0.9L3.89,85.04z M6.39,88.94l-0.9-0.9l-1.6,1.5l0.9,1L6.39,88.94z M3.89,207.44l0.9,1l1.6-1.6
	l-0.9-0.9L3.89,207.44z M5.49,210.44l-1.6,1.6l0.9,0.9l1.6-1.6L5.49,210.44z M3.89,216.55l0.9,0.9l1.6-1.6l-0.9-0.9L3.89,216.55z
	 M3.89,221.15l0.9,0.9l1.6-1.6l-0.9-0.9L3.89,221.15z M3.89,225.65l0.9,0.9l1.6-1.6l-0.9-0.9L3.89,225.65z M3.89,230.15l0.9,0.9
	l1.6-1.5l-0.9-1L3.89,230.15z M6.39,234.05l-0.9-0.9l-1.6,1.6l0.9,0.9L6.39,234.05z M5.79,134.84l-0.9-0.9l-0.5,0.4l0.9,0.9
	L5.79,134.84z M5.79,139.34l-0.9-0.9l-0.5,0.5l0.9,0.9L5.79,139.34z M5.79,143.84l-0.9-0.9l-0.5,0.5l0.9,0.9L5.79,143.84z
	 M5.79,148.44l-0.9-0.9l-0.5,0.4l0.9,0.9L5.79,148.44z M5.79,152.94l-0.9-0.9l-0.5,0.5l0.9,0.9L5.79,152.94z M5.79,157.54l-0.9-1
	l-0.5,0.5l0.9,0.9L5.79,157.54z M5.79,162.04l-0.9-0.9l-0.5,0.4l0.9,0.9L5.79,162.04z M6.99,61.04l1.6-1.6l-0.9-0.9l-1.6,1.6
	L6.99,61.04z M8.59,63.94l-0.9-0.9l-1.6,1.6l0.9,0.9L8.59,63.94z M8.59,68.54l-0.9-0.9l-1.6,1.5l0.9,1L8.59,68.54z M6.09,73.74
	l0.9,0.9l1.6-1.6l-0.9-0.9L6.09,73.74z M6.09,78.24l0.9,0.9l1.6-1.6l-0.9-0.9L6.09,78.24z M6.09,82.84l0.9,0.9l1.6-1.6l-0.9-0.9
	L6.09,82.84z M6.09,87.34l0.9,0.9l1.6-1.6l-0.9-0.9L6.09,87.34z M8.59,91.14l-0.9-0.9l-1.6,1.6l0.9,0.9L8.59,91.14z M6.09,205.24
	l1,0.9l1.5-1.6l-0.9-0.9L6.09,205.24z M8.59,209.05l-0.9-0.9l-1.6,1.6l1,0.9L8.59,209.05z M8.59,213.64l-0.9-0.9l-1.6,1.6l1,0.9
	L8.59,213.64z M6.09,218.85l1,0.9l1.5-1.6l-0.9-0.9L6.09,218.85z M6.09,223.35l1,0.9l1.5-1.5l-0.9-1L6.09,223.35z M6.09,227.95
	l1,0.9l1.5-1.6l-0.9-0.9L6.09,227.95z M6.09,232.45l1,0.9l1.5-1.6l-0.9-0.9L6.09,232.45z M8.59,236.25l-0.9-0.9l-1.6,1.6l1,0.9
	L8.59,236.25z M8.09,132.54l-1-0.9l-0.4,0.5l0.9,0.9L8.09,132.54z M8.09,137.04l-0.6-0.5l-0.1-0.2l-0.2-0.2l-0.5,0.5l0.9,0.9
	L8.09,137.04z M8.09,141.64l-0.9-0.9l-0.5,0.4l0.9,0.9L8.09,141.64z M8.09,146.14l-0.9-0.9l-0.5,0.5l0.9,0.9L8.09,146.14z
	 M8.09,150.64l-0.9-0.9l-0.5,0.5l0.9,0.9L8.09,150.64z M8.09,155.24l-0.9-0.9l-0.5,0.4l0.9,0.9L8.09,155.24z M8.09,159.74l-0.9-0.9
	l-0.5,0.5l0.9,0.9L8.09,159.74z M8.09,164.34l-0.9-0.9l-0.5,0.4l0.9,0.9L8.09,164.34z M8.49,62.34h-0.1l0.9,0.9l1.6-1.5l-0.9-1
	L8.49,62.34z M9.99,65.34l-1.6,1.6l0.9,0.9l1.6-1.6L9.99,65.34z M9.99,69.84l-1.6,1.6l0.9,0.9l1.6-1.6L9.99,69.84z M9.99,74.34
	l-1.6,1.6l0.9,0.9l1.6-1.5L9.99,74.34z M9.29,81.44l1.6-1.6l-0.9-0.9l-1.6,1.6L9.29,81.44z M9.29,85.94l1.6-1.6l-0.9-0.9l-1.6,1.6
	L9.29,85.94z M10.89,88.94l-0.9-0.9l-1.6,1.5l0.9,1L10.89,88.94z M8.39,207.44l0.9,1l1.6-1.6l-0.9-0.9L8.39,207.44z M9.99,210.44
	l-1.6,1.6l0.9,0.9l1.6-1.6L9.99,210.44z M9.99,214.95l-1.6,1.6l0.9,0.9l1.6-1.6L9.99,214.95z M9.99,219.55l-1.6,1.6l0.9,0.9l1.6-1.6
	L9.99,219.55z M9.29,226.55l1.6-1.6l-0.9-0.9l-1.6,1.6L9.29,226.55z M9.29,231.05l1.6-1.5l-0.9-1l-1.6,1.6L9.29,231.05z
	 M10.89,234.05l-0.9-0.9l-1.6,1.6l0.9,0.9L10.89,234.05z M10.29,134.84l-0.9-0.9l-0.4,0.4l0.9,0.9L10.29,134.84z M10.29,139.34
	l-0.9-0.9l-0.4,0.5l0.9,0.9L10.29,139.34z M10.29,143.84l-0.9-0.9l-0.4,0.5l0.9,0.9L10.29,143.84z M10.29,148.44l-0.9-0.9l-0.4,0.4
	l0.9,0.9L10.29,148.44z M10.29,152.94l-0.9-0.9l-0.4,0.5l0.9,0.9L10.29,152.94z M10.29,157.54l-0.9-1l-0.4,0.5l0.9,0.9L10.29,157.54
	z M10.29,162.04l-0.9-0.9l-0.4,0.4l0.9,0.9L10.29,162.04z M10.69,60.14l0.9,0.9l1.6-1.6l-0.9-0.9L10.69,60.14z M13.19,63.94
	l-0.9-0.9l-1.6,1.6l0.9,0.9L13.19,63.94z M13.19,68.54l-0.9-0.9l-1.6,1.5l0.9,1L13.19,68.54z M11.59,74.64l1.6-1.6l-0.9-0.9
	l-1.6,1.6L11.59,74.64z M10.69,78.24l0.9,0.9l1.6-1.6l-0.9-0.9L10.69,78.24z M10.69,82.84l0.9,0.9l1.6-1.6l-0.9-0.9L10.69,82.84z
	 M10.69,87.34l0.9,0.9l1.6-1.6l-0.9-0.9L10.69,87.34z M13.19,91.14l-0.9-0.9l-1.6,1.6l0.9,0.9L13.19,91.14z M10.69,205.24l0.9,0.9
	l1.6-1.6l-0.9-0.9L10.69,205.24z M13.19,209.05l-0.9-0.9l-1.6,1.6l0.9,0.9L13.19,209.05z M13.19,213.64l-0.9-0.9l-1.6,1.6l0.9,0.9
	L13.19,213.64z M11.59,219.75l1.6-1.6l-0.9-0.9l-1.6,1.6L11.59,219.75z M10.69,223.35l0.9,0.9l1.6-1.6l-0.9-0.9L10.69,223.35z
	 M10.69,227.95l0.9,0.9l1.6-1.6l-0.9-0.9L10.69,227.95z M10.69,232.45l0.9,0.9l1.6-1.6l-0.9-0.9L10.69,232.45z M13.19,236.25
	l-0.9-0.9l-1.6,1.6l0.9,0.9L13.19,236.25z M12.59,132.54l-0.9-0.9l-0.5,0.4l0.4,0.4l0.5,0.6L12.59,132.54z M12.59,137.04l-0.9-0.9
	l-0.5,0.5l0.9,0.9L12.59,137.04z M12.59,141.64l-0.9-0.9l-0.5,0.4l0.9,0.9L12.59,141.64z M12.59,146.14l-0.9-0.9l-0.5,0.5l0.9,0.9
	L12.59,146.14z M12.59,150.64l-0.9-0.9l-0.5,0.5l0.9,0.9L12.59,150.64z M12.59,155.24l-0.9-0.9l-0.5,0.4l0.9,0.9L12.59,155.24z
	 M12.59,159.74l-0.9-0.9l-0.5,0.5l0.9,0.9L12.59,159.74z M12.59,164.34l-0.9-0.9l-0.5,0.4l0.9,0.9L12.59,164.34z M12.89,62.34l1,0.9
	l1.5-1.5l-0.9-1L12.89,62.34z M14.49,65.34l-1.6,1.6l0.9,0.9l1.6-1.6L14.49,65.34z M14.49,69.84l-1.6,1.6l0.9,0.9l1.6-1.6
	L14.49,69.84z M13.79,76.84l1.6-1.5l-0.9-1l-1.6,1.6L13.79,76.84z M13.79,81.44l1.6-1.6l-0.9-0.9l-1.6,1.6L13.79,81.44z
	 M13.79,85.94l1.6-1.6l-0.9-0.9l-1.6,1.6L13.79,85.94z M15.39,88.94l-0.9-0.9l-1.6,1.5l0.9,1L15.39,88.94z M12.99,207.44l0.9,1
	l1.5-1.6l-0.9-0.9L12.99,207.44z M14.49,210.44l-1.5,1.6l0.9,0.9l1.5-1.6L14.49,210.44z M14.49,214.95l-1.5,1.6l0.9,0.9l1.5-1.6
	L14.49,214.95z M13.89,222.05l1.5-1.6l-0.9-0.9l-1.5,1.6L13.89,222.05z M13.89,226.55l1.5-1.6l-0.9-0.9l-1.5,1.6L13.89,226.55z
	 M13.89,231.05l1.5-1.5l-0.9-1l-1.5,1.6L13.89,231.05z M15.39,234.05l-0.9-0.9l-1.5,1.6l0.9,0.9L15.39,234.05z M14.89,134.84
	l-0.9-0.9l-0.5,0.4l0.9,0.9L14.89,134.84z M14.89,139.34l-0.9-0.9l-0.5,0.5l0.9,0.9L14.89,139.34z M14.89,143.84l-0.9-0.9l-0.5,0.5
	l0.9,0.9L14.89,143.84z M14.89,148.44l-0.9-0.9l-0.5,0.4l0.9,0.9L14.89,148.44z M14.89,152.94l-0.9-0.9l-0.5,0.5l0.9,0.9
	L14.89,152.94z M14.89,157.54l-0.9-1l-0.5,0.5l0.9,0.9L14.89,157.54z M14.89,162.04l-0.9-0.9l-0.5,0.4l0.9,0.9L14.89,162.04z
	 M15.19,60.14l0.9,0.9l1.6-1.6l-0.9-0.9L15.19,60.14z M17.69,63.94l-0.9-0.9l-1.6,1.6l0.9,0.9L17.69,63.94z M17.69,68.54l-0.9-0.9
	l-1.6,1.5l0.9,0.9L17.69,68.54z M16.09,74.64l1.6-1.6l-0.9-0.9l-1.6,1.6L16.09,74.64z M15.19,78.24l0.9,0.9l1.6-1.6l-0.9-0.9
	L15.19,78.24z M15.19,82.84l0.9,0.9l1.6-1.6l-0.9-0.9L15.19,82.84z M15.19,87.34l0.9,0.9l1.6-1.6l-0.9-0.9L15.19,87.34z
	 M17.69,91.14l-0.9-0.9l-1.6,1.6l0.9,0.9L17.69,91.14z M15.19,205.24l0.9,0.9l1.6-1.6l-0.9-0.9L15.19,205.24z M17.69,209.05
	l-0.9-0.9l-1.6,1.6l0.9,0.9L17.69,209.05z M17.69,213.64l-0.9-0.9l-1.6,1.6l0.9,0.9L17.69,213.64z M16.09,219.75l1.6-1.6l-0.9-0.9
	l-1.6,1.6L16.09,219.75z M15.19,223.35l0.9,0.9l1.6-1.6l-0.9-0.9L15.19,223.35z M15.19,227.95l0.9,0.9l1.6-1.6l-0.9-0.9
	L15.19,227.95z M15.19,232.45l0.9,0.9l1.6-1.6l-0.9-0.9L15.19,232.45z M17.69,236.25l-0.9-0.9l-1.6,1.6l0.9,0.9L17.69,236.25z
	 M17.09,132.54l-0.9-0.9l-0.4,0.5l0.9,0.9L17.09,132.54z M17.09,137.04l-0.9-0.9l-0.4,0.5l0.9,0.9L17.09,137.04z M17.09,141.64
	l-0.9-0.9l-0.4,0.4l0.9,0.9L17.09,141.64z M17.09,146.14l-0.9-0.9l-0.4,0.5l0.9,0.9L17.09,146.14z M17.09,150.64l-0.9-0.9l-0.4,0.5
	l0.9,0.9L17.09,150.64z M17.09,155.24l-0.9-0.9l-0.4,0.4l0.9,0.9L17.09,155.24z M17.09,159.74l-0.9-0.9l-0.4,0.5l0.9,0.9
	L17.09,159.74z M17.09,164.34l-0.9-0.9l-0.4,0.4l0.9,0.9L17.09,164.34z M17.49,62.34l0.9,0.9l1.6-1.5l-0.9-1L17.49,62.34z
	 M19.09,65.34l-1.6,1.6l0.9,0.9l1.6-1.6L19.09,65.34z M19.09,69.84l-1.6,1.6l0.9,0.9l1.6-1.6L19.09,69.84z M18.39,76.84l1.6-1.5
	l-0.9-1l-1.6,1.6L18.39,76.84z M18.39,81.44l1.6-1.6l-0.9-0.9l-1.6,1.6L18.39,81.44z M18.39,85.94l1.6-1.6l-0.9-0.9l-1.6,1.6
	L18.39,85.94z M19.99,88.94l-0.9-0.9l-1.6,1.5l0.9,1L19.99,88.94z M17.49,207.44l0.9,1l1.6-1.6l-0.9-0.9L17.49,207.44z
	 M19.09,210.44l-1.6,1.6l0.9,0.9l1.6-1.6L19.09,210.44z M19.09,214.95l-1.6,1.6l0.9,0.9l1.6-1.6L19.09,214.95z M18.39,222.05
	l1.6-1.6l-0.9-0.9l-1.6,1.6L18.39,222.05z M18.39,226.55l1.6-1.6l-0.9-0.9l-1.6,1.6L18.39,226.55z M18.39,231.05l1.6-1.5l-0.9-1
	l-1.6,1.6L18.39,231.05z M19.99,234.05l-0.9-0.9l-1.6,1.6l0.9,0.9L19.99,234.05z M19.39,134.84l-0.9-0.9l-0.5,0.4l1,0.9
	L19.39,134.84z M19.39,139.34l-0.9-0.9l-0.5,0.5l1,0.9L19.39,139.34z M19.39,143.84l-0.9-0.9l-0.5,0.5l1,0.9L19.39,143.84z
	 M19.39,148.44l-0.9-0.9l-0.5,0.4l1,0.9L19.39,148.44z M19.39,152.94l-0.9-0.9l-0.5,0.5l1,0.9L19.39,152.94z M19.39,157.54l-0.9-1
	l-0.5,0.5l1,0.9L19.39,157.54z M19.39,162.04l-0.9-0.9l-0.5,0.4l1,0.9L19.39,162.04z M19.69,60.14l1,0.9l1.5-1.6l-0.9-0.9
	L19.69,60.14z M22.19,63.94l-0.9-0.9l-1.6,1.6l0.9,0.9L22.19,63.94z M22.19,68.54l-0.9-0.9l-1.6,1.5l0.9,0.9L22.19,68.54z
	 M20.59,74.64l1.6-1.6l-0.9-0.9l-1.6,1.6L20.59,74.64z M19.69,78.24l0.9,0.9l1.6-1.6l-0.9-0.9L19.69,78.24z M19.69,82.74l0.9,1
	l1.6-1.6l-0.9-0.9L19.69,82.74z M19.69,87.34l0.9,0.9l1.6-1.6l-0.9-0.9L19.69,87.34z M22.19,91.14l-0.9-0.9l-1.6,1.6l0.9,0.9
	L22.19,91.14z M19.79,205.24l0.9,0.9l1.5-1.6l-0.9-0.9L19.79,205.24z M22.19,209.05l-0.9-0.9l-1.5,1.6l0.9,0.9L22.19,209.05z
	 M22.19,213.64l-0.9-0.9l-1.5,1.6l0.9,0.9L22.19,213.64z M20.69,219.75l1.5-1.6l-0.9-0.9l-1.5,1.6L20.69,219.75z M19.79,223.35
	l0.9,0.9l1.5-1.6l-0.9-0.9L19.79,223.35z M19.79,227.95l0.9,0.9l1.5-1.6l-0.9-0.9L19.79,227.95z M19.79,232.45l0.9,0.9l1.5-1.6
	l-0.9-0.9L19.79,232.45z M22.19,236.25l-0.9-0.9l-1.5,1.6l0.9,0.9L22.19,236.25z M21.69,132.54l-0.9-0.9l-0.5,0.5l0.9,0.9
	L21.69,132.54z M21.69,137.04l-0.9-0.9l-0.5,0.5l0.9,0.9L21.69,137.04z M21.69,141.64l-0.9-0.9l-0.5,0.4l0.9,0.9L21.69,141.64z
	 M21.69,146.14l-0.9-0.9l-0.5,0.5l0.9,0.9L21.69,146.14z M21.69,150.74l-0.9-1l-0.5,0.5l0.9,0.9L21.69,150.74z M21.69,155.24
	l-0.9-0.9l-0.5,0.4l0.9,0.9L21.69,155.24z M21.69,159.74l-0.9-0.9l-0.5,0.5l0.9,0.9L21.69,159.74z M21.69,164.34l-0.9-0.9l-0.5,0.4
	l0.9,0.9L21.69,164.34z M21.99,62.34l0.9,0.9l1.6-1.5l-0.9-1L21.99,62.34z M23.59,65.34l-1.6,1.6l0.9,0.9l1.6-1.6L23.59,65.34z
	 M23.59,69.84l-1.6,1.6l0.9,0.9l1.6-1.6L23.59,69.84z M22.89,76.84h0.1l1.5-1.5l-0.9-1l-1.6,1.6L22.89,76.84z M22.89,81.44l1.6-1.6
	l-0.9-0.9l-1.6,1.6L22.89,81.44z M22.89,85.94l1.6-1.6l-0.9-0.9l-1.6,1.6L22.89,85.94z M24.49,88.94l-0.9-0.9l-1.6,1.5l0.9,1
	L24.49,88.94z M21.99,207.44l0.9,1l1.6-1.6l-0.9-0.9L21.99,207.44z M23.59,210.44l-1.6,1.6l0.9,0.9l1.6-1.6L23.59,210.44z
	 M23.59,214.95l-1.6,1.6l0.9,0.9l1.6-1.6L23.59,214.95z M22.89,222.05l1.6-1.6l-0.9-0.9l-1.6,1.6L22.89,222.05z M22.89,226.55
	l1.6-1.6l-0.9-0.9l-1.6,1.6L22.89,226.55z M22.89,231.05l1.6-1.6l-0.9-0.9l-1.6,1.6L22.89,231.05z M24.49,234.05l-0.9-0.9l-1.6,1.6
	l0.9,0.9L24.49,234.05z M23.89,134.84l-0.9-0.9l-0.4,0.4l0.9,0.9L23.89,134.84z M23.89,139.34l-0.9-0.9l-0.4,0.5l0.9,0.9
	L23.89,139.34z M23.89,143.94l-0.9-1l-0.4,0.5l0.9,0.9L23.89,143.94z M23.89,148.44l-0.9-0.9l-0.4,0.4l0.9,0.9L23.89,148.44z
	 M23.89,152.94l-0.9-0.9l-0.4,0.5l0.9,0.9L23.89,152.94z M23.89,157.54l-0.9-0.9l-0.4,0.4l0.9,0.9L23.89,157.54z M23.89,162.04
	l-0.9-0.9l-0.4,0.4l0.9,0.9L23.89,162.04z M24.29,60.14l0.9,0.9l1.6-1.6l-0.9-0.9L24.29,60.14z M26.79,63.94l-0.9-0.9l-1.6,1.6
	l0.9,0.9L26.79,63.94z M26.79,68.54l-0.9-1l-1.6,1.6l0.9,0.9L26.79,68.54z M25.19,74.64l1.6-1.6l-0.9-0.9l-1.6,1.6L25.19,74.64z
	 M24.29,78.24l0.9,0.9l1.6-1.6l-0.9-0.9L24.29,78.24z M24.29,82.74l0.9,1l1.6-1.6l-0.9-0.9L24.29,82.74z M24.29,87.34l0.9,0.9
	l1.6-1.6l-0.9-0.9L24.29,87.34z M26.79,91.14l-0.9-0.9l-1.6,1.6l0.9,0.9L26.79,91.14z M24.29,205.24l0.9,0.9l1.6-1.6l-0.9-0.9
	L24.29,205.24z M26.79,209.05l-0.9-0.9l-1.6,1.6l0.9,0.9L26.79,209.05z M26.79,213.64l-0.9-0.9l-1.6,1.6l0.9,0.9L26.79,213.64z
	 M26.79,218.15l-0.9-0.9l-1.6,1.6l0.9,0.9L26.79,218.15z M24.29,223.35l0.9,0.9l1.6-1.6l-0.9-0.9L24.29,223.35z M24.29,227.95
	l0.9,0.9l1.6-1.6l-0.9-0.9L24.29,227.95z M24.29,232.45l0.9,0.9l1.6-1.6l-0.9-0.9L24.29,232.45z M26.79,236.25l-0.9-0.9l-1.6,1.6
	l0.9,0.9L26.79,236.25z M26.19,132.54l-0.9-0.9l-0.5,0.5l1,0.9L26.19,132.54z M26.19,137.04l-0.9-0.9l-0.5,0.5l1,0.9L26.19,137.04z
	 M26.19,146.14l-0.9-0.9l-0.5,0.5l1,0.9L26.19,146.14z M26.19,141.64l-0.9-0.9l-0.4,0.4l0.9,0.9L26.19,141.64z M26.19,150.74l-0.9-1
	l-0.4,0.5l0.9,0.9L26.19,150.74z M26.19,155.24l-0.9-0.9l-0.4,0.4l0.9,0.9L26.19,155.24z M26.19,159.74l-0.9-0.9l-0.4,0.5l0.9,0.9
	L26.19,159.74z M26.19,164.34l-0.9-0.9l-0.4,0.4l0.9,0.9L26.19,164.34z M28.09,65.34l-1.6,1.6l1,0.9l1.5-1.6L28.09,65.34z
	 M28.09,69.84l-1.6,1.6l1,0.9l1.5-1.6L28.09,69.84z M27.49,76.84l1.5-1.5l-0.9-1l-1.6,1.6L27.49,76.84z M27.49,81.44l1.5-1.6
	l-0.9-0.9l-1.6,1.6L27.49,81.44z M27.49,85.94l1.5-1.6l-0.9-0.9l-1.6,1.6L27.49,85.94z M28.99,88.94l-0.9-0.9l-1.6,1.5l1,1
	L28.99,88.94z M26.59,62.34l0.9,0.9l1.5-1.5l-0.9-1L26.59,62.34z M26.59,207.44l0.9,1l1.6-1.6l-1-0.9L26.59,207.44z M29.09,211.34
	l-1-0.9l-1.5,1.6l0.9,0.9L29.09,211.34z M29.09,215.84l-1-0.9l-1.5,1.6l0.9,0.9L29.09,215.84z M29.09,220.45l-1-0.9l-1.5,1.6
	l0.9,0.9L29.09,220.45z M27.49,226.55l1.6-1.6l-1-0.9l-1.5,1.6L27.49,226.55z M27.49,231.05l1.6-1.6l-1-0.9l-1.5,1.6L27.49,231.05z
	 M29.09,234.05l-1-0.9l-1.5,1.6l0.9,0.9L29.09,234.05z M28.49,134.84l-0.9-0.9l-0.5,0.4l0.9,0.9L28.49,134.84z M28.49,139.34
	l-0.9-0.9l-0.5,0.5l0.9,0.9L28.49,139.34z M28.49,143.84l-0.9-0.9l-0.5,0.5l0.9,0.9L28.49,143.84z M28.49,148.44l-0.9-0.9l-0.5,0.4
	l0.9,0.9L28.49,148.44z M28.49,152.94l-0.9-0.9l-0.5,0.5l0.9,0.9L28.49,152.94z M28.49,157.54l-0.9-1l-0.5,0.5l0.9,0.9L28.49,157.54
	z M28.49,162.04l-0.9-0.9l-0.5,0.4l0.9,0.9L28.49,162.04z M28.79,60.14l0.9,0.9l1.6-1.6l-0.9-0.9L28.79,60.14z M31.29,63.94
	l-0.9-0.9l-1.6,1.6l0.9,0.9L31.29,63.94z M31.29,68.54l-0.9-1l-1.6,1.6l0.9,0.9L31.29,68.54z M31.29,73.04l-0.9-0.9l-1.6,1.6
	l0.9,0.9L31.29,73.04z M28.79,78.24l0.9,0.9l1.6-1.6l-0.9-0.9L28.79,78.24z M28.79,82.74l0.9,0.9h0.1l1.5-1.5l-0.9-0.9L28.79,82.74z
	 M28.79,87.34l0.9,0.9l1.6-1.6l-0.9-0.9L28.79,87.34z M31.29,91.14l-0.9-0.9l-1.6,1.6l0.9,0.9L31.29,91.14z M28.79,205.24l0.9,0.9
	l1.6-1.6l-0.9-0.9L28.79,205.24z M31.29,209.05l-0.9-0.9l-1.6,1.6l0.9,0.9L31.29,209.05z M31.29,213.64l-0.9-0.9l-1.6,1.5l0.9,1
	L31.29,213.64z M31.29,218.15l-0.9-0.9l-1.6,1.6l0.9,0.9L31.29,218.15z M31.29,222.65l-0.9-0.9l-1.6,1.6l0.9,0.9L31.29,222.65z
	 M31.29,227.25l-0.9-0.9l-1.6,1.6l0.9,0.9L31.29,227.25z M28.79,232.45l0.9,0.9l1.6-1.6l-0.9-0.9L28.79,232.45z M31.29,236.25
	l-0.9-0.9l-1.6,1.6l0.9,0.9L31.29,236.25z M30.69,132.54l-0.9-0.9l-0.4,0.5l0.9,0.9L30.69,132.54z M30.69,137.14l-0.9-1l-0.4,0.5
	l0.9,0.9L30.69,137.14z M30.69,141.64l-0.9-0.9l-0.4,0.4l0.9,0.9L30.69,141.64z M30.69,146.14l-0.9-0.9l-0.4,0.5l0.9,0.9
	L30.69,146.14z M30.69,150.74l-0.9-0.9l-0.4,0.4l0.9,0.9L30.69,150.74z M30.69,155.24l-0.9-0.9l-0.4,0.4l0.9,0.9L30.69,155.24z
	 M30.69,159.74l-0.9-0.9l-0.4,0.5l0.9,0.9L30.69,159.74z M30.69,164.34l-0.9-0.9l-0.4,0.4l0.9,0.9L30.69,164.34z M31.09,62.34
	l0.9,0.9l1.6-1.5l-0.9-1L31.09,62.34z M33.59,66.24l-0.9-0.9l-1.6,1.6l0.9,0.9L33.59,66.24z M33.59,70.74l-0.9-0.9l-1.6,1.6l0.9,0.9
	L33.59,70.74z M33.59,75.34l-0.9-0.9l-1.6,1.5l0.9,0.9L33.59,75.34z M31.99,81.44l1.6-1.6l-0.9-0.9l-1.6,1.6L31.99,81.44z
	 M31.29,85.24l0.1,0.2l0.6,0.5l1.6-1.6l-0.9-0.9l-1.6,1.6L31.29,85.24z M33.59,88.94l-0.9-0.9l-1.6,1.5l0.9,1L33.59,88.94z
	 M32.69,205.94l-1.6,1.6l0.9,0.9l1.6-1.6L32.69,205.94z M33.59,211.34l-0.9-0.9l-1.6,1.6l0.9,0.9L33.59,211.34z M32.69,214.95
	l-1.6,1.6l0.9,0.9l1.6-1.6L32.69,214.95z M31.99,222.05l1.6-1.6l-0.9-0.9l-1.6,1.6L31.99,222.05z M33.59,224.95l-0.9-0.9l-1.6,1.6
	l0.9,0.9L33.59,224.95z M32.69,228.55l-1.6,1.6l0.9,0.9l1.6-1.6L32.69,228.55z M33.59,234.05l-0.9-0.9l-1.6,1.6l0.9,0.9
	L33.59,234.05z M32.99,139.34l-0.9-0.9l-0.5,0.5l1,0.9L32.99,139.34z M32.99,143.94l-0.9-0.9l-0.5,0.4l1,0.9L32.99,143.94z
	 M32.99,148.44l-0.9-0.9l-0.5,0.4l1,0.9L32.99,148.44z M32.99,152.94l-0.9-0.9l-0.5,0.5l1,0.9L32.99,152.94z M32.99,157.54l-0.9-0.9
	l-0.5,0.4l1,0.9L32.99,157.54z M32.99,134.84l-0.9-0.9l-0.4,0.4l0.9,0.9L32.99,134.84z M32.99,162.04l-0.9-0.9l-0.4,0.5l0.9,0.9
	L32.99,162.04z M34.89,85.74l-1.6,1.6l1,0.9l1.5-1.6L34.89,85.74z M34.29,92.74l1.5-1.6l-0.9-0.9l-1.6,1.6L34.29,92.74z
	 M33.39,60.14l0.9,0.9l1.5-1.6l-0.9-0.9L33.39,60.14z M34.89,63.04l-1.5,1.6l0.9,0.9l1.5-1.6L34.89,63.04z M34.89,67.64l-1.5,1.5
	l0.9,0.9l1.5-1.5L34.89,67.64z M34.89,72.14l-1.5,1.6l0.9,0.9l1.5-1.6L34.89,72.14z M34.89,76.64l-1.5,1.6l0.9,0.9l1.5-1.6
	L34.89,76.64z M34.89,81.24l-1.5,1.5l0.9,1l1.5-1.6L34.89,81.24z M33.39,209.75l0.9,0.9l1.6-1.6l-0.9-0.9L33.39,209.75z
	 M33.39,218.85l0.9,0.9l1.6-1.6l-0.9-0.9L33.39,218.85z M34.99,221.75l-1.6,1.6l0.9,0.9l1.6-1.6L34.99,221.75z M33.39,232.45
	l0.9,0.9l1.6-1.6l-0.9-0.9L33.39,232.45z M34.89,235.35l-1.5,1.6l0.9,0.9l1.6-1.6L34.89,235.35z M33.89,132.14l0.9,0.9l0.5-0.5
	l-0.9-0.9L33.89,132.14z M33.89,136.64l0.9,0.9l0.5-0.4l-0.9-0.9L33.89,136.64z M33.89,141.14l0.9,0.9l0.5-0.4l-0.9-0.9
	L33.89,141.14z M33.89,145.74l0.9,0.9l0.5-0.5l-0.9-0.9L33.89,145.74z M33.89,150.24l0.9,0.9l0.5-0.4l-0.9-0.9L33.89,150.24z
	 M33.89,154.74l0.9,1l0.5-0.5l-0.9-0.9L33.89,154.74z M33.89,159.34l0.9,0.9l0.5-0.5l-0.9-0.9L33.89,159.34z M33.89,163.84l0.9,0.9
	l0.5-0.4l-0.9-0.9L33.89,163.84z M73.59,166.34l-36.3-36.3h3.6l36.3,36.3H73.59z M38.39,57.44h1.4l36.3,36.3h-1.4l-3.1-3.2
	L38.39,57.44z M76.09,238.85h-1.4l-36.3-36.2h1.4l32.3,32.3L76.09,238.85z M78.09,166.34l-36.3-36.3h3.6l29.7,29.6l6.6,6.7H78.09z
	 M42.99,57.44h1.3l30.1,30l0.1,0.2l6.1,6.1h-1.4L42.99,57.44z M79.29,238.85l-28.1-28.1l-0.2-0.1l-8-8h1.4l36.2,36.2H79.29z
	 M82.59,166.34l-7.2-7.3l-29.1-29h3.7l36.3,36.3H82.59z M48.89,57.44l5,5.1l22.9,22.8l8.3,8.4h-1.3l-36.3-36.3H48.89z M76.79,230.55
	l8.4,8.3h-1.4l-36.3-36.2h1.4l5.2,5.1L76.79,230.55z M87.19,166.34l-36.3-36.3h3.6l35.8,35.7v0.6H87.19z M88.3,93.74l-36.3-36.3h1.4
	l25.6,25.7l10.7,10.6H88.3z M89.69,238.85h-1.4l-32.6-32.6l-0.1-0.2l-3.5-3.4h1.3L89.69,238.85z M90.3,164.84l-32.9-32.9l-0.2-0.1
	l-1.8-1.8h3.7l31.2,31.2V164.84z M57.89,57.44l36.3,36.3h-1.3l-36.3-36.3H57.89z M92.9,238.85l-36.3-36.2h1.4l36.2,36.2H92.9z
	 M90.3,160.34l-30.3-30.3h3.6l26.7,26.7V160.34z M97.4,93.74l-36.3-36.3h1.4l36.3,36.3H97.4z M98.8,238.85h-1.4l-36.3-36.2h1.4
	L98.8,238.85z M90.3,155.84l-25.8-25.8h3.6l18.3,18.3l3.9,3.8V155.84z M66.99,57.44l32.4,32.4v1.3l-33.8-33.7H66.99z M99.4,234.95
	v1.4l-33.7-33.7h1.3L99.4,234.95z M90.3,151.24l-21.3-21.2h3.7l17.6,17.6V151.24z M99.4,85.24v1.4l-12-11.9l-17.2-17.3h1.3
	L99.4,85.24z M71.59,202.64l27.8,27.8v1.3l-29.2-29.1H71.59z M90.3,146.74l-16.7-16.7h3.6l13.1,13V146.74z M90.4,71.74l9,9v1.3
	l-9.7-9.6l-15-15h1.4l14.1,14.2L90.4,71.74z M90.4,216.95l9,8.9v1.4l-24.7-24.6h1.4L90.4,216.95z M90.3,142.14l-12.2-12.1h3.6
	l8.6,8.5V142.14z M99.4,76.24v1.3l-20.1-20.1h1.3L99.4,76.24z M80.59,202.64l18.8,18.7v1.4l-7.5-7.6l-12.6-12.5H80.59z M90.3,137.64
	l-7.7-7.6h3.7l4,4V137.64z M85.09,57.44l14.3,14.2v1.4l-15.6-15.6H85.09z M94.8,212.25l4.6,4.6v1.3l-15.6-15.6h1.4L94.8,212.25z
	 M90.3,133.14l-3.1-3.1h3.1V133.14z M99.4,67.14v1.3l-3-3l-8.1-8h1.4L99.4,67.14z M97.1,209.94l2.3,2.3v1.4l-3-3l-8.1-8h1.4
	L97.1,209.94z M94.19,57.44l5.2,5.1v1.4l-6.5-6.5H94.19z M94.19,202.54l5.2,5.2v1.3l-0.8-0.7l-5.7-5.7L94.19,202.54z M99.4,58.04
	v1.4l-2-2h1.4L99.4,58.04z M98.8,202.64l0.6,0.6v1.3l-2-1.9H98.8z"/>
</svg>
