<?xml version="1.0" encoding="utf-8"?>
<!-- Generator: Adobe Illustrator 27.0.1, SVG Export Plug-In . SVG Version: 6.00 Build 0)  -->
<svg version="1.1" id="Ebene_1" xmlns="http://www.w3.org/2000/svg" xmlns:xlink="http://www.w3.org/1999/xlink" x="0px" y="0px"
	 viewBox="0 0 145.41 239.51" style="enable-background:new 0 0 145.41 239.51;" xml:space="preserve">
<style type="text/css">
	.st0{fill:#1D1D1B;}
</style>
<path class="st0" d="M36.07,171.83v1.3l-0.9-0.9l-0.8,0.9l-0.7-2.1l0.1-0.1l-34-34v-1.4l33.3,33.3l-0.4-1.3l1.1-1.2l-0.9-0.9
	l-0.6,0.7l-0.6-1.9l-31.9-31.9v-1.3l31.3,31.3l-0.5-1.8l1-1l-1-0.9l-0.4,0.5l-0.4-1.3l-30-30v-1.4l30.2,30.2l1.5-1.6l-0.9-0.9
	l-1.5,1.5l-0.6-2.1l0.8-0.8l-0.9-0.9l-0.3,0.3l-0.3-0.8l-28-28.1v-1.3l27.9,27.9l1.6-1.6l-0.9-0.9l-1.4,1.3l-0.6-2.1l0.6-0.6
	l-0.9-0.9l-0.1,0.1l-0.1-0.3l-26.1-26.1v-1.4l25.6,25.7l1.6-1.6l-0.9-0.9l-1.2,1.1l-0.6-2.1l0.5-0.4l-25-24.9v-1.4l23.6,23.6
	l-0.1-0.3l1.5-1.5l-0.9-0.9l-1,1l-0.7-2.1l0.3-0.3l-22.7-22.7v-1.3l21.6,21.6l-0.2-0.8l1.3-1.3l-0.9-0.9l-0.8,0.8l-0.7-2.1l0.1-0.1
	l-0.5-0.5l-0.1-0.2l-19.8-19.7v-1.4l19.7,19.7l-0.4-1.3l1.1-1.1l-0.9-0.9l-0.6,0.6l-0.6-1.8l-18.3-18.3v-1.4l17.7,17.7l-0.5-1.8
	l1-0.9l-0.9-0.9l-0.5,0.4l-0.4-1.3l-16.4-16.4v-1.3l2.3,2.2l14.3,14.3l1.6-1.6l-0.9-0.9l-1.6,1.5l-0.6-2.1l0.8-0.7l-0.9-0.9
	l-0.3,0.2l-0.2-0.8l-14.5-14.4v-1.4l14.3,14.3l1.6-1.6l-0.9-0.9l-1.3,1.4l-0.7-2.1l0.6-0.6l-0.9-1l-0.1,0.2l-0.1-0.4l-6.2-6.2
	l-6.3-6.2v-1.4l12.1,12l1.5-1.6l-0.9-0.9l-1.1,1.2l-0.7-2.1l0.5-0.5l-11.4-11.3v-1.3l10,9.9l-0.1-0.3l1.5-1.5l-0.9-0.9l-1,1
	l-0.6-2.1l0.2-0.3l-9-9v-1.4l8,8l-0.3-0.8l1.3-1.3l-0.9-0.9l-0.8,0.8l-0.6-2.1l0.1-0.1l-6.8-6.8v-1.3l6,6l-0.4-1.3l1.2-1.1l-1-0.9
	l-0.6,0.6l-0.5-1.8l-4.7-4.7v-1.4l4.1,4.2l-0.6-1.8l1-1l-0.9-0.9l-0.5,0.5l-0.4-1.4l-2.7-2.7v-1.4l2.9,3l1.6-1.6l-0.9-0.9l-1.5,1.5
	l-0.7-2.1l0.8-0.8l-0.9-0.9l-0.3,0.3l-0.2-0.9l-0.8-0.8v-1.3l0.6,0.6l1.2-1.1h2.8l-0.3,0.2l0.9,0.9l1.2-1.1h2.7l-0.3,0.2l0.9,0.9
	l1.2-1.1h2.7l-0.3,0.2l0.9,0.9l1.2-1.1h2.8l-0.3,0.2l0.9,0.9l1.2-1.1h2.7l-0.3,0.2l0.9,0.9l1.2-1.1h2.7l-0.3,0.2l0.9,0.9l1.2-1.1
	h2.8l-0.3,0.2l0.9,0.9l1.2-1.1h2.6l-0.2,0.2l0.2,0.3v1.3l0.5-0.4l0.6,2.1l-1.3,1.3l0.2,0.2v1.4l-0.9-0.9l-1.6,1.6l0.3,0.2l0.6,0.7
	l3.1-3.1l0.6,2.1l-2.3,2.3l0.2,0.2v1.4l2.6-2.5l0.6,2.1l-3.4,3.3v0.1l0.2,0.2v1.3l3.6-3.5l0.6,2.1l-4.4,4.4l0.2,0.2v1.4l-0.9-0.9
	l-1.6,1.6l0.9,0.9l6.2-6.2l0.7,2.1l-1,0.9l-4.5,4.5l0.2,0.3v1.3l5.7-5.6l0.6,2l-6.5,6.6l0.2,0.2v1.4l-0.9-0.9l-1.6,1.6l0.9,0.9
	l1.6-1.6l6.7-6.8l0.7,2.1l-7.6,7.6l0.2,0.2v1.4l-0.9-0.9l-1.6,1.6l0.9,0.9l9.4-9.4l0.6,2.1l-8.6,8.6l0.2,0.3v1.3l8.8-8.8l0.7,2.1
	l-9.7,9.7l0.2,0.2v1.4l-0.9-0.9l-1.6,1.6l0.9,0.9l11.5-11.5l0.6,2.1l-10.7,10.7l0.2,0.2v1.4l-0.9-0.9l-1.6,1.6l0.9,0.9l12.5-12.5
	l0.6,2.1l-11.7,11.7l0.2,0.3v1.3l12-11.9l0.6,2.1l-12.8,12.8l0.2,0.2v1.4l-0.9-0.9l-1.6,1.6l0.9,0.9l14.6-14.6l0.6,2.1l-13.8,13.8
	l0.2,0.2v1.4l-0.9-0.9l-1.6,1.6l0.9,0.9l15.7-15.6l0.6,2.1l-12.8,12.7l-2.1,2.2l0.2,0.2v1.3l15.1-15l0.6,2.1l-15.9,15.9l0.2,0.2v1.4
	l-0.9-0.9l-1.6,1.6l0.9,0.9l17.8-17.8l0.6,2.1l-10.2,10.2l-0.1,0.2l-6.7,6.6l0.2,0.3v1.3l17.2-17.2l0.6,2.1l-8.9,9l-9.1,9.1l0.2,0.2
	v1.4l-0.9-0.9l-1.6,1.6l0.9,0.9l19.8-19.9l0.7,2.1l-19.1,19.1l0.2,0.2v1.4l-0.9-0.9l-1.6,1.6l0.9,0.9l20.9-20.9l0.6,2.1l-20.1,20.1
	l0.2,0.3v1.3l14.2-14.1l0.1-0.2l6-6l0.7,2.1l-21.2,21.2l0.2,0.2v1.4l-0.9-0.9l-1.6,1.5l0.9,1l23-23l0.6,2.1l-22.2,22.2l0.2,0.2v1.4
	l-0.9-0.9l-1.6,1.6l0.9,0.9l24-24l0.6,2.1l-23.2,23.3l0.2,0.2v1.3l-0.9-0.9l-1.6,1.6l0.9,0.9l25.1-25l0.6,2.1l-24.3,24.3l0.2,0.2
	v1.4l-0.9-0.9l-1.6,1.6l0.9,0.9l26.1-26.1l0.6,2.1l-25.3,25.3l0.2,0.3v1.3l-0.9-0.9l-1.6,1.6l0.9,0.9l1.6-1.6l3-2.9l22.6-22.6
	l0.6,2.1l-21.9,21.8l-4.5,4.6L36.07,171.83z M36.07,176.33v1.4l-36.3-36.3v-1.4l25.1,25.2l10.1,10l-0.2-0.8l1.3-1.3v0.1l5.2-5.3
	l21.4-21.3l0.6,2.1l-27.4,27.4L36.07,176.33z M36.07,180.93v1.3l-36.3-36.2v-1.4l22.9,22.8L36.07,180.93z M36.07,185.43v1.4
	l-16.4-16.4l-0.1-0.2l-19.8-19.7v-1.4L36.07,185.43z M17.97,171.83l18.1,18.2v1.3l-18.7-18.6l-17.6-17.7v-1.3L17.97,171.83z
	 M15.87,174.23l20.2,20.3v1.3l-36.3-36.2v-1.4L15.87,174.23z M36.07,199.03v1.4l-36.3-36.3v-1.4L36.07,199.03z M36.07,204.93
	l-25.5-25.4l-10.8-10.9v-1.3l36.3,36.3V204.93z M36.07,209.53l-36.3-36.3v-1.4l9.2,9.3l27.1,27V209.53z M36.07,212.63v1.4
	l-36.3-36.3v-1.3l7,6.9L36.07,212.63z M36.07,218.53l-9.6-9.5l-22.8-22.9l-3.9-3.8v-1.4l36.3,36.3V218.53z M36.07,221.73v1.4
	l-34.5-34.6l-0.2-0.1l-1.6-1.6v-1.4L36.07,221.73z M36.07,227.63l-36.3-36.3v-1.3l36.3,36.2V227.63z M-0.23,194.53l36.3,36.3v1.3
	l-36.3-36.2V194.53z M17.97,217.33l18.1,18v1.4l-18.7-18.7v-0.1h-0.1l-17.5-17.5v-1.4L17.97,217.33z M15.87,219.63l19.6,19.7h-1.3
	l-34.4-34.4v-1.3l15.9,15.9L15.87,219.63z M29.67,239.33l-29.9-29.8v-1.4l31.2,31.2H29.67z M-0.23,212.63l26.7,26.7h-1.4l-25.3-25.3
	V212.63z M21.87,239.33h-1.3l-20.8-20.8v-1.3L21.87,239.33z M17.37,239.33h-1.4l-16.2-16.2v-1.4L17.37,239.33z M-0.23,226.33
	l13.1,13h-1.4l-11.7-11.7V226.33z M-0.23,230.83l8.5,8.5h-1.3l-7.2-7.2V230.83z M3.77,239.33h-1.4l-2.6-2.6v-1.4L3.77,239.33z
	 M4.37,59.82l-1-0.9l-1.5,1.6l0.9,0.9L4.37,59.82z M4.97,63.62l1.6-1.6l-0.9-0.9l-1.6,1.6L4.97,63.62z M4.97,68.22l1.6-1.6l-0.9-0.9
	l-1.6,1.6L4.97,68.22z M6.57,71.12l-0.9-0.9l-1.6,1.6l0.9,0.9L6.57,71.12z M6.37,60.52l0.9,0.9l1.6-1.6l-0.9-0.9L6.37,60.52z
	 M8.87,64.32l-0.9-0.9l-1.6,1.6l0.9,0.9L8.87,64.32z M6.37,69.52l0.9,0.9l1.6-1.6l-0.9-0.9L6.37,69.52z M7.27,75.03l1.6-1.6
	l-0.9-0.9l-1.6,1.6L7.27,75.03z M8.87,77.93l-0.9-0.9l-1.6,1.6l0.9,0.9L8.87,77.93z M8.67,62.72l0.9,0.9l1.6-1.6l-0.9-0.9
	L8.67,62.72z M10.17,65.72l-1.5,1.6l0.9,0.9l1.6-1.6L10.17,65.72z M8.67,71.82l0.9,0.9l1.6-1.6l-1-0.9L8.67,71.82z M8.67,76.32
	l0.9,0.9l1.6-1.5l-1-1L8.67,76.32z M9.57,81.82l1.6-1.6l-1-0.9l-1.5,1.6L9.57,81.82z M11.17,84.73l-1-0.9l-1.5,1.6l0.9,0.9
	L11.17,84.73z M10.87,60.52l0.9,0.9l1.6-1.6l-0.9-0.9L10.87,60.52z M13.37,64.32l-0.9-0.9l-1.6,1.6l0.9,0.9L13.37,64.32z
	 M13.37,68.82l-0.9-0.9l-1.6,1.6l0.9,0.9L13.37,68.82z M10.87,74.12l0.9,0.9l1.6-1.6l-0.9-0.9L10.87,74.12z M10.87,78.62l0.9,0.9
	l1.6-1.6l-0.9-0.9L10.87,78.62z M10.87,83.13l0.9,0.9l1.6-1.5l-0.9-0.9L10.87,83.13z M11.77,88.63l1.6-1.6l-0.9-0.9l-1.6,1.6
	L11.77,88.63z M13.37,91.53l-0.9-0.9l-1.6,1.6l0.9,0.9L13.37,91.53z M13.17,62.72l0.9,0.9l1.6-1.6l-0.9-0.9L13.17,62.72z
	 M14.77,65.72l-1.6,1.6l0.9,0.9l1.6-1.6L14.77,65.72z M14.77,70.22l-1.6,1.6l0.9,0.9l1.6-1.6L14.77,70.22z M13.17,76.32l0.9,0.9
	l1.6-1.6l-0.9-0.9L13.17,76.32z M13.17,80.93l0.9,0.9l1.6-1.6l-0.9-0.9L13.17,80.93z M13.17,85.43l0.9,0.9l1.6-1.6l-0.9-0.9
	L13.17,85.43z M13.17,89.93l0.9,0.9l1.6-1.5l-0.9-0.9L13.17,89.93z M14.07,95.43l1.6-1.6l-0.9-0.9l-1.6,1.6L14.07,95.43z
	 M15.67,98.33l-0.9-0.9l-1.6,1.6l0.9,0.9L15.67,98.33z M15.47,60.52l0.9,0.9l1.6-1.6l-0.9-0.9L15.47,60.52z M17.97,64.32l-0.9-0.9
	l-1.6,1.6l0.9,0.9L17.97,64.32z M17.97,68.82l-1-0.9l-1.5,1.6l0.9,0.9L17.97,68.82z M17.97,73.42l-1-0.9l-1.5,1.5l0.9,1L17.97,73.42
	z M15.47,78.62l0.9,0.9l1.6-1.6l-1-0.9L15.47,78.62z M15.47,83.13l0.9,0.9l1.6-1.5l-1-1L15.47,83.13z M15.47,87.73l0.9,0.9l1.6-1.6
	l-1-0.9L15.47,87.73z M15.47,92.23l0.9,0.9l1.6-1.6l-0.9-0.9L15.47,92.23z M15.47,96.73l0.9,0.9l1.5-1.6l-0.9-0.9L15.47,96.73z
	 M16.37,102.23l1.6-1.6l-1-0.9l-1.5,1.6L16.37,102.23z M17.97,105.13l-1-0.9l-1.5,1.6l0.9,0.9L17.97,105.13z M17.67,62.72l0.9,0.9
	l1.6-1.6l-0.9-0.9L17.67,62.72z M19.27,65.72l-1.6,1.6l0.9,0.9l1.6-1.6L19.27,65.72z M19.27,70.22l-1.6,1.6l0.9,0.9l1.6-1.6
	L19.27,70.22z M19.27,74.73l-1.6,1.6l0.9,0.9l1.6-1.6L19.27,74.73z M17.67,80.93l0.9,0.9l1.6-1.6l-0.5-0.5l-0.1-0.2l-0.3-0.2
	L17.67,80.93z M17.67,85.43l0.9,0.9l1.6-1.6l-0.9-0.9L17.67,85.43z M17.67,89.93l0.9,0.9l1.6-1.5l-0.9-0.9L17.67,89.93z
	 M17.67,94.53l0.9,0.9l1.6-1.6l-0.9-0.9L17.67,94.53z M17.67,99.03l0.9,0.9l1.6-1.6l-0.9-0.9L17.67,99.03z M17.67,103.53l0.9,1
	l1.6-1.6l-0.9-0.9L17.67,103.53z M18.57,109.03l1.6-1.6l-0.9-0.9l-1.6,1.6L18.57,109.03z M18.57,113.53l1.6-1.6l-0.9-0.9l-1.6,1.6
	L18.57,113.53z M20.17,116.53l-0.9-0.9l-1.6,1.6l0.9,0.9L20.17,116.53z M19.97,60.52l0.9,0.9l1.6-1.6l-0.9-0.9L19.97,60.52z
	 M22.47,64.32l-0.9-0.9l-1.6,1.6l0.9,0.9L22.47,64.32z M22.47,68.82l-0.9-0.9l-1.6,1.6l0.9,0.9L22.47,68.82z M22.47,73.42l-0.9-0.9
	l-1.6,1.5l0.9,1L22.47,73.42z M22.47,77.93l-0.9-0.9l-1.6,1.6l0.9,0.9L22.47,77.93z M19.97,83.13l0.9,0.9l1.6-1.6l-0.9-0.9
	L19.97,83.13z M19.97,87.73l0.9,0.9l1.6-1.6l-0.9-0.9L19.97,87.73z M19.97,92.23l0.9,0.9l1.6-1.6l-0.9-0.9L19.97,92.23z
	 M19.97,96.73l0.9,0.9l1.6-1.5l-0.9-0.9L19.97,96.73z M19.97,101.33l0.9,0.9l1.6-1.6l-0.9-0.9L19.97,101.33z M19.97,105.83l0.9,0.9
	l1.6-1.6l-0.9-0.9L19.97,105.83z M19.97,110.43l0.9,0.9l1.6-1.6l-0.9-0.9L19.97,110.43z M19.97,114.93l0.9,0.9l1.6-1.6l-0.9-0.9
	L19.97,114.93z M20.87,120.33l1.6-1.6l-0.9-0.9l-1.6,1.6L20.87,120.33z M22.47,123.33l-0.9-0.9l-1.6,1.6l0.9,0.9L22.47,123.33z
	 M22.27,62.72l0.9,0.9l1.6-1.6l-0.9-0.9L22.27,62.72z M23.87,65.72l-1.6,1.6l0.9,0.9l1.6-1.6L23.87,65.72z M23.77,70.22l-1.5,1.6
	l0.9,0.9l1.6-1.6L23.77,70.22z M24.27,75.12l-0.5-0.4l-1.5,1.6l0.9,0.9l1.6-1.6L24.27,75.12z M22.27,80.82l0.9,0.9l1.5-1.5l-0.9-0.9
	L22.27,80.82z M22.27,85.43l0.9,0.9l1.5-1.6l-0.9-0.9L22.27,85.43z M22.27,89.93l0.9,0.9l1.5-1.6l-0.9-0.9L22.27,89.93z
	 M22.27,94.53l0.9,0.9l1.6-1.6l-1-0.9L22.27,94.53z M22.27,99.03l0.9,0.9l1.6-1.6l-1-0.9L22.27,99.03z M22.27,103.53l0.9,0.9
	l1.6-1.5l-0.9-0.9L22.27,103.53z M22.27,108.13l0.9,0.9l1.6-1.6l-0.9-0.9L22.27,108.13z M22.27,112.63l0.9,0.9l1.6-1.6l-0.9-0.9
	L22.27,112.63z M22.27,117.23l0.9,0.9l1.6-1.6l-0.9-0.9L22.27,117.23z M22.27,121.73l0.9,0.9l1.6-1.6l-0.7-0.6l-0.2-0.3
	L22.27,121.73z M23.17,127.13l1.6-1.6l-1-0.9l-1.5,1.6L23.17,127.13z M24.77,130.13l-1-0.9l-1.5,1.6l0.9,0.9L24.77,130.13z
	 M24.47,60.52l0.9,0.9l1.6-1.6l-0.9-0.9L24.47,60.52z M26.97,64.32l-0.9-0.9l-1.6,1.6l0.9,0.9L26.97,64.32z M26.97,68.82l-0.9-0.9
	l-1.6,1.6l0.9,0.9L26.97,68.82z M26.97,73.42l-0.6-0.7l-0.3-0.2l-1.6,1.5l0.9,0.9L26.97,73.42z M26.97,77.93l-0.9-0.9l-1.6,1.6
	l0.9,0.9L26.97,77.93z M26.97,82.43l-0.9-0.9l-1.6,1.6l0.9,0.9L26.97,82.43z M26.97,87.03l-0.9-0.9l-1.6,1.5l0.9,0.9L26.97,87.03z
	 M26.97,91.53l-0.9-0.9l-1.6,1.6l0.9,0.9L26.97,91.53z M24.47,96.73l0.9,0.9l1.6-1.6l-0.9-0.9L24.47,96.73z M24.47,101.33l0.9,0.9
	l1.6-1.6l-0.9-0.9L24.47,101.33z M24.47,105.83l0.9,0.9l1.6-1.6l-0.9-0.9L24.47,105.83z M24.47,110.33l0.9,0.9l1.6-1.5l-0.9-0.9
	L24.47,110.33z M24.47,114.93l0.9,0.9l1.6-1.6l-0.9-0.9L24.47,114.93z M24.47,119.43l0.9,0.9l1.6-1.6l-0.9-0.9L24.47,119.43z
	 M24.47,124.03l0.9,0.9l1.6-1.6l-0.9-0.9L24.47,124.03z M24.47,128.53l0.9,0.9l1.6-1.6l-0.9-0.9L24.47,128.53z M25.37,133.93
	l1.6-1.6l-0.9-0.9l-1.6,1.6L25.37,133.93z M26.97,136.93l-0.9-0.9l-1.6,1.6l0.9,0.9L26.97,136.93z M26.77,62.72l0.9,0.9l1.6-1.6
	l-0.9-0.9L26.77,62.72z M28.37,65.72l-1.6,1.5l0.9,1l1.6-1.6L28.37,65.72z M29.27,71.12l-0.9-0.9l-1.6,1.6l0.9,0.9L29.27,71.12z
	 M29.27,75.62l-0.9-0.9l-1.6,1.6l0.9,0.9L29.27,75.62z M29.27,80.23l-0.9-0.9l-1.6,1.5l0.9,1L29.27,80.23z M29.27,84.73l-0.9-0.9
	l-1.6,1.6l0.9,0.9L29.27,84.73z M29.27,89.23l-0.9-0.9l-1.6,1.6l0.9,0.9L29.27,89.23z M29.27,93.83l-0.9-0.9l-1.6,1.6l0.9,0.9
	L29.27,93.83z M29.27,98.33l-0.9-0.9l-1.6,1.6l0.9,0.9L29.27,98.33z M29.27,102.83l-0.9-0.9l-1.6,1.6l0.9,0.9L29.27,102.83z
	 M29.27,107.43l-0.9-0.9l-1.6,1.6l0.9,0.9L29.27,107.43z M29.27,111.93l-0.9-0.9l-1.6,1.6l0.9,0.9L29.27,111.93z M26.77,117.13
	l0.9,0.9l1.6-1.5l-0.9-0.9L26.77,117.13z M26.77,121.73l0.9,0.9l1.6-1.6l-0.9-0.9L26.77,121.73z M26.77,126.23l0.9,0.9l1.6-1.6
	l-0.9-0.9L26.77,126.23z M26.77,130.83l0.9,0.9l1.6-1.6l-0.9-0.9L26.77,130.83z M26.77,135.33l0.9,0.9l1.6-1.6l-0.9-0.9
	L26.77,135.33z M27.67,140.73l1.6-1.5l-0.9-1l-1.6,1.6L27.67,140.73z M29.27,143.73l-0.9-0.9l-1.6,1.6l0.9,0.9L29.27,143.73z
	 M29.07,60.52l0.9,0.9l1.6-1.6l-0.9-0.9L29.07,60.52z M31.57,64.32l-0.9-0.9l-1.6,1.6l0.9,0.9L31.57,64.32z M31.57,68.82l-0.9-0.9
	l-1.6,1.6l0.9,0.9L31.57,68.82z M31.57,73.42l-0.9-0.9l-1.6,1.6l0.9,0.9L31.57,73.42z M31.57,77.93l-0.9-0.9l-1.6,1.6l0.9,0.9
	L31.57,77.93z M31.57,82.43l-0.9-0.9l-1.6,1.6l0.9,0.9L31.57,82.43z M31.57,87.03l-0.9-0.9l-1.6,1.6l0.9,0.9L31.57,87.03z
	 M31.57,91.53l-0.9-0.9l-1.6,1.6l0.9,0.9L31.57,91.53z M31.57,96.03l-0.9-0.9l-1.6,1.6l0.9,0.9L31.57,96.03z M31.57,100.63l-0.9-0.9
	l-1.6,1.6l0.9,0.9L31.57,100.63z M31.57,105.13l-0.9-0.9l-1.6,1.6l0.9,0.9L31.57,105.13z M31.57,109.73l-0.9-0.9l-1.6,1.5l0.9,0.9
	L31.57,109.73z M31.57,114.23l-0.9-0.9l-1.6,1.6l0.9,0.9L31.57,114.23z M31.57,118.73l-1-0.9l-1.5,1.6l0.9,0.9L31.57,118.73z
	 M31.57,123.33l-1-1l-1.5,1.6l0.9,0.9L31.57,123.33z M31.57,127.83l-0.9-0.9l-1.6,1.6l0.9,0.9L31.57,127.83z M29.07,133.03l0.9,0.9
	l1.6-1.6l-0.9-0.9L29.07,133.03z M29.07,137.63l0.9,0.9l1.6-1.6l-0.9-0.9L29.07,137.63z M29.07,142.13l0.9,0.9l1.6-1.6l-0.9-0.9
	L29.07,142.13z M29.97,147.53l1.5-1.5l-0.9-0.9l-1.5,1.5L29.97,147.53z M31.47,150.53l-0.9-0.9l-1.5,1.6l0.9,0.9L31.47,150.53z
	 M31.27,62.72l1,0.9l1.5-1.6l-0.9-0.9L31.27,62.72z M32.87,65.72l-1.6,1.6l0.9,0.9l1.6-1.6L32.87,65.72z M32.17,72.72l1.6-1.6
	l-0.9-0.9l-1.6,1.6L32.17,72.72z M33.77,75.62l-0.9-0.9l-1.6,1.6l0.9,0.9L33.77,75.62z M32.87,79.32l-1.6,1.6l0.9,0.9l1.6-1.6
	L32.87,79.32z M33.77,84.73l-0.9-0.9l-1.6,1.6l0.9,0.9L33.77,84.73z M32.87,88.33l-1.6,1.6l0.9,0.9l1.6-1.5L32.87,88.33z
	 M32.87,92.93l-1.6,1.6l0.9,0.9l1.6-1.6L32.87,92.93z M33.77,98.33l-0.9-0.9l-1.6,1.6l0.9,0.9L33.77,98.33z M32.87,102.03l-1.6,1.5
	l0.9,0.9l1.6-1.5L32.87,102.03z M32.87,106.53l-1.6,1.6l0.9,0.9l1.6-1.6L32.87,106.53z M33.77,111.93l-0.9-0.9l-1.6,1.6l0.9,0.9h0.1
	L33.77,111.93z M32.87,115.63l-1.6,1.6l0.9,0.9l1.6-1.6L32.87,115.63z M32.87,120.13l-1.6,1.6l0.9,0.9l1.6-1.6L32.87,120.13z
	 M33.77,125.53l-0.9-0.9l-1.6,1.6l0.9,0.9L33.77,125.53z M32.87,129.23l-1.6,1.6l0.9,0.9l1.6-1.6L32.87,129.23z M33.77,134.63
	l-0.9-0.9l-1.6,1.6l0.9,0.9L33.77,134.63z M32.87,138.23l-1.6,1.6l0.9,0.9l1.6-1.6L32.87,138.23z M32.87,142.83l-1.6,1.6l0.9,0.9
	l1.6-1.6L32.87,142.83z M33.77,148.23l-0.9-0.9l-1.6,1.6l0.9,0.9L33.77,148.23z M32.17,154.33l1.6-1.5l-0.9-0.9l-1.6,1.5
	L32.17,154.33z M32.17,158.93l1.6-1.6l-0.9-0.9l-1.6,1.6L32.17,158.93z M33.77,161.83l-0.9-0.9l-1.6,1.6l0.9,0.9L33.77,161.83z
	 M33.57,60.52l0.9,0.9l1.6-1.6l-0.9-0.9L33.57,60.52z M33.57,69.52l0.9,0.9l1.6-1.5l-0.9-1L33.57,69.52z M35.17,72.53l-1.6,1.6
	l0.9,0.9l1.6-1.6L35.17,72.53z M33.57,83.13l0.9,0.9l1.6-1.5l-0.9-0.9L33.57,83.13z M33.57,96.73l0.9,1l1.6-1.6l-0.9-0.9
	L33.57,96.73z M33.57,110.43l0.9,0.9l1.6-1.6l-0.9-0.9L33.57,110.43z M33.57,124.03l0.9,0.9l1.6-1.6l-0.9-0.9L33.57,124.03z
	 M33.57,133.03l0.9,0.9l1.6-1.5l-0.9-1L33.57,133.03z M33.57,146.63l0.9,1l1.6-1.6l-0.9-0.9L33.57,146.63z M44.87,171.53l-8.4,8.5
	l-0.7-2.1l0.3-0.2l27.6-27.7l0.7,2.1L44.87,171.53z M37.47,183.53l-0.6-2l27.9-28l0.6,2.1L37.47,183.53z M38.57,187.03l-0.7-2.1
	l10.1-10l0.1-0.2l17.7-17.7l0.7,2.1L38.57,187.03z M39.57,190.53l-0.6-2.1l27.9-27.9l0.6,2.1L39.57,190.53z M68.57,166.13l-28,27.9
	l-0.6-2.1l12.7-12.6l15.2-15.3L68.57,166.13z M41.67,197.53l-0.6-2.1l27.9-27.9l0.6,2.1L41.67,197.53z M42.07,198.93l27.9-27.9
	l0.6,2.1l-27.9,27.9L42.07,198.93z M43.07,202.43l16.2-16.2l0.2-0.1l11.6-11.6l0.6,2.1l-27.9,27.9L43.07,202.43z M99.98,207.53
	l-0.8,2.8l-24.9-24.9l0.4,1.3l24.3,24.3l-0.8,2.8l-22.8-22.8l-0.4,0.5l0.9,0.9l0.4-0.4l0.3,1.1l21.4,21.4l-0.9,2.8l-19.4-19.5
	l-0.5,0.5l0.9,0.9l0.3-0.2l0.2,0.6l18.3,18.4l-0.8,2.8l-16.1-16.2l-0.5,0.5l0.9,0.9l0.1-0.1v0.2l15.4,15.3l-0.9,2.8l-12.9-12.9v0.2
	l-0.3,0.4l13,13l-0.8,2.8l-10-9.9l0.2,0.7l-0.2,0.2l9.8,9.7l-0.9,2.8l-6.9-7l0.3,1.3l6.4,6.4l-0.8,2.8l-4-4l0.4,1.3l2.8,2.8l0.1,0.2
	l0.5,0.4l-0.9,2.8l-1.8-1.8l-0.4,0.4l0.2,0.3l0.7,0.6l0.4-0.4l0.3,1.2l0.4,0.4l-0.1,0.5h-3l-0.7-0.7l-0.5,0.4l0.3,0.3h-3.7l-0.7-0.7
	l-0.4,0.4l0.2,0.3h-3.6l-0.7-0.7l-0.5,0.4l0.3,0.3h-3.6l-0.7-0.8l-0.5,0.5l0.3,0.3h-3.7l-0.7-0.8l-0.4,0.5l0.2,0.3h-3.6l-0.7-0.8
	l-0.5,0.5l0.3,0.2h-3.6l-0.7-0.7l-0.5,0.5l0.3,0.2h-3.7l-0.7-0.7l-0.4,0.5l0.2,0.2h-0.6l-0.6-2l1.7-1.7l0.1-0.2l0.1,0.1l0.4-0.5
	l-0.3-0.3l0.5-1.7l-2.9,2.9l-0.6-2.1l4.7-4.7l0.2-0.7l0.2,0.3l0.5-0.5l-0.5-0.5l0.4-1.2l-5.9,5.9l-0.7-2.1l3.3-3.2l0.1-0.2l4.3-4.3
	l0.4-1.2l0.4,0.5l0.5-0.5l-0.7-0.7l0.2-0.7l-8.9,8.9l-0.6-2l2-2.1l0.2-0.1l8.5-8.6l0.5-1.6l0.6,0.5l0.4-0.4l-0.8-0.8l0.1-0.2
	l-11.9,11.9l-0.7-2.1l13.7-13.7l0.7-2.2l0.7,0.7l0.5-0.4l-0.9-0.9l-15.1,15.1l-0.6-2.1l16.7-16.7l0.8-2.6l0.9,0.9l0.4-0.5l-0.9-0.9
	l-0.4,0.5l-17.9,17.9l-0.7-2.1l20-20l-0.2-0.1l0.7-2.2l-20.9,20.9l-0.6-2.1l22.7-22.7v-0.2l0.1,0.1l0.4-0.5l-0.3-0.3l0.6-1.7
	l-23.9,23.9l-0.6-2.1l18.6-18.6l7-7.1l0.2-0.6l0.3,0.2l0.4-0.5l-0.5-0.4l0.4-1.3l-26.9,26.9l-0.6-2.1l27.9-27.9l0.6,2.1
	L99.98,207.53z M58.17,232.83l-0.9-0.9l-0.5,0.4l0.9,0.9L58.17,232.83z M58.17,237.33l-0.9-0.9l-0.5,0.4l0.9,1L58.17,237.33z
	 M60.37,226.03l-0.9-0.9l-0.4,0.4l0.9,0.9L60.37,226.03z M60.37,230.53l-0.9-0.9l-0.4,0.4l0.9,1L60.37,230.53z M60.37,235.03
	l-0.9-0.9l-0.4,0.5l0.9,0.9L60.37,235.03z M62.67,219.23l-0.9-0.9l-0.5,0.4l0.3,0.2l0.7,0.7L62.67,219.23z M62.67,223.73l-0.9-0.9
	l-0.5,0.4l1,0.9L62.67,223.73z M62.67,228.23l-0.9-0.9l-0.5,0.5l1,0.9L62.67,228.23z M62.67,232.83l-0.9-0.9l-0.5,0.4l1,0.9
	L62.67,232.83z M62.67,237.33l-0.9-0.9l-0.5,0.4l1,1L62.67,237.33z M64.97,212.43l-0.9-1l-0.5,0.5l0.9,0.9L64.97,212.43z
	 M64.97,216.93l-0.9-0.9l-0.5,0.4l0.9,0.9L64.97,216.93z M64.97,221.43l-0.9-0.9l-0.5,0.5l0.9,0.9L64.97,221.43z M64.97,226.03
	l-0.9-0.9l-0.5,0.4l0.9,0.9L64.97,226.03z M64.97,230.53l-0.9-0.9l-0.5,0.4l0.9,1L64.97,230.53z M64.97,235.03l-0.9-0.9l-0.5,0.5
	l0.9,0.9L64.97,235.03z M67.17,205.53l-0.9-0.9l-0.4,0.5l0.9,0.9L67.17,205.53z M67.17,210.13l-0.9-0.9l-0.4,0.4l0.9,0.9
	L67.17,210.13z M67.17,214.63l-0.9-0.9l-0.4,0.5l0.9,0.9L67.17,214.63z M67.17,219.23l-0.9-1l-0.4,0.5l0.9,0.9L67.17,219.23z
	 M67.17,223.73l-0.9-0.9l-0.4,0.4l0.9,0.9L67.17,223.73z M67.17,228.23l-0.9-0.9l-0.4,0.5l0.9,0.9L67.17,228.23z M67.17,232.83
	l-0.9-0.9l-0.4,0.4l0.9,0.9L67.17,232.83z M67.17,237.33l-0.9-0.9l-0.4,0.4l0.9,1L67.17,237.33z M69.47,194.23l-0.9-0.9l-0.4,0.5
	l0.9,0.9L69.47,194.23z M69.47,198.73l-0.9-0.9l-0.4,0.5l0.9,0.9L69.47,198.73z M69.47,203.33l-0.9-0.9l-0.4,0.4l0.9,0.9
	L69.47,203.33z M69.47,207.83l-0.9-0.9l-0.4,0.5l0.9,0.9L69.47,207.83z M69.47,212.43l-0.6-0.7l-0.3-0.2l-0.4,0.4l0.2,0.3l0.2,0.1
	l0.5,0.5L69.47,212.43z M69.47,216.93l-0.9-0.9l-0.4,0.4l0.9,0.9L69.47,216.93z M69.47,221.43l-0.9-0.9l-0.4,0.5l0.9,0.9
	L69.47,221.43z M69.47,226.03l-0.9-0.9l-0.4,0.4l0.9,0.9L69.47,226.03z M69.47,230.53l-0.9-0.9l-0.4,0.5l0.9,0.9L69.47,230.53z
	 M69.47,235.03l-0.9-0.9l-0.4,0.5l0.9,0.9L69.47,235.03z M71.77,187.43l-0.9-0.9l-0.5,0.5l0.9,0.9L71.77,187.43z M71.77,192.03
	l-0.9-1l-0.5,0.5l0.9,0.9L71.77,192.03z M71.77,196.53l-0.9-0.9l-0.5,0.4l0.9,0.9L71.77,196.53z M71.77,201.03l-0.9-0.9l-0.5,0.5
	l0.9,0.9L71.77,201.03z M71.77,205.63l-0.9-0.9l-0.5,0.4l0.9,0.9L71.77,205.63z M71.77,210.13l-0.9-0.9l-0.5,0.4l0.9,0.9
	L71.77,210.13z M71.77,214.63l-0.9-0.9l-0.5,0.5l0.9,0.9L71.77,214.63z M71.77,219.23l-0.9-0.9l-0.5,0.4l0.9,0.9L71.77,219.23z
	 M71.77,223.73l-0.9-0.9l-0.5,0.4l0.9,1L71.77,223.73z M71.77,228.23l-0.9-0.9l-0.5,0.5l0.9,0.9L71.77,228.23z M71.77,232.83
	l-0.9-0.9l-0.5,0.4l0.9,0.9L71.77,232.83z M71.77,237.33l-0.9-0.9l-0.5,0.5l0.9,0.9L71.77,237.33z M100.28,206.83l-27.9-27.9
	l0.8-2.8l27.9,27.9L100.28,206.83z M72.67,184.73l0.9,0.9l0.4-0.5l-0.9-0.9L72.67,184.73z M72.67,189.23l0.9,0.9l0.4-0.4l-0.9-0.9
	L72.67,189.23z M72.67,193.73l0.9,0.9l0.4-0.4l-0.9-0.9L72.67,193.73z M74.07,198.73l-1-0.9l-0.4,0.5l0.9,0.9L74.07,198.73z
	 M74.07,203.33l-1-0.9l-0.4,0.4l0.9,0.9L74.07,203.33z M73.07,207.83l0.5,0.5l0.4-0.5l-0.9-0.9l-0.4,0.4L73.07,207.83z
	 M72.67,211.93l0.9,0.9l0.4-0.5l-0.9-0.9L72.67,211.93z M74.07,216.93l-1-0.9l-0.4,0.4l0.9,0.9L74.07,216.93z M74.07,221.43l-1-0.9
	l-0.4,0.5l0.9,0.9L74.07,221.43z M74.07,225.93l-1-0.9l-0.4,0.5l0.9,0.9L74.07,225.93z M74.07,230.53l-1-0.9l-0.4,0.4l0.9,0.9
	L74.07,230.53z M74.07,235.03l-1-0.9l-0.4,0.5l0.9,0.9L74.07,235.03z M74.27,172.63l27.9,27.9l-0.9,2.8l-12-12.1l-15.9-15.8
	L74.27,172.63z M102.38,199.83l-27.9-27.9l0.8-2.8l27.9,27.9L102.38,199.83z M74.97,196.03l0.9,0.9l0.4-0.4l-0.9-0.9L74.97,196.03z
	 M74.97,200.63l0.9,0.9l0.4-0.5l-0.9-0.9L74.97,200.63z M74.97,205.13l0.9,0.9l0.4-0.5l-0.9-0.9L74.97,205.13z M74.97,209.63
	l0.9,0.9l0.4-0.4l-0.9-0.9L74.97,209.63z M74.97,214.23l0.9,0.9l0.4-0.5l-0.9-0.9L74.97,214.23z M74.97,218.73l0.9,0.9l0.4-0.4
	l-0.9-1L74.97,218.73z M74.97,223.23l0.9,0.9l0.4-0.4l-0.9-0.9L74.97,223.23z M74.97,227.83l0.9,0.9l0.4-0.5l-0.9-0.9L74.97,227.83z
	 M74.97,232.33l0.9,0.9l0.4-0.4l-0.9-0.9L74.97,232.33z M74.97,236.83l0.9,1l0.4-0.5l-0.9-0.9L74.97,236.83z M95.78,185.13l8.5,8.4
	l-0.9,2.8l-27.9-27.9l0.9-2.8l19.3,19.3L95.78,185.13z M105.28,190.03l-0.8,2.8l-27.9-27.9l0.8-2.8L105.28,190.03z M77.17,202.83
	l0.9,0.9l0.5-0.4l-0.9-0.9L77.17,202.83z M77.17,207.43l0.9,0.9l0.5-0.5l-0.9-0.9L77.17,207.43z M77.17,211.93l0.9,0.9l0.5-0.4
	l-0.9-1L77.17,211.93z M77.17,216.43l0.9,0.9l0.5-0.4l-0.9-0.9L77.17,216.43z M77.17,221.03l0.9,0.9l0.5-0.5l-0.9-0.9L77.17,221.03z
	 M77.17,225.53l0.9,0.9l0.5-0.4l-0.9-0.9L77.17,225.53z M77.17,230.03l0.9,1l0.5-0.5l-0.9-0.9L77.17,230.03z M77.17,234.63l0.9,0.9
	l0.5-0.5l-0.9-0.9L77.17,234.63z M106.38,186.53l-0.9,2.8l-27.9-27.9l0.9-2.8L106.38,186.53z M107.38,183.03l-0.8,2.8l-5.8-5.7
	l-22.1-22.2l0.8-2.8l0.4,0.5L107.38,183.03z M79.47,209.63l0.9,0.9l0.5-0.4l-1-0.9L79.47,209.63z M79.47,214.23l0.9,0.9l0.5-0.5
	l-1-0.9L79.47,214.23z M79.47,218.73l0.9,0.9l0.5-0.4l-0.9-0.9L79.47,218.73z M79.47,223.23l0.9,0.9l0.5-0.4l-0.9-0.9L79.47,223.23z
	 M79.47,227.83l0.9,0.9l0.5-0.5l-0.9-0.9L79.47,227.83z M79.47,232.33l0.9,0.9l0.5-0.4l-0.9-0.9L79.47,232.33z M79.47,236.93
	l0.9,0.9l0.5-0.5l-1-0.9L79.47,236.93z M107.58,182.33l-27.9-27.9l0.8-2.8l28,28L107.58,182.33z M142.98,64.52l-0.8,2.5l2.8-2.7v2.7
	l-4.2,4.2l0.1,0.2l-0.6,2.1l4.7-4.7v2.8l-5.9,5.8l-0.1,0.2l-0.5,0.4l0.3,0.3l-0.5,1.7l6.7-6.6v2.7l-7.8,7.8l-0.3,0.7l-0.2-0.2
	l-0.5,0.4l0.5,0.5l-0.3,1.2l8.6-8.6v2.7l-9.8,9.8l-0.4,1.2l-0.4-0.4l-0.4,0.4l0.6,0.7l-0.2,0.7l10.6-10.6v2.8l-11.7,11.6l-0.6,1.8
	l-0.6-0.6l-0.4,0.4l0.8,0.9v0.1l10.9-10.9l1.6-1.5v2.7l-13.7,13.6l-0.6,2.2l-0.8-0.7l-0.5,0.4l0.9,0.9l14.7-14.6v2.7l-15.6,15.6
	l-0.8,2.6l16.4-16.4v2.8l-17.8,17.8l0.1,0.1l-0.6,2.2l0.8-0.9l17.5-17.4v2.7l-19.5,19.5l-0.1,0.2l-0.1-0.1l-0.4,0.5l0.3,0.3
	l-0.5,1.7l20.3-20.3v2.7l-21.5,21.4l-0.2,0.8l-0.2-0.3l-0.5,0.5l0.5,0.5l-0.3,1.1l22.2-22.2v2.8l-23.4,23.3l-0.4,1.2l-0.4-0.4
	l-0.4,0.5l0.6,0.6l-0.2,0.7l24.2-24.1v2.7l-25.3,25.3l-0.6,1.7l-0.6-0.6l-0.4,0.5l0.8,0.8v0.2l26.1-26.1v2.7l-27.3,27.3l-0.7,2.2
	l-0.7-0.8l-0.5,0.5l0.9,0.9l28.3-28.3v2.8l-29.2,29.2l-0.8,2.6l26-26l0.1-0.2l3.9-3.8v2.7l-31.5,31.4l0.2,0.2l-0.7,2.1l30.4-30.3
	l1.5-1.6v2.7l-33,33.1l-0.1,0.2h-0.1l-0.4,0.4l0.3,0.3l-0.5,1.7l33.8-33.8v2.7l-35,35l-0.2,0.7l-0.2-0.2l-0.5,0.4l0.5,0.5l-0.4,1.2
	l35.8-35.8v2.7l-36.2,36.3v-1.6l-27.9-27.9l0.8-2.8l25.5,25.6l1.6,1.5v-0.9l-26.9-26.9l0.8-2.8l26.1,26v-0.9l-25.9-25.8l0.9-2.8
	l25,25v-0.9l-19.3-19.2l-5.5-5.6l0.8-2.8l24,24v-0.9l-23.8-23.8l0.9-2.8l7.7,7.8l15.2,15.1v-0.9l-22.7-22.7l0.8-2.7l9,8.9l12.9,12.9
	v-0.9l-12.6-12.6l-9.1-9l0.9-2.8l20.8,20.8v-1l-20.6-20.5l0.8-2.8l19.8,19.7v-0.9l-8.1-8l-11.5-11.5l0.9-2.8l18.7,18.7v-0.9
	l-18.5-18.5l0.8-2.8l17.7,17.7v-1l-17.5-17.4l0.9-2.8l16.6,16.6v-0.9l-16.4-16.4l0.8-2.8l15.6,15.6v-0.9l-15.4-15.4l0.9-2.8
	l14.5,14.5v-0.9l-14.3-14.3l0.8-2.8l13.5,13.5v-0.9l-13.3-13.3l0.8-2.7l12.5,12.4v-0.9l-12.2-12.2l0.8-2.8l11.4,11.3v-0.9
	l-11.2-11.1l0.8-2.8l10.4,10.3v-0.9l-10.1-10.1l0.8-2.8l9.3,9.3v-0.9l-9.1-9.1l0.8-2.8l8.3,8.2v-0.9l-5.6-5.6l-0.2-0.1l-2.3-2.3
	l0.9-2.8l3.2,3.3l0.2,0.1l3.8,3.8v-0.9l-7-7l0.8-2.8l6.2,6.2v-0.9l-6-6l0.9-2.8l5.1,5.1v-0.9l-4.9-4.9l0.8-2.7l4.1,4v-0.9l-3.9-3.8
	l0.9-2.8l3,3v-0.9l-2.8-2.8l0.8-2.8l2,1.9v-0.9l-1.8-1.7l0.9-2.8l0.9,0.9v-0.9l-0.7-0.7l0.7-2.3h0.6l0.6,0.6l0.5-0.4l-0.2-0.2h3.6
	l0.7,0.6l0.4-0.4l-0.2-0.2h3.7l0.6,0.6l0.4-0.4l-0.1-0.2h3.6l0.6,0.6l0.5-0.4l-0.2-0.2h3.6l0.7,0.6l0.4-0.4l-0.2-0.2h3.7l0.6,0.6
	l0.4-0.4l-0.1-0.2h3.6l0.6,0.6l0.5-0.4l-0.2-0.2h3.6l0.7,0.6l0.4-0.4l-0.2-0.2h3v0.1l-0.6,2.2l-0.8-0.8l-0.5,0.5l0.9,0.9l1.1-1v2.7
	L142.98,64.52z M81.77,216.43l0.9,0.9l0.4-0.4l-0.9-0.9L81.77,216.43z M81.77,221.03l0.9,0.9l0.4-0.5l-0.9-0.9L81.77,221.03z
	 M81.77,225.53l0.9,0.9l0.4-0.4l-0.9-0.9L81.77,225.53z M81.77,230.13l0.9,0.9l0.4-0.5l-0.9-0.9L81.77,230.13z M81.77,234.63
	l0.9,0.9l0.4-0.5l-0.9-0.9L81.77,234.63z M83.97,223.23l0.9,1l0.5-0.5l-0.9-0.9L83.97,223.23z M83.97,227.83l0.9,0.9l0.5-0.5
	l-0.9-0.9L83.97,227.83z M83.97,232.33l0.9,0.9l0.5-0.4l-0.9-0.9L83.97,232.33z M83.97,236.93l0.9,0.9l0.5-0.5l-0.9-0.9
	L83.97,236.93z M86.27,230.13l0.9,0.9l0.5-0.5l-0.9-0.9L86.27,230.13z M86.27,234.63l0.9,0.9l0.5-0.5l-0.9-0.9L86.27,234.63z
	 M128.88,164.83l-0.2,0.1l-20,20.1v-2.8l36.2-36.2v2.7L128.88,164.83z M108.68,186.83l20.9-21h0.1l15.2-15.3v2.7l-36.2,36.3V186.83z
	 M108.68,191.33l36.2-36.3v2.8l-36.2,36.2V191.33z M134.28,170.23l10.7-10.6v2.7l-36.3,36.3v-2.7L134.28,170.23z M115.08,196.73
	l-6.4,6.4v-2.7l5-5.1l0.2-0.1l22.7-22.7l8.3-8.4v2.7l-29.7,29.7L115.08,196.73z M144.98,171.43l-4.8,4.7l-31.5,31.6v-2.8l36.3-36.3
	V171.43z M108.68,212.23v-2.7l9.6-9.7l26.6-26.6v2.7L108.68,212.23z M108.68,214.03l36.2-36.3v2.7l-36.2,36.3V214.03z
	 M108.68,218.53l36.2-36.3v2.8l-20.6,20.6l-0.1,0.2l-15.5,15.5V218.53z M144.98,186.83v2.7l-18.4,18.4l-0.2,0.1l-17.7,17.8v-2.7
	l16.5-16.6L144.98,186.83z M144.98,191.33v2.7l-36.3,36.3v-2.7L144.98,191.33z M144.98,198.63l-36.3,36.3v-2.8l36.3-36.3V198.63z
	 M144.98,200.43v2.7l-34.3,34.2l-1.9,2h-0.1v-2.6l0.5-0.6L144.98,200.43z M110.38,62.62l-0.9-0.9l-0.5,0.4l0.9,0.9L110.38,62.62z
	 M110.38,67.12l-0.9-0.9l-0.5,0.5l0.9,0.9L110.38,67.12z M110.38,71.72l-0.9-0.9l-0.5,0.4l0.9,0.9L110.38,71.72z M110.38,76.23
	l-0.9-0.9l-0.5,0.4l0.9,1L110.38,76.23z M110.38,80.73l-0.9-0.9l-0.5,0.5l0.3,0.2l0.6,0.7L110.38,80.73z M110.38,85.33l-0.9-0.9
	l-0.5,0.4l0.9,0.9L110.38,85.33z M110.38,89.83l-0.9-0.9l-0.5,0.5l0.9,0.9L110.38,89.83z M110.38,94.33l-0.9-0.9l-0.5,0.5l0.9,0.9
	L110.38,94.33z M110.38,98.93l-0.9-0.9l-0.5,0.4l0.9,0.9L110.38,98.93z M110.38,103.43l-0.9-0.9l-0.5,0.5l0.9,0.9L110.38,103.43z
	 M110.38,108.03l-0.9-1l-0.5,0.5l0.9,0.9L110.38,108.03z M110.38,112.53l-0.9-0.9l-0.5,0.4l0.9,0.9L110.38,112.53z M110.38,117.03
	l-0.9-0.9l-0.5,0.5l0.9,0.9L110.38,117.03z M110.38,121.63l-0.9-0.9l-0.5,0.4l0.9,0.9L110.38,121.63z M110.38,126.13l-0.9-0.9
	l-0.5,0.4l0.3,0.3l0.6,0.7L110.38,126.13z M110.38,130.63l-0.9-0.9l-0.5,0.5l0.9,0.9L110.38,130.63z M110.38,135.23l-0.9-0.9
	l-0.5,0.4l0.9,0.9L110.38,135.23z M110.38,139.73l-0.9-0.9l-0.5,0.5l0.9,0.9L110.38,139.73z M110.38,144.23l-0.9-0.9l-0.5,0.5
	l0.9,0.9L110.38,144.23z M110.38,148.83l-0.9-0.9l-0.5,0.4l0.9,0.9L110.38,148.83z M110.38,153.33l-0.9-0.9l-0.5,0.5l0.9,0.9
	L110.38,153.33z M110.38,157.93l-0.9-1l-0.5,0.5l0.9,0.9L110.38,157.93z M110.38,162.43l-0.9-0.9l-0.5,0.4l0.9,0.9L110.38,162.43z
	 M110.38,166.93l-0.9-0.9l-0.5,0.5l0.9,0.9L110.38,166.93z M110.38,171.53l-0.9-0.9l-0.5,0.4l0.9,0.9L110.38,171.53z M144.98,207.63
	l-31.7,31.7h-2.7l34.4-34.4V207.63z M112.58,60.32l-0.9-0.9l-0.4,0.5l0.9,0.9L112.58,60.32z M112.58,64.92l-0.9-0.9l-0.4,0.4
	l0.9,0.9L112.58,64.92z M112.58,69.42l-0.9-0.9l-0.4,0.4l0.9,1L112.58,69.42z M112.58,73.92l-0.9-0.9l-0.4,0.5l0.9,0.9L112.58,73.92
	z M112.58,78.53l-0.9-0.9l-0.4,0.4l0.9,0.9L112.58,78.53z M112.58,83.03l-0.9-0.9l-0.4,0.5l0.9,0.9L112.58,83.03z M112.58,87.53
	l-0.9-0.9l-0.4,0.5l0.9,0.9L112.58,87.53z M112.58,92.13l-0.9-0.9l-0.4,0.4l0.9,0.9L112.58,92.13z M112.58,96.63l-0.9-0.9l-0.4,0.5
	l0.9,0.9L112.58,96.63z M112.58,101.23l-0.9-0.9l-0.4,0.4l0.9,0.9L112.58,101.23z M112.58,105.73l-0.9-0.9l-0.4,0.4l0.9,0.9
	L112.58,105.73z M112.58,110.23l-0.9-0.9l-0.4,0.5l0.9,0.9L112.58,110.23z M112.58,114.83l-0.9-0.9l-0.4,0.4l0.9,0.9L112.58,114.83z
	 M112.58,119.33l-0.9-0.9l-0.4,0.4l0.9,1L112.58,119.33z M112.58,123.83l-0.9-0.9l-0.4,0.5l0.9,0.9L112.58,123.83z M112.58,128.43
	l-0.9-0.9l-0.4,0.4l0.9,0.9L112.58,128.43z M112.58,132.93l-0.9-0.9l-0.4,0.4l0.9,1L112.58,132.93z M112.58,137.43l-0.9-0.9
	l-0.4,0.5l0.9,0.9L112.58,137.43z M112.58,142.03l-0.9-0.9l-0.4,0.4l0.9,0.9L112.58,142.03z M112.58,146.53l-0.9-0.9l-0.4,0.5
	l0.9,0.9L112.58,146.53z M112.58,151.03l-0.9-0.9l-0.4,0.5l0.9,0.9L112.58,151.03z M112.58,155.63l-0.9-0.9l-0.4,0.4l0.9,0.9
	L112.58,155.63z M112.58,160.13l-0.9-0.9l-0.4,0.5l0.9,0.9L112.58,160.13z M112.58,164.73l-0.9-0.9l-0.4,0.4l0.9,0.9L112.58,164.73z
	 M114.88,62.62l-0.9-0.9l-0.5,0.5l1,0.9L114.88,62.62z M114.88,67.12l-0.9-0.9l-0.5,0.5l1,0.9L114.88,67.12z M114.88,71.72l-0.9-0.9
	l-0.5,0.4l1,0.9L114.88,71.72z M114.88,76.23l-0.9-0.9l-0.5,0.5l1,0.9L114.88,76.23z M114.88,80.82l-0.9-1l-0.5,0.5l1,0.9
	L114.88,80.82z M114.88,85.33l-0.9-0.9l-0.5,0.4l1,0.9L114.88,85.33z M114.88,89.83l-0.9-0.9l-0.5,0.5l1,0.9L114.88,89.83z
	 M114.88,94.43l-0.9-0.9l-0.5,0.4l1,0.9L114.88,94.43z M114.88,103.43l-0.9-0.9l-0.5,0.5l1,0.9L114.88,103.43z M114.88,108.03
	l-0.9-0.9l-0.5,0.4l1,0.9L114.88,108.03z M114.88,112.53l-0.9-0.9l-0.5,0.4l1,0.9L114.88,112.53z M114.88,135.23l-0.9-0.9l-0.5,0.4
	l1,0.9L114.88,135.23z M114.88,139.73l-0.9-0.9l-0.5,0.5l1,0.9L114.88,139.73z M114.88,144.33l-0.9-0.9l-0.5,0.4l1,0.9
	L114.88,144.33z M114.88,148.83l-0.9-0.9l-0.5,0.4l1,1L114.88,148.83z M114.88,153.33l-0.9-0.9l-0.5,0.5l1,0.9L114.88,153.33z
	 M114.88,157.93l-0.9-0.9l-0.5,0.4l1,0.9L114.88,157.93z M114.88,98.93l-0.9-0.9l-0.4,0.4l0.9,0.9L114.88,98.93z M114.88,117.03
	l-0.9-0.9l-0.4,0.5l0.9,0.9L114.88,117.03z M114.88,121.63l-0.5-0.5l-0.1-0.2l-0.3-0.2l-0.4,0.4l0.9,0.9L114.88,121.63z
	 M114.88,126.13l-0.9-0.9l-0.4,0.5l0.9,0.9L114.88,126.13z M114.88,130.63l-0.9-0.9l-0.4,0.5l0.9,0.9L114.88,130.63z M115.08,239.33
	l29.9-29.8v2.7l-27.2,27.1H115.08z M117.18,60.32l-0.9-0.9l-0.5,0.5l0.9,0.9L117.18,60.32z M117.18,64.92l-0.9-0.9l-0.5,0.4l0.9,0.9
	L117.18,64.92z M117.18,69.42l-0.9-0.9l-0.5,0.5l0.9,0.9L117.18,69.42z M117.18,74.03l-0.7-0.7l-0.2-0.3l-0.5,0.5l0.9,0.9
	L117.18,74.03z M117.18,78.53l-0.9-0.9l-0.5,0.4l0.9,0.9L117.18,78.53z M117.18,83.03l-0.9-0.9l-0.5,0.5l0.9,0.9L117.18,83.03z
	 M117.18,87.63l-0.9-0.9l-0.5,0.4l0.9,0.9L117.18,87.63z M117.18,92.13l-0.9-0.9l-0.5,0.4l0.9,1L117.18,92.13z M117.18,96.63
	l-0.9-0.9l-0.5,0.5l0.9,0.9L117.18,96.63z M117.18,101.23l-0.9-0.9l-0.5,0.4l0.9,0.9L117.18,101.23z M117.18,105.73l-0.9-0.9
	l-0.5,0.5l0.9,0.9L117.18,105.73z M117.18,110.23l-0.9-0.9l-0.5,0.5l0.9,0.9L117.18,110.23z M117.18,114.83l-0.9-0.9l-0.5,0.4
	l0.9,0.9L117.18,114.83z M117.18,119.33l-0.7-0.6l-0.2-0.3l-0.5,0.5l0.3,0.2l0.6,0.7L117.18,119.33z M117.18,123.93l-0.9-1l-0.5,0.5
	l0.9,0.9L117.18,123.93z M117.18,128.43l-0.9-0.9l-0.5,0.4l0.9,0.9L117.18,128.43z M117.18,132.93l-0.9-0.9l-0.5,0.5l0.9,0.9
	L117.18,132.93z M117.18,137.53l-0.9-0.9l-0.5,0.4l0.9,0.9L117.18,137.53z M117.18,142.03l-0.9-0.9l-0.5,0.4l0.9,0.9L117.18,142.03z
	 M117.18,146.53l-0.9-0.9l-0.5,0.5l0.9,0.9L117.18,146.53z M119.38,62.62l-0.9-0.9l-0.4,0.5l0.9,0.9L119.38,62.62z M119.38,67.22
	l-0.9-1l-0.4,0.5l0.9,0.9L119.38,67.22z M119.38,71.72l-0.9-0.9l-0.4,0.4l0.9,0.9L119.38,71.72z M119.38,76.23l-0.9-0.9l-0.4,0.5
	l0.9,0.9L119.38,76.23z M119.38,80.82l-0.9-0.9l-0.4,0.4l0.9,0.9L119.38,80.82z M119.38,85.33l-0.9-0.9l-0.4,0.4l0.9,0.9
	L119.38,85.33z M119.38,89.83l-0.9-0.9l-0.4,0.5l0.9,0.9L119.38,89.83z M119.38,94.43l-0.9-0.9l-0.4,0.4l0.9,0.9L119.38,94.43z
	 M119.38,98.93l-0.9-0.9l-0.4,0.4l0.9,1L119.38,98.93z M119.38,103.43l-0.9-0.9l-0.4,0.5l0.9,0.9L119.38,103.43z M119.38,108.03
	l-0.9-0.9l-0.4,0.4l0.9,0.9L119.38,108.03z M119.38,112.53l-0.9-0.9l-0.4,0.5l0.9,0.9L119.38,112.53z M119.38,117.03l-0.9-0.9
	l-0.4,0.5l0.9,0.9L119.38,117.03z M119.38,121.63l-0.9-0.9l-0.4,0.4l0.9,0.9L119.38,121.63z M119.38,126.13l-0.9-0.9l-0.4,0.5
	l0.9,0.9L119.38,126.13z M119.38,130.73l-0.9-1l-0.4,0.5l0.9,0.9L119.38,130.73z M119.38,135.23l-0.9-0.9l-0.4,0.4l0.9,0.9
	L119.38,135.23z M119.38,139.73l-0.9-0.9l-0.4,0.5l0.9,0.9L119.38,139.73z M119.58,239.33l25.4-25.3v2.7l-22.6,22.6H119.58z
	 M121.68,60.32l-0.9-0.9l-0.4,0.5l0.9,0.9L121.68,60.32z M121.68,64.92l-0.9-0.9l-0.4,0.4l0.9,0.9L121.68,64.92z M121.68,69.42
	l-0.9-0.9l-0.4,0.5l0.9,0.9L121.68,69.42z M121.68,74.03l-0.9-1l-0.4,0.5l0.9,0.9L121.68,74.03z M121.68,78.53l-0.9-0.9l-0.4,0.4
	l0.9,0.9L121.68,78.53z M121.68,83.03l-0.9-0.9l-0.4,0.5l0.9,0.9L121.68,83.03z M121.68,87.63l-0.9-0.9l-0.4,0.4l0.9,0.9
	L121.68,87.63z M121.68,92.13l-0.9-0.9l-0.4,0.4l0.9,0.9L121.68,92.13z M121.68,96.63l-0.9-0.9l-0.4,0.5l0.9,0.9L121.68,96.63z
	 M121.68,101.23l-0.9-0.9l-0.4,0.4l0.9,0.9L121.68,101.23z M121.68,105.73l-0.9-0.9l-0.4,0.5l0.9,0.9L121.68,105.73z M121.68,110.23
	l-0.9-0.9l-0.4,0.5l0.9,0.9L121.68,110.23z M121.68,114.83l-0.6-0.7l-0.3-0.2l-0.4,0.4l0.9,0.9L121.68,114.83z M121.68,119.33
	l-0.9-0.9l-0.4,0.5l0.9,0.9L121.68,119.33z M121.68,123.83l-0.9-0.9l-0.4,0.5l0.9,0.9L121.68,123.83z M121.68,128.43l-0.9-0.9
	l-0.4,0.4l0.9,0.9L121.68,128.43z M121.68,132.93l-0.9-0.9l-0.4,0.5l0.9,0.9L121.68,132.93z M123.98,62.62l-0.9-0.9l-0.5,0.5
	l0.9,0.9L123.98,62.62z M123.98,67.12l-0.9-0.9l-0.5,0.5l0.9,0.9L123.98,67.12z M123.98,71.72l-0.9-0.9l-0.5,0.4l0.9,0.9
	L123.98,71.72z M123.98,76.23l-0.9-0.9l-0.5,0.5l0.9,0.9L123.98,76.23z M123.98,80.82l-0.9-1l-0.5,0.5l0.9,0.9L123.98,80.82z
	 M123.98,85.33l-0.9-0.9l-0.5,0.4l0.9,0.9L123.98,85.33z M123.98,89.83l-0.9-0.9l-0.5,0.5l0.9,0.9L123.98,89.83z M123.98,94.43
	l-0.9-0.9l-0.5,0.4l0.9,0.9L123.98,94.43z M123.98,98.93l-0.9-0.9l-0.5,0.4l0.9,0.9L123.98,98.93z M123.98,103.43l-0.9-0.9l-0.5,0.5
	l0.9,0.9L123.98,103.43z M123.98,108.03l-0.9-0.9l-0.5,0.4l0.9,0.9L123.98,108.03z M123.98,112.53l-0.9-0.9l-0.5,0.5l0.9,0.9
	L123.98,112.53z M123.98,117.03l-0.9-0.9l-0.5,0.5l0.9,0.9L123.98,117.03z M123.98,121.63l-0.9-0.9l-0.5,0.4l0.9,0.9L123.98,121.63z
	 M123.98,126.13l-0.9-0.9l-0.5,0.5l0.9,0.9L123.98,126.13z M144.98,221.33l-18.1,18h-2.7l20.8-20.8V221.33z M126.28,60.32l-1-0.9
	l-0.4,0.5l0.9,0.9L126.28,60.32z M126.28,64.92l-0.9-0.9l-0.5,0.4l0.2,0.3l0.2,0.1l0.5,0.5L126.28,64.92z M126.28,69.42l-0.9-0.9
	l-0.5,0.5l0.9,0.9L126.28,69.42z M126.28,73.92l-0.9-0.9l-0.5,0.5l0.9,0.9L126.28,73.92z M126.28,78.53l-0.9-0.9l-0.5,0.4l0.9,0.9
	L126.28,78.53z M126.28,83.03l-0.9-0.9l-0.5,0.5l0.9,0.9L126.28,83.03z M126.28,87.63l-0.9-0.9l-0.5,0.4l0.9,0.9L126.28,87.63z
	 M126.28,92.13l-0.9-0.9l-0.5,0.4l0.9,0.9L126.28,92.13z M126.28,96.63l-0.9-0.9l-0.5,0.5l0.9,0.9L126.28,96.63z M126.28,101.23
	l-0.9-0.9l-0.5,0.4l0.9,0.9L126.28,101.23z M126.28,105.73l-0.9-0.9l-0.5,0.4l0.9,1L126.28,105.73z M126.28,110.23l-0.9-0.9
	l-0.5,0.5l0.3,0.2l0.6,0.7L126.28,110.23z M126.28,114.83l-0.9-0.9l-0.5,0.4l0.9,0.9L126.28,114.83z M126.28,119.33l-0.9-0.9
	l-0.5,0.5l0.9,0.9L126.28,119.33z M128.48,62.62l-0.9-0.9l-0.4,0.5l0.9,0.9L128.48,62.62z M128.48,67.22l-0.9-1l-0.4,0.5l0.9,0.9
	L128.48,67.22z M128.48,71.72l-0.9-0.9l-0.4,0.4l0.9,0.9L128.48,71.72z M128.48,76.23l-0.9-0.9l-0.4,0.5l0.9,0.9L128.48,76.23z
	 M128.48,80.82l-0.9-0.9l-0.4,0.4l0.9,0.9L128.48,80.82z M128.48,85.33l-0.9-0.9l-0.4,0.4l0.9,0.9L128.48,85.33z M128.48,89.83
	l-0.9-0.9l-0.4,0.5l0.9,0.9L128.48,89.83z M128.48,94.43l-0.9-0.9l-0.4,0.4l0.9,0.9L128.48,94.43z M128.48,98.93l-0.9-0.9l-0.4,0.4
	l0.9,1L128.48,98.93z M128.48,103.43l-0.9-0.9l-0.4,0.5l0.9,0.9L128.48,103.43z M128.48,108.03l-0.5-0.5l-0.1-0.2l-0.3-0.2l-0.4,0.4
	l0.9,0.9L128.48,108.03z M128.48,112.53l-0.9-0.9l-0.4,0.5l0.9,0.9L128.48,112.53z M144.98,223.13v2.7l-13.6,13.5h-2.7l14.7-14.7
	L144.98,223.13z M130.78,60.32l-0.7-0.6l-0.2-0.3l-0.5,0.5l0.9,0.9L130.78,60.32z M130.78,64.92l-0.9-0.9l-0.5,0.4l0.9,0.9
	L130.78,64.92z M130.78,69.42l-0.9-0.9l-0.5,0.5l0.9,0.9L130.78,69.42z M130.78,74.03l-0.9-1l-0.5,0.5l0.9,0.9L130.78,74.03z
	 M130.78,78.53l-0.9-0.9l-0.5,0.4l0.9,0.9L130.78,78.53z M130.78,83.03l-0.9-0.9l-0.5,0.5l0.9,0.9L130.78,83.03z M130.78,87.63
	l-0.9-0.9l-0.5,0.4l0.9,0.9L130.78,87.63z M130.78,92.13l-0.9-0.9l-0.5,0.4l0.9,1L130.78,92.13z M130.78,96.63l-0.9-0.9l-0.5,0.5
	l0.9,0.9L130.78,96.63z M130.78,101.23l-0.9-0.9l-0.5,0.4l0.9,0.9L130.78,101.23z M133.08,62.62l-1-0.9l-0.4,0.5l0.9,0.9
	L133.08,62.62z M133.08,67.22l-1-1l-0.4,0.5l0.9,0.9L133.08,67.22z M133.08,71.72l-1-0.9l-0.4,0.4l0.9,0.9L133.08,71.72z
	 M133.08,76.23l-1-0.9l-0.4,0.5l0.9,0.9L133.08,76.23z M133.08,80.82l-1-0.9l-0.4,0.4l0.9,0.9L133.08,80.82z M133.08,85.33l-1-0.9
	l-0.4,0.4l0.9,1L133.08,85.33z M133.08,89.83l-1-0.9l-0.4,0.5l0.9,0.9L133.08,89.83z M133.08,94.43l-1-0.9l-0.4,0.4l0.9,0.9
	L133.08,94.43z M133.18,239.33l11.8-11.7v2.7l-9,9H133.18z M135.28,60.32l-0.9-0.9l-0.4,0.5l0.9,0.9L135.28,60.32z M135.28,64.92
	l-0.9-0.9l-0.4,0.4l0.9,0.9L135.28,64.92z M135.28,69.42l-0.9-0.9l-0.4,0.5l0.9,0.9L135.28,69.42z M135.28,74.03l-0.9-0.9l-0.4,0.4
	l0.9,0.9L135.28,74.03z M135.28,78.53l-0.9-0.9l-0.4,0.4l0.9,0.9L135.28,78.53z M135.28,83.03l-0.9-0.9l-0.4,0.5l0.9,0.9
	L135.28,83.03z M135.28,87.63l-0.9-0.9l-0.4,0.4l0.9,0.9L135.28,87.63z M137.58,62.62l-0.9-0.9l-0.5,0.5l0.9,0.9L137.58,62.62z
	 M137.58,67.22l-0.9-1l-0.5,0.5l0.9,0.9L137.58,67.22z M137.58,71.72l-0.9-0.9l-0.5,0.4l0.9,0.9L137.58,71.72z M137.58,76.23
	l-0.9-0.9l-0.5,0.5l0.9,0.9L137.58,76.23z M137.58,80.82l-0.9-0.9l-0.5,0.4l0.9,0.9L137.58,80.82z M137.78,239.33l7.2-7.2v2.8
	l-4.5,4.4H137.78z M139.88,60.32l-0.9-0.9l-0.5,0.5l0.9,0.9L139.88,60.32z M139.88,64.92l-0.9-0.9l-0.5,0.4l0.9,0.9L139.88,64.92z
	 M139.88,69.42l-0.9-0.9l-0.5,0.5l0.9,0.9L139.88,69.42z M139.88,74.03l-0.9-0.9l-0.5,0.4l0.9,0.9L139.88,74.03z M142.08,62.62
	l-0.9-0.9l-0.4,0.5l0.9,0.9L142.08,62.62z M142.08,67.22l-0.9-1l-0.4,0.5l0.9,0.9L142.08,67.22z M142.28,239.33l2.7-2.6v2.6H142.28z
	"/>
</svg>
