<?xml version="1.0" encoding="utf-8"?>
<!-- Generator: Adobe Illustrator 27.0.1, SVG Export Plug-In . SVG Version: 6.00 Build 0)  -->
<svg version="1.1" id="Ebene_1" xmlns="http://www.w3.org/2000/svg" xmlns:xlink="http://www.w3.org/1999/xlink" x="0px" y="0px"
	 viewBox="0 0 113.91 237.76" style="enable-background:new 0 0 113.91 237.76;" xml:space="preserve">
<style type="text/css">
	.st0{fill:#1D1D1B;}
</style>
<path class="st0" d="M72.35,128.85v-2.7l33.6-33.6l-0.9-0.9l-32.7,32.7v-2.7l16.4-16.4l0.1-0.2l12.6-12.5l-0.9-0.9l-0.9,0.9h-0.1
	l-27.2,27.3v-2.7l24.5-24.6l-0.9-0.9l-0.9,0.9l-9.3,9.4l-13.4,13.3v-2.7l20-20l-0.9-0.9l-19.1,19.1v-2.7l15.5-15.5l-0.9-0.9
	l-0.9,0.9h-0.1l-4.9,5l-8.7,8.7v-2.8l7.5-7.4l3.4-3.5l-0.9-0.9l-10,10v-2.7l6.4-6.4l-0.9-0.9l-5.5,5.5v-2.7l1.9-1.9l-1-0.9l-0.9,0.9
	h-2.7l-33.6-33.6v1.8l31.8,31.8h-2.7l-29.1-29.1v1.8l27.3,27.3h-2.7l-24.6-24.6v1.8l22.8,22.8h-2.8l-20-20v1.8l18.2,18.2h-2.7
	l-15.5-15.5v1.8l9.5,9.6l4.2,4.1h-2.7l-3-2.9l-8-8.1v1.9l7.1,7.1l0.2,0.1l1.8,1.9h-2.7l-6.4-6.4v1.8l4.6,4.6h-2.7l-1.9-1.9v1.8
	l0.1,0.1h-0.1v0.5l-36.3,36.3v-3.6l33.4-33.4l-0.4-0.5l-33,33v-3.6l11.8-11.9l17.1-17l-0.5-0.5l-28.4,28.4v-3.6l24.3-24.3l-0.4-0.5
	l-23.9,23.9v-3.6l19.8-19.8l-0.4-0.5l-19.4,19.4v-3.7l15.3-15.2l-0.5-0.5l-14.8,14.8v-3.6l10.7-10.7l-0.4-0.5l-10.3,10.3v-3.6
	l6.2-6.2l-0.5-0.5l-5.7,5.8v-3.7l1.7-1.6l-0.5-0.5l-1.2,1.2v-0.5c0-16,0-29.1,0-36.3h0.5l-0.2,0.2l0.5,0.5l0.6-0.7h3.6l-0.2,0.2
	l0.5,0.5l0.7-0.7h3.6l-0.2,0.2l0.4,0.5l0.7-0.7h3.6l-0.2,0.2l0.5,0.5l0.6-0.7h3.7l-0.2,0.2l0.4,0.5l0.7-0.7h3.6l-0.2,0.2l0.4,0.5
	l0.7-0.7h3.6l-0.2,0.2l0.5,0.5l0.6-0.7h3.7l-0.2,0.2l0.4,0.5l0.7-0.7h3.2l36.2,36.2v-1.8l-34.4-34.4h2.7l31.7,31.7v-1.8l-29.9-29.9
	h2.8l16.2,16.3l10.9,10.8v-1.8l-25.3-25.3h2.7l22.6,22.6v-1.8l-20.8-20.8h2.7l18.1,18.1v-1.9l-16.3-16.2h2.8l9.3,9.3l0.1,0.2l4.1,4
	v-1.8l-11.7-11.7h2.7l9,9v-1.8l-7.2-7.2h2.7l4.5,4.5v-1.9l-2.7-2.6h2.7h0.1l0.9,0.9l0.8-0.9c1,0,2,0.1,2.9,0.1l0.8,0.8l0.7-0.7
	l3.4,0.3l0.4,0.4l0.3-0.3c2.2,0.2,4.3,0.6,6.2,1.1l-0.6,0.6l0.9,0.9l0.9-0.9l-0.3-0.4c2.1,0.6,4,1.4,5.7,2.3l-0.4,0.3l0.9,0.9
	l0.7-0.6c0.5,0.3,1.1,0.7,1.6,1.1l-0.9,0.9l0.9,0.9l0.9-0.9l-0.9-0.9c1.8,1.3,3.3,2.8,4.5,4.5l-0.9,0.9l0.9,0.9l0.8-0.7
	c0.3,0.6,0.6,1.1,1,1.7l-0.4,0.4l0.9,0.9c0.8,1.6,1.4,3.4,1.9,5.4l-0.5,0.5l0.8,0.9c0.3,1,0.5,2.1,0.6,3.3l-0.5-0.6l-0.9,0.9
	l0.9,0.9l0.6-0.6c0.5,3.3,0.7,7,0.7,11.1L72.35,128.85z M17.75,115.95l-18,18v-3.6l36.3-36.3v3.6l-18.1,18.2L17.75,115.95z
	 M-0.25,138.56v-3.7l36.3-36.3v3.7L-0.25,138.56z M36.05,106.75l-36.3,36.3v-3.6l36.3-36.3V106.75z M-0.25,143.96l23-23l0.2-0.1
	l13.1-13.2v3.6l-36.3,36.3V143.96z M-0.25,152.16v-3.7l2.6-2.5l33.7-33.7v3.6l-9.1,9L-0.25,152.16z M29.15,127.35l-29.4,29.3v-3.6
	l36.3-36.3v3.6l-6.8,6.8L29.15,127.35z M-0.25,161.16v-3.6l29.8-29.8l0.2-0.1l6.3-6.4v3.7l-4.5,4.5l-0.2,0.1L-0.25,161.16z
	 M36.05,125.85v3.6l-36.3,36.3v-3.6l32.1-32.1l0.1-0.2L36.05,125.85z M34.25,132.15l1.8-1.8v3.6l-0.1,0.2l-36.2,36.1v-3.6l34.3-34.4
	L34.25,132.15z M36.05,134.85v3.7l-36.3,36.2v-3.6L36.05,134.85z M-0.25,175.76l36.3-36.3v3.6l-36.3,36.3V175.76z M36.05,143.96v3.6
	l-36.3,36.3v-3.6L36.05,143.96z M36.05,148.46v3.7l-36.3,36.2v-3.6L36.05,148.46z M-0.25,189.36l36.3-36.3v3.6l-36.3,36.3V189.36z
	 M36.05,161.16l-31.7,31.8l-0.2,0.1l-4.4,4.4v-3.6l36.3-36.3V161.16z M27.25,170.86l8.8-8.7v3.6l-36.3,36.3v-3.7l4.9-4.8l0.1-0.2
	L27.25,170.86z M36.05,170.26l-36.3,36.3v-3.6l36.3-36.3V170.26z M36.05,174.76l-2.4,2.5l-33.9,33.8v-3.6l36.3-36.3V174.76z
	 M-0.25,211.96l36.3-36.2v3.6l-36.3,36.3V211.96z M36.05,183.86l-36.3,36.3v-3.6l36.3-36.3V183.86z M16.15,204.76l19.9-20v3.7
	l-36.3,36.2v-3.6l16.2-16.2L16.15,204.76z M18.35,206.96l17.7-17.6v3.6l-36.3,36.3v-3.6L18.35,206.96z M36.05,197.46l-36.3,36.3
	v-3.6l36.3-36.3V197.46z M-0.25,234.66l36.3-36.3v3.7l-34,34l-1.8,1.7h-0.5V234.66z M1.45,60.55l-0.5-0.4l-0.9,0.9l0.5,0.4
	L1.45,60.55z M1.45,65.15l-0.5-0.5l-0.9,0.9l0.5,0.5L1.45,65.15z M1.45,69.65l-0.5-0.4l-0.9,0.9l0.5,0.4L1.45,69.65z M1.45,74.25
	l-0.5-0.5l-0.9,0.9l0.5,0.5L1.45,74.25z M1.45,78.75l-0.5-0.5l-0.9,0.9l0.5,0.5L1.45,78.75z M1.45,83.25l-0.5-0.4l-0.9,0.9l0.5,0.4
	L1.45,83.25z M1.45,87.85l-0.5-0.5l-0.9,0.9l0.5,0.5L1.45,87.85z M36.05,202.96v3.6l-31.2,31.2h-3.7l1.2-1.1l0.1-0.2L36.05,202.96z
	 M3.75,58.35l-0.5-0.5l-0.9,0.9l0.4,0.5L3.75,58.35z M3.75,62.85l-0.5-0.4l-0.9,0.9l0.5,0.4L3.75,62.85z M3.75,67.35l-0.5-0.4
	l-0.9,0.9l0.5,0.4L3.75,67.35z M3.75,71.95l-0.5-0.5l-0.9,0.9l0.5,0.5L3.75,71.95z M3.75,76.45l-0.5-0.4l-0.9,0.9l0.5,0.4
	L3.75,76.45z M3.75,81.05l-0.5-0.5l-0.9,0.9l0.5,0.5L3.75,81.05z M3.75,85.55l-0.5-0.5l-0.9,0.9l0.5,0.5L3.75,85.55z M3.75,90.05
	l-0.5-0.4l-0.9,0.9l0.5,0.4L3.75,90.05z M5.95,60.55l-0.4-0.4l-0.9,0.9l0.4,0.4L5.95,60.55z M5.95,65.15l-0.4-0.5l-0.9,0.9l0.4,0.5
	L5.95,65.15z M5.95,69.65l-0.4-0.4l-0.9,0.9l0.4,0.4L5.95,69.65z M5.95,74.25l-0.4-0.5l-0.9,0.9l0.4,0.5L5.95,74.25z M5.95,78.75
	l-0.4-0.5l-0.9,0.9l0.4,0.5L5.95,78.75z M5.95,83.25l-0.4-0.4l-0.9,0.9l0.4,0.4L5.95,83.25z M5.95,87.85l-0.4-0.5l-0.9,0.9l0.4,0.5
	L5.95,87.85z M36.05,211.06l-26.7,26.7h-3.6l30.3-30.3V211.06z M8.25,58.35l-0.5-0.5l-0.9,0.9l0.5,0.5L8.25,58.35z M8.25,62.85
	l-0.5-0.4l-0.9,0.9l0.5,0.4L8.25,62.85z M8.25,67.35l-0.5-0.4l-0.9,0.9l0.5,0.5L8.25,67.35z M8.25,71.95l-0.5-0.5l-0.9,0.9l0.5,0.5
	L8.25,71.95z M8.25,76.45l-0.5-0.4l-0.9,0.9l0.5,0.4L8.25,76.45z M8.25,81.05l-0.5-0.5l-0.9,0.9l0.5,0.5L8.25,81.05z M8.25,85.55
	l-0.5-0.5l-0.9,1l0.5,0.4L8.25,85.55z M8.25,90.05l-0.5-0.4l-0.9,0.9l0.5,0.4L8.25,90.05z M10.55,60.55l-0.5-0.4l-0.9,0.9l0.4,0.4
	L10.55,60.55z M10.55,65.15l-0.5-0.5l-0.9,0.9l0.5,0.5L10.55,65.15z M10.55,69.65l-0.5-0.4l-0.9,0.9l0.5,0.4L10.55,69.65z
	 M10.55,74.25l-0.5-0.5l-0.9,0.9l0.5,0.5L10.55,74.25z M10.55,78.75l-0.5-0.5l-0.9,1l0.5,0.4L10.55,78.75z M10.55,83.25l-0.5-0.4
	l-0.9,0.9l0.5,0.4L10.55,83.25z M10.55,87.85l-0.5-0.5l-0.9,0.9l0.5,0.5L10.55,87.85z M29.75,218.36l6.3-6.3v3.6l-22.1,22.1h-3.7
	l19.3-19.3L29.75,218.36z M12.75,58.35l-0.4-0.5l-0.9,0.9l0.4,0.5L12.75,58.35z M12.75,62.85l-0.4-0.4l-0.9,0.9l0.4,0.4L12.75,62.85
	z M12.75,67.45l-0.4-0.5l-0.9,0.9l0.4,0.5L12.75,67.45z M12.75,71.95l-0.4-0.5l-0.9,1l0.4,0.4L12.75,71.95z M12.75,76.45l-0.4-0.4
	l-0.9,0.9l0.4,0.4L12.75,76.45z M12.75,81.05l-0.4-0.5l-0.9,0.9l0.4,0.5L12.75,81.05z M12.75,85.55l-0.4-0.4l-0.9,0.9l0.4,0.4
	L12.75,85.55z M12.75,90.05l-0.4-0.4l-0.9,0.9l0.4,0.5L12.75,90.05z M15.05,60.65l-0.5-0.5l-0.9,0.9l0.5,0.5L15.05,60.65z
	 M15.05,65.15l-0.5-0.5l-0.9,0.9l0.5,0.5L15.05,65.15z M15.05,69.65l-0.5-0.4l-0.9,0.9l0.5,0.4L15.05,69.65z M15.05,74.25l-0.5-0.5
	l-0.9,0.9l0.5,0.5L15.05,74.25z M15.05,78.75l-0.5-0.5l-0.9,0.9l0.5,0.5L15.05,78.75z M15.05,83.25l-0.5-0.4l-0.9,0.9l0.5,0.4
	L15.05,83.25z M15.05,87.85l-0.5-0.5l-0.9,0.9l0.5,0.5L15.05,87.85z M31.95,220.56l4.1-4v3.6l-17.6,17.6h-3.6l17-17L31.95,220.56z
	 M17.35,58.35l-0.5-0.5l-0.9,0.9l0.5,0.5L17.35,58.35z M17.35,62.85l-0.5-0.4l-0.9,0.9l0.5,0.4L17.35,62.85z M17.35,67.45l-0.5-0.5
	l-0.9,0.9l0.5,0.5L17.35,67.45z M17.35,71.95l-0.5-0.5l-0.9,1l0.5,0.4L17.35,71.95z M17.35,76.45l-0.5-0.4l-0.9,0.9l0.5,0.4
	L17.35,76.45z M17.35,81.05l-0.5-0.5l-0.9,0.9l0.5,0.5L17.35,81.05z M17.35,85.55l-0.5-0.4l-0.9,0.9l0.5,0.4L17.35,85.55z
	 M17.35,90.05l-0.5-0.4l-0.9,0.9l0.5,0.5L17.35,90.05z M19.55,60.65l-0.4-0.5l-0.9,0.9l0.4,0.5L19.55,60.65z M19.55,65.15l-0.4-0.5
	l-0.9,0.9l0.4,0.5L19.55,65.15z M19.55,69.65l-0.4-0.4l-0.9,0.9l0.4,0.4L19.55,69.65z M19.55,74.25l-0.4-0.5l-0.9,0.9l0.4,0.5
	L19.55,74.25z M19.55,78.75l-0.4-0.4l-0.9,0.9l0.4,0.4L19.55,78.75z M19.55,83.25l-0.4-0.4l-0.9,0.9l0.4,0.4L19.55,83.25z
	 M19.55,87.85l-0.4-0.5l-0.9,0.9l0.4,0.5L19.55,87.85z M36.05,224.76l-13.1,13h-3.6l16.7-16.7V224.76z M21.85,58.35l-0.5-0.5
	l-0.9,0.9l0.5,0.5L21.85,58.35z M21.85,62.85l-0.5-0.4l-0.9,0.9l0.5,0.4L21.85,62.85z M21.85,67.45l-0.5-0.5l-0.9,0.9l0.5,0.5
	L21.85,67.45z M21.85,71.95l-0.5-0.5l-0.9,1l0.5,0.4L21.85,71.95z M21.85,76.45l-0.5-0.4l-0.9,0.9l0.5,0.4L21.85,76.45z
	 M21.85,81.05l-0.5-0.5l-0.9,0.9l0.5,0.5L21.85,81.05z M21.85,85.55l-0.5-0.4l-0.9,0.9l0.5,0.4L21.85,85.55z M21.85,90.05l-0.5-0.4
	l-0.9,0.9l0.5,0.5L21.85,90.05z M24.15,60.55l-0.5-0.4l-0.9,0.9l0.5,0.5L24.15,60.55z M24.15,65.15l-0.5-0.5l-0.9,1l0.5,0.4
	L24.15,65.15z M24.15,69.65l-0.5-0.4l-0.9,0.9l0.5,0.4L24.15,69.65z M24.15,74.25l-0.5-0.5l-0.9,0.9l0.5,0.5L24.15,74.25z
	 M24.15,78.75l-0.5-0.4l-0.9,0.9l0.5,0.4L24.15,78.75z M24.15,83.25l-0.5-0.4l-0.9,0.9l0.5,0.5L24.15,83.25z M24.15,87.85l-0.5-0.5
	l-0.9,0.9l0.5,0.5L24.15,87.85z M23.85,237.76l12.2-12.1v3.6l-8.5,8.5H23.85z M26.35,58.35l-0.4-0.5l-0.9,0.9l0.4,0.5L26.35,58.35z
	 M26.35,62.85l-0.4-0.4l-0.9,0.9l0.4,0.4L26.35,62.85z M26.35,67.35l-0.4-0.4l-0.9,0.9l0.4,0.5L26.35,67.35z M26.35,71.95l-0.4-0.4
	l-0.9,0.9l0.4,0.4L26.35,71.95z M26.35,76.45l-0.4-0.4l-0.9,0.9l0.4,0.4L26.35,76.45z M26.35,81.05l-0.4-0.5l-0.9,0.9l0.4,0.5
	L26.35,81.05z M26.35,85.55l-0.4-0.4l-0.9,0.9l0.4,0.4L26.35,85.55z M26.35,90.15l-0.4-0.5l-0.9,0.9l0.4,0.5L26.35,90.15z
	 M28.65,60.55l-0.5-0.4l-0.9,0.9l0.5,0.5L28.65,60.55z M28.65,65.15l-0.5-0.5l-0.9,0.9l0.5,0.5L28.65,65.15z M28.65,69.65l-0.5-0.4
	l-0.9,0.9l0.5,0.4L28.65,69.65z M28.65,74.25l-0.5-0.5l-0.9,0.9l0.5,0.5L28.65,74.25z M28.65,78.75l-0.5-0.4l-0.9,0.9l0.5,0.4
	L28.65,78.75z M28.65,83.25l-0.5-0.4l-0.9,0.9l0.5,0.5L28.65,83.25z M28.65,87.85l-0.5-0.5l-0.9,0.9l0.5,0.5L28.65,87.85z
	 M28.45,237.76l7.6-7.6v3.6l-4,4H28.45z M30.95,58.35l-0.5-0.5l-0.9,0.9l0.5,0.5L30.95,58.35z M30.95,62.85l-0.5-0.4l-0.9,0.9
	l0.5,0.4L30.95,62.85z M30.95,67.45l-0.5-0.5l-0.9,0.9l0.5,0.5L30.95,67.45z M30.95,71.95l-0.5-0.4l-0.9,0.9l0.5,0.4L30.95,71.95z
	 M30.95,76.45l-0.5-0.4l-0.9,0.9l0.5,0.5L30.95,76.45z M30.95,81.05l-0.5-0.5l-0.9,0.9l0.5,0.5L30.95,81.05z M30.95,85.55l-0.5-0.4
	l-0.9,0.9l0.5,0.4L30.95,85.55z M30.95,90.15l-0.5-0.5l-0.9,0.9l0.5,0.5L30.95,90.15z M33.15,60.65l-0.4-0.5l-0.9,0.9l0.4,0.5
	L33.15,60.65z M33.15,65.15l-0.4-0.5l-0.9,0.9l0.4,0.5L33.15,65.15z M33.15,69.65l-0.4-0.4l-0.9,0.9l0.4,0.4L33.15,69.65z
	 M33.15,74.25l-0.4-0.5l-0.9,0.9l0.4,0.5L33.15,74.25z M33.15,78.75l-0.4-0.4l-0.9,0.9l0.4,0.4L33.15,78.75z M33.15,83.35l-0.4-0.5
	l-0.9,0.9l0.4,0.5L33.15,83.35z M33.15,87.85l-0.4-0.5l-0.9,0.9l0.4,0.5L33.15,87.85z M32.95,237.76l3.1-3.1v3.1H32.95z
	 M35.45,58.35l-0.5-0.4l-0.9,0.9l0.5,0.4L35.45,58.35z M35.45,62.85l-0.5-0.4l-0.9,0.9l0.5,0.5L35.45,62.85z M35.45,67.45l-0.5-0.5
	l-0.9,0.9l0.5,0.5L35.45,67.45z M35.45,71.95l-0.5-0.4l-0.9,0.9l0.5,0.4L35.45,71.95z M35.45,76.55l-0.5-0.5l-0.9,0.9l0.5,0.5
	L35.45,76.55z M35.45,81.05l-0.5-0.5l-0.9,0.9l0.5,0.5L35.45,81.05z M35.45,85.55l-0.5-0.4l-0.9,0.9l0.5,0.4L35.45,85.55z
	 M35.45,90.15l-0.5-0.5l-0.9,0.9l0.5,0.5L35.45,90.15z M53.05,171.26l-4.3-4.4l-0.6-1.7l-0.3-0.9l-0.4-1.3l0.9,0.9l0.9-0.9l-0.9-0.9
	l-0.9,0.9l-0.7-2.1l0.2-0.2l-0.5-0.6l-0.2-0.5l-0.7-2.1l-0.4-1.3l0.9,0.9l0.9-0.9l-0.9-0.9l-0.9,0.9l-0.7-2.1l0.3-0.2l-0.6-0.6
	l-0.2-0.5l-0.6-2.1l-0.5-1.3l-0.7-2.1l0.3-0.2l-0.5-0.6l-0.2-0.5l-0.7-2.1l-0.5-1.3l-0.6-2.1l0.2-0.3l-0.5-0.5l-0.2-0.6l-0.7-2
	l-0.4-1.3l0.9,0.9l0.9-0.9l-0.9-1l-0.9,1v-0.1l-0.7-2l0.3-0.3l-0.6-0.5l-0.2-0.6l-0.6-2l-0.5-1.4h0.1l0.9,0.9l0.9-0.9h2.7l0.9,0.9
	l0.9-0.9h2.7l0.9,0.9l0.9-0.9h2.8l0.3,0.4l0.6,0.5l0.9-0.9h2.7l0.9,0.9l0.9-0.9h2.7l0.9,0.9l0.9-0.9h2.8l0.9,0.9l0.9-0.9h2.7
	l0.9,0.9l0.9-0.9h2.7l0.5,1.3l35.8-35.7v2.7l-35.1,35l0.4,0.9l-0.7-0.6l-0.9,0.9l0.9,0.9l35.4-35.3v2.7l-11.8,11.7l-22.2,22.3
	l0.4,0.3l0.3,0.8l33.3-33.3v2.7l-32.6,32.6l0.5,1.3l32.1-32.1v2.8l-7.1,7l-0.1,0.2l-24.5,24.5l0.8,0.8v0.1l30.9-30.8v2.7l-27.5,27.4
	l-0.1,0.2l-2.5,2.5l0.5,1.3l29.6-29.6v2.7l-25.2,25.2l-4.2,4.3l0.9,0.9l28.5-28.5v2.7l-0.3,0.2l-27.3,27.4l0.5,1.3l27.1-27.1v2.7
	l-27.2,27.2l0.9,0.9l26.3-26.3c-0.1,1-0.1,1.9-0.1,2.8l-25.1,25.1l0.5,1.3l24.5-24.4l-0.3,2.9l-23.4,23.5l0.1,0.2l-0.2-0.1l-0.9,0.9
	l0.9,0.9l23.2-23.3c-0.1,1.2-0.3,2.3-0.6,3.3l-19.9,20c-0.7,0.2-1.5,0.3-2.3,0.4l0.9,0.8l1.6,4.4l-5.2-5.2l-0.4,0.5h-0.9l7.6,7.6
	l1.6,4.3l-12.4-12.4l-0.8,0.8h-0.2l14.5,14.5l1.6,4.4l-19.7-19.7l-0.9,0.9l21.7,21.7l1.7,4.4l-27-27l-0.9,0.9l28.9,29l1.7,4.3
	l-34.2-34.2l-0.9,0.9l36.2,36.2l1.6,4.4l-40.5-40.6l-1-0.9l-0.9,0.9l43.5,43.5l1.6,4.3l-48.7-48.7l-0.9,0.9l47.8,47.9l0.2,0.1
	l2.7,2.7l1.6,4.4l-51.2-51.2l-3.8-3.9l-0.9-0.9l-0.9,0.9l4.7,4.8l45.4,45.3l7.8,7.9l1.7,4.3l-56.2-56.1H53.05z M40.15,131.15
	l-0.9-0.9l-0.9,0.9l0.9,0.9L40.15,131.15z M42.45,133.45l-0.9-0.9l-0.9,0.9l0.9,0.9L42.45,133.45z M42.45,137.95l-0.9-0.9l-0.9,0.9
	l0.9,0.9L42.45,137.95z M42.45,142.56l-0.9-0.9l-0.9,0.9l0.9,0.9L42.45,142.56z M44.75,131.15l-0.9-0.9l-0.9,0.9l0.9,0.9
	L44.75,131.15z M44.75,135.75l-0.6-0.6l-0.1-0.2l-0.2-0.2l-0.9,1l0.9,0.9L44.75,135.75z M44.75,140.26l-0.9-0.9l-0.9,0.9l0.9,0.9
	L44.75,140.26z M44.75,144.76l-0.9-0.9l-0.9,0.9l0.9,0.9L44.75,144.76z M44.75,149.36l-0.9-0.9l-0.9,0.9l0.9,0.9L44.75,149.36z
	 M46.95,133.45l-0.5-0.6l-0.4-0.3l-0.9,0.9l0.9,0.9L46.95,133.45z M46.95,137.95l-0.9-0.9l-0.9,0.9l0.9,0.9L46.95,137.95z
	 M46.95,142.56l-0.9-0.9l-0.9,0.9l0.9,0.9L46.95,142.56z M46.95,147.06l-0.9-0.9l-0.9,0.9l0.9,0.9L46.95,147.06z M46.95,151.56
	l-0.9-0.9l-0.9,0.9l0.9,0.9L46.95,151.56z M49.25,131.15l-0.9-0.9l-0.9,0.9l0.9,0.9L49.25,131.15z M49.25,135.75l-0.9-0.9l-0.9,0.9
	l0.9,0.9L49.25,135.75z M49.25,140.26l-0.9-0.9l-0.9,0.9l0.9,0.9L49.25,140.26z M49.25,144.76l-0.9-0.9l-0.9,0.9l0.9,0.9
	L49.25,144.76z M49.25,149.36l-0.9-0.9l-0.9,0.9l0.9,0.9L49.25,149.36z M49.25,153.86l-0.9-0.9l-0.9,0.9l0.9,0.9L49.25,153.86z
	 M49.25,158.46l-0.9-1l-0.9,1l0.9,0.9L49.25,158.46z M49.65,169.56l60.7,60.8l1.7,4.3l-61.1-61L49.65,169.56z M49.75,133.45l0.9,0.9
	l0.9-0.9l-0.9-0.9L49.75,133.45z M49.75,137.95l0.9,0.9l0.9-0.9l-0.9-0.9L49.75,137.95z M49.75,142.56l0.9,0.9l0.9-0.9l-0.9-0.9
	L49.75,142.56z M49.75,147.06l0.9,0.9l0.9-0.9l-0.9-0.9L49.75,147.06z M49.75,151.56l0.9,0.9l0.9-0.9l-0.9-0.9L49.75,151.56z
	 M49.75,156.16l0.9,0.9l0.9-0.9l-0.9-0.9L49.75,156.16z M49.75,160.66l0.9,0.9l0.9-0.9l-0.9-0.9L49.75,160.66z M113.16,237.56v0.1
	h-2.7l-39.1-39.1l-0.1-0.2l-18-17.9l-1.4-4.1l20.7,20.7l0.2,0.1l22.5,22.6l0.2,0.1L113.16,237.56z M51.95,131.15l0.9,0.9l0.9-0.9
	l-0.9-0.9L51.95,131.15z M51.95,135.75l0.9,0.9l1-0.9l-1-1L51.95,135.75z M51.95,140.26l0.9,0.9l1-0.9l-1-0.9L51.95,140.26z
	 M51.95,144.76l0.9,0.9l1-0.9l-1-0.9L51.95,144.76z M51.95,149.36l0.9,0.9l1-0.9l-1-0.9L51.95,149.36z M51.95,153.86l0.9,0.9l1-0.9
	l-1-0.9L51.95,153.86z M51.95,158.36l0.9,0.9l0.9-0.9l-0.9-0.9L51.95,158.36z M51.95,162.96l0.9,0.9l0.9-0.9l-0.9-0.9L51.95,162.96z
	 M54.15,183.16l54.5,54.5h-2.7l-14.2-14.1l-0.1-0.2l-36.1-36.1L54.15,183.16z M54.25,133.45l0.9,0.9l0.9-0.9l-0.9-0.9L54.25,133.45z
	 M54.25,137.95l0.9,0.9l0.9-0.9l-0.9-0.9L54.25,137.95z M54.25,142.56l0.9,0.9l0.9-0.9l-0.9-0.9L54.25,142.56z M54.25,147.06
	l0.9,0.9l0.9-0.9l-0.9-0.9L54.25,147.06z M54.25,151.56l0.9,0.9l0.9-0.9l-0.9-0.9L54.25,151.56z M54.25,156.16l0.9,0.9l0.9-0.9
	l-0.9-0.9L54.25,156.16z M54.25,160.66l0.9,0.9l0.9-0.9l-0.9-0.9L54.25,160.66z M56.45,189.96l47.7,47.7h-2.7l-34.7-34.7l-9-8.9
	L56.45,189.96z M56.55,131.15l0.9,0.9l0.9-0.9l-0.9-0.9L56.55,131.15z M56.55,135.75l0.9,0.9l0.9-0.9l-0.9-1L56.55,135.75z
	 M56.55,140.26l0.9,0.9l0.9-0.9l-0.9-0.9L56.55,140.26z M56.55,144.76l0.9,0.9l0.9-0.9l-0.9-0.9L56.55,144.76z M56.55,149.36
	l0.9,0.9l0.9-0.9l-0.9-0.9L56.55,149.36z M56.55,153.86l0.9,0.9l0.9-0.9l-0.9-0.9L56.55,153.86z M56.55,158.36l0.9,0.9l0.9-0.9
	l-0.9-0.9L56.55,158.36z M56.55,162.96l0.9,0.9l0.9-0.9l-0.9-0.9L56.55,162.96z M58.75,133.45l1,0.9l0.9-0.9l-0.9-0.9L58.75,133.45z
	 M58.75,137.95l1,0.9l0.9-0.9l-0.9-0.9L58.75,137.95z M58.75,142.56l1,0.9l0.9-0.9l-0.9-0.9L58.75,142.56z M58.75,147.06l1,0.9
	l0.9-0.9l-0.9-0.9L58.75,147.06z M58.75,151.56l1,0.9l0.9-0.9l-0.9-0.9L58.75,151.56z M58.75,156.16l1,0.9l0.9-0.9l-0.9-0.9
	L58.75,156.16z M58.75,160.66l1,0.9l0.9-0.9l-0.9-0.9L58.75,160.66z M99.66,237.66h-2.8l-36.8-36.8l-1.3-4.1l7,7.1L99.66,237.66z
	 M86.35,228.96l8.7,8.7h-2.7l-7.3-7.4l-0.2-0.1l-22.5-22.5l-1.4-4.1l25.3,25.2L86.35,228.96z M61.05,131.15l0.9,0.9l0.9-0.9
	l-0.9-0.9L61.05,131.15z M61.05,135.75l0.9,0.9l0.9-0.9l-0.9-1L61.05,135.75z M61.05,140.26l0.9,0.9l0.9-0.9l-0.9-0.9L61.05,140.26z
	 M61.05,144.76l0.9,0.9l0.9-0.9l-0.9-0.9L61.05,144.76z M61.05,149.36l0.9,0.9l0.9-0.9l-0.9-0.9L61.05,149.36z M61.05,153.86
	l0.9,0.9l0.9-0.9l-0.9-0.9L61.05,153.86z M61.05,158.36l0.9,0.9l0.9-0.9l-0.9-0.9L61.05,158.36z M61.05,162.96l0.9,0.9l0.9-0.9
	l-0.9-0.9L61.05,162.96z M84.06,231.26l6.5,6.4h-2.7l-23.2-23.2l-1.4-4.1l20.7,20.7L84.06,231.26z M63.35,133.45l0.9,0.9l0.9-0.9
	l-0.9-0.9L63.35,133.45z M63.35,137.95l0.9,0.9l0.9-0.9l-0.9-0.9L63.35,137.95z M63.35,142.56l0.9,0.9l0.9-0.9l-0.9-0.9
	L63.35,142.56z M63.35,147.06l0.9,0.9l0.9-0.9l-0.9-0.9L63.35,147.06z M63.35,151.56l0.9,0.9l0.9-0.9l-0.9-0.9L63.35,151.56z
	 M63.35,156.16l0.9,0.9l0.9-0.9l-0.9-0.9L63.35,156.16z M63.35,160.66l0.9,0.9l0.9-0.9l-0.9-0.9L63.35,160.66z M65.55,131.15l1,0.9
	l0.9-0.9l-1-0.9L65.55,131.15z M65.55,135.75l1,0.9l0.9-0.9l-0.9-0.9L65.55,135.75z M65.55,140.26l1,0.9l0.9-0.9l-0.9-0.9
	L65.55,140.26z M65.55,144.76l1,0.9l0.9-0.9l-0.9-0.9L65.55,144.76z M65.55,149.36l1,0.9l0.9-0.9l-0.9-0.9L65.55,149.36z
	 M65.55,153.86l0.9,0.9l1-0.9l-1-0.9L65.55,153.86z M65.55,158.36l1,1l0.9-1l-0.9-0.9L65.55,158.36z M65.55,162.96l1,0.9l0.9-0.9
	l-0.9-0.9L65.55,162.96z M85.96,237.66h-2.7l-16.4-16.4l-1.3-4.1L85.96,237.66z M78.75,237.66l-0.6-0.5l-0.1-0.2l-8.9-8.9l-1.4-4.1
	l13.7,13.7H78.75z M67.85,133.45l0.9,0.9l0.9-0.9l-0.9-0.9L67.85,133.45z M67.85,137.95l0.9,0.9l0.9-0.9l-0.9-0.9L67.85,137.95z
	 M67.85,142.56l0.9,0.9l0.9-0.9l-0.9-0.9L67.85,142.56z M67.85,147.06l0.9,0.9l0.9-0.9l-0.9-0.9L67.85,147.06z M67.85,151.56
	l0.9,0.9l0.9-0.9l-0.9-0.9L67.85,151.56z M67.85,156.16l0.9,0.9l0.9-0.9l-0.9-0.9L67.85,156.16z M67.85,160.66l0.9,0.9l0.9-0.9
	l-0.9-0.9L67.85,160.66z M70.05,230.76l6.9,6.9h-2.8l-2.8-2.8L70.05,230.76z M70.15,131.15l0.9,0.9l0.9-0.9l-0.9-0.9L70.15,131.15z
	 M70.15,135.75l0.9,0.9l0.9-0.9l-0.9-0.9L70.15,135.75z M70.15,140.26l0.9,0.9l0.9-0.9l-0.9-0.9L70.15,140.26z M70.15,144.76
	l0.9,0.9l0.9-0.9l-0.9-0.9L70.15,144.76z M70.15,149.36l0.9,0.9l0.9-0.9l-0.9-0.9L70.15,149.36z M70.15,153.86l0.9,0.9l0.9-0.9
	l-0.9-0.9L70.15,153.86z M70.15,158.36l0.9,1l0.9-1l-0.9-0.9L70.15,158.36z M70.15,162.96l0.9,0.9l0.9-0.9l-0.9-0.9L70.15,162.96z
	 M74.25,60.85l-0.9-0.9l-1,0.9l1,0.9L74.25,60.85z M74.25,65.35l-0.9-0.9l-1,0.9l1,0.9L74.25,65.35z M74.25,69.95l-0.9-0.9l-1,0.9
	l1,0.9L74.25,69.95z M74.25,74.45l-0.9-0.9l-1,0.9l1,0.9L74.25,74.45z M74.25,78.95l-0.9-0.9l-1,0.9l1,0.9L74.25,78.95z
	 M74.25,83.55l-0.9-0.9l-1,0.9l1,0.9L74.25,83.55z M74.25,88.05l-0.9-0.9l-1,0.9l1,0.9L74.25,88.05z M72.35,137.95l0.9,0.9l1-0.9
	l-1-0.9L72.35,137.95z M72.35,142.45l0.9,0.9l1-0.9l-1-0.9L72.35,142.45z M72.35,147.06l0.9,0.9l1-0.9l-1-0.9L72.35,147.06z
	 M72.35,151.56l0.9,0.9l1-0.9l-0.6-0.5l-0.4-0.4L72.35,151.56z M72.35,156.06l0.9,0.9l1-0.9l-1-0.9L72.35,156.06z M72.35,160.66
	l0.9,0.9l1-0.9l-1-0.9L72.35,160.66z M76.45,58.55l-0.9-0.9l-0.9,0.9l0.9,0.9L76.45,58.55z M76.45,63.15l-0.9-0.9l-0.9,0.9l0.9,0.9
	L76.45,63.15z M76.45,67.65l-0.9-0.9l-0.9,0.9l0.9,0.9L76.45,67.65z M76.45,72.15l-0.9-0.9l-0.9,0.9l0.9,0.9L76.45,72.15z
	 M76.45,76.75l-0.9-0.9l-0.9,0.9l0.9,0.9L76.45,76.75z M76.45,81.25l-0.9-0.9l-0.9,0.9l0.9,0.9L76.45,81.25z M76.45,85.75l-0.9-0.9
	l-0.9,0.9l0.9,1L76.45,85.75z M76.45,90.35l-0.9-0.9l-0.9,0.9l0.9,0.9L76.45,90.35z M74.65,140.26l0.9,0.9l0.9-0.9l-0.9-0.9
	L74.65,140.26z M74.65,144.76l0.9,0.9l0.9-0.9l-0.9-0.9L74.65,144.76z M74.65,149.26l0.9,0.9l0.9-0.9l-0.9-0.9L74.65,149.26z
	 M74.65,153.86l0.9,0.9l0.9-0.9l-0.9-0.9L74.65,153.86z M74.65,158.36l0.9,0.9l0.9-0.9l-0.9-0.9L74.65,158.36z M74.65,162.86
	l0.9,0.9l0.9-0.9l-0.9-0.9L74.65,162.86z M78.75,60.85l-0.9-0.9l-0.9,0.9l0.9,0.9L78.75,60.85z M78.75,65.35l-0.9-0.9l-0.9,0.9
	l0.9,0.9L78.75,65.35z M78.75,69.95l-0.9-0.9l-0.9,0.9l0.9,0.9L78.75,69.95z M78.75,74.45l-0.9-0.9l-0.9,0.9l0.9,0.9L78.75,74.45z
	 M78.75,78.95l-0.9-0.9l-0.9,0.9l0.9,0.9L78.75,78.95z M78.75,83.55l-0.9-0.9l-0.9,0.9l0.9,0.9L78.75,83.55z M78.75,88.05l-0.9-0.9
	l-0.9,0.9l0.9,0.9L78.75,88.05z M76.95,147.06l0.9,0.9l0.9-0.9l-0.9-0.9L76.95,147.06z M76.95,151.56l0.9,0.9l0.9-0.9l-0.9-0.9
	L76.95,151.56z M76.95,156.06l0.9,0.9l0.9-0.9l-0.9-0.9L76.95,156.06z M76.95,160.66l0.9,0.9l0.9-0.9l-0.9-0.9L76.95,160.66z
	 M81.05,58.55l-0.9-0.9l-1,0.9l1,0.9L81.05,58.55z M79.15,153.86l0.9,0.9l1-0.9l-1-0.9L79.15,153.86z M79.15,158.36l0.9,0.9l1-0.9
	l-1-0.9L79.15,158.36z M79.15,162.86l0.9,1l1-1l-1-0.9L79.15,162.86z M81.05,63.15l-0.9-0.9l-0.9,0.9l0.9,0.9L81.05,63.15z
	 M81.05,67.65l-0.9-0.9l-0.9,0.9l0.9,0.9L81.05,67.65z M81.05,72.15l-0.9-0.9l-0.9,0.9l0.9,0.9L81.05,72.15z M81.05,76.75l-0.9-0.9
	l-0.9,0.9l0.9,0.9L81.05,76.75z M81.05,81.25l-0.9-0.9l-0.9,0.9l0.9,0.9L81.05,81.25z M81.05,85.75l-0.9-0.9l-0.9,0.9l0.9,1
	L81.05,85.75z M81.05,90.35l-0.9-0.9l-0.9,0.9l0.9,0.9L81.05,90.35z M83.25,60.85l-0.9-0.9l-0.9,0.9l0.9,0.9L83.25,60.85z
	 M83.25,65.35l-0.9-0.9l-0.9,0.9l0.9,0.9L83.25,65.35z M83.25,69.95l-0.9-0.9l-0.9,0.9l0.9,0.9L83.25,69.95z M83.25,74.45l-0.9-0.9
	l-0.9,0.9l0.9,0.9L83.25,74.45z M83.25,78.95l-0.9-0.9l-0.9,0.9l0.9,0.9L83.25,78.95z M83.25,83.55l-0.9-0.9l-0.9,0.9l0.9,0.9
	L83.25,83.55z M83.25,88.05l-0.9-0.9l-0.9,0.9l0.9,0.9L83.25,88.05z M81.46,160.66l0.9,0.9l0.9-0.9l-0.9-0.9L81.46,160.66z
	 M85.56,58.55l-0.9-0.9l-0.9,0.9l0.9,0.9L85.56,58.55z M85.56,63.15l-0.9-0.9l-0.9,0.9l0.9,0.9L85.56,63.15z M85.56,67.65l-0.9-0.9
	l-0.9,0.9l0.9,0.9L85.56,67.65z M85.56,72.15l-0.9-0.9l-0.9,0.9l0.9,0.9L85.56,72.15z M85.56,76.75l-0.9-0.9l-0.9,0.9l0.9,0.9
	L85.56,76.75z M85.56,81.25l-0.9-0.9l-0.9,0.9l0.9,0.9L85.56,81.25z M85.56,85.75l-0.9-0.9l-0.9,0.9l0.9,1L85.56,85.75z
	 M85.56,90.35l-0.9-0.9l-0.9,0.9l0.9,0.9L85.56,90.35z M87.86,60.85l-0.9-0.9l-0.9,0.9l0.9,0.9L87.86,60.85z M87.86,65.35l-0.9-0.9
	l-0.9,0.9l0.9,0.9L87.86,65.35z M87.86,69.95l-0.9-0.9l-0.9,0.9l0.9,0.9L87.86,69.95z M87.86,74.45l-0.9-0.9l-0.9,0.9l0.9,0.9
	L87.86,74.45z M87.86,78.95l-0.9-0.9l-0.9,0.9l0.9,1L87.86,78.95z M87.86,83.55l-0.9-0.9l-0.9,0.9l0.9,0.9L87.86,83.55z
	 M87.86,88.05l-0.9-0.9l-0.9,0.9l0.9,0.9L87.86,88.05z M90.06,63.15l-0.9-0.9l-0.9,0.9l0.9,0.9L90.06,63.15z M90.06,67.65l-0.9-0.9
	l-0.9,0.9l0.9,0.9L90.06,67.65z M90.06,72.15l-0.9-0.9l-0.9,0.9l0.9,0.9L90.06,72.15z M90.06,76.75l-0.9-0.9l-0.9,0.9l0.9,0.9
	L90.06,76.75z M90.06,81.25l-0.9-0.9l-0.9,0.9l0.9,0.9L90.06,81.25z M90.06,85.75l-0.9-0.9l-0.9,0.9l0.9,1L90.06,85.75z
	 M90.06,90.35l-0.9-0.9l-0.9,0.9l0.9,0.9L90.06,90.35z M105.16,150.56l-11.2,11.2c-1.3,0.6-2.7,1.1-4.2,1.5l16.9-16.9
	C106.26,147.85,105.76,149.26,105.16,150.56z M92.36,60.85l-0.9-0.9l-0.9,0.9l0.9,0.9L92.36,60.85z M92.36,65.35l-0.9-0.9l-0.9,0.9
	l0.9,0.9L92.36,65.35z M92.36,69.95l-0.9-0.9l-0.9,0.9l0.9,0.9L92.36,69.95z M92.36,74.45l-0.9-0.9l-0.9,0.9l0.9,0.9L92.36,74.45z
	 M92.36,78.95l-0.9-0.9l-0.9,0.9l0.9,1L92.36,78.95z M92.36,83.55l-0.9-0.9l-0.9,0.9l0.9,0.9L92.36,83.55z M92.36,88.05l-0.9-0.9
	l-0.9,0.9l0.9,0.9L92.36,88.05z M94.66,63.15l-0.9-0.9l-0.9,0.9l0.9,0.9L94.66,63.15z M94.66,67.65l-0.9-0.9l-0.9,0.9l0.9,0.9
	L94.66,67.65z M94.66,72.15l-0.9-0.9l-0.9,0.9l0.9,0.9L94.66,72.15z M94.66,76.75l-0.9-0.9l-0.9,0.9l0.9,0.9L94.66,76.75z
	 M94.66,81.25l-0.9-0.9l-0.9,0.9l0.9,0.9L94.66,81.25z M94.66,85.75l-0.9-0.9l-0.9,0.9l0.4,0.4l0.5,0.6L94.66,85.75z M94.66,90.35
	l-0.9-0.9l-0.9,0.9l0.9,0.9L94.66,90.35z M96.86,65.35l-0.9-0.9l-0.9,0.9l0.9,0.9L96.86,65.35z M96.86,69.95l-0.9-0.9l-0.9,0.9
	l0.9,0.9L96.86,69.95z M96.86,74.45l-0.9-0.9l-0.9,0.9l0.9,0.9L96.86,74.45z M96.86,78.95l-0.9-0.9l-0.9,0.9l0.9,1L96.86,78.95z
	 M96.86,83.55l-0.9-0.9l-0.9,0.9l0.9,0.9L96.86,83.55z M96.86,88.05l-0.9-0.9l-0.9,0.9l0.9,0.9L96.86,88.05z M99.16,67.65l-0.9-0.9
	l-0.9,0.9l0.9,0.9L99.16,67.65z M99.16,72.15l-0.9-0.9l-0.9,0.9l0.9,1L99.16,72.15z M99.16,76.75l-0.9-0.9l-0.9,0.9l0.9,0.9
	L99.16,76.75z M99.16,81.25l-0.9-0.9l-0.9,0.9l0.2,0.3l0.7,0.6L99.16,81.25z M99.16,85.85l-0.9-1l-0.9,1l0.9,0.9L99.16,85.85z
	 M99.16,90.35l-0.9-0.9l-0.9,0.9l0.9,0.9L99.16,90.35z M98.16,159.46l4.7-4.7C101.56,156.56,99.96,158.06,98.16,159.46z
	 M101.46,65.35l-0.9-0.9l-0.9,0.9l0.9,0.9L101.46,65.35z M101.46,69.95l-0.9-0.9l-0.9,0.9l0.9,0.9L101.46,69.95z M101.46,74.45
	l-0.9-0.9l-0.9,0.9l0.9,0.9L101.46,74.45z M101.46,79.05l-0.5-0.6l-0.4-0.4l-0.9,1l0.2,0.2l0.2,0.1l0.5,0.6L101.46,79.05z
	 M101.46,83.55l-0.9-0.9l-0.9,0.9l0.9,0.9L101.46,83.55z M101.46,88.05l-0.9-0.9l-0.9,0.9l0.9,0.9L101.46,88.05z M101.86,72.15
	l0.9,1l0.9-1l-0.9-0.9L101.86,72.15z M103.76,76.75l-1-0.9l-0.9,0.9l0.3,0.2l0.1,0.2l0.5,0.5L103.76,76.75z M103.76,81.25l-1-0.9
	l-0.9,0.9l0.9,0.9L103.76,81.25z M102.76,86.75l0.9-0.9l-0.9-0.9l-0.9,0.9L102.76,86.75z M103.76,90.35l-1-0.9l-0.9,0.9l0.9,0.9
	L103.76,90.35z M104.16,74.45l0.9,0.9l0.9-0.9l-0.7-0.6l-0.2-0.3L104.16,74.45z M104.16,79.05l0.9,0.9l0.9-0.9l-0.9-1L104.16,79.05z
	 M104.16,83.55l0.9,0.9l0.9-0.9l-0.9-0.9L104.16,83.55z M105.96,88.05l-0.9-0.9l-0.9,0.9l0.9,0.9L105.96,88.05z M106.46,85.85
	l0.9,0.9l0.9-0.9l-0.9-0.9L106.46,85.85z M106.46,90.35l0.9,0.9l0.9-0.9l-0.9-0.9L106.46,90.35z"/>
</svg>
