<?xml version="1.0" encoding="utf-8"?>
<!-- Generator: Adobe Illustrator 27.0.1, SVG Export Plug-In . SVG Version: 6.00 Build 0)  -->
<svg version="1.1" id="Ebene_1" xmlns="http://www.w3.org/2000/svg" xmlns:xlink="http://www.w3.org/1999/xlink" x="0px" y="0px"
	 viewBox="0 0 108.91 239.51" style="enable-background:new 0 0 108.91 239.51;" xml:space="preserve">
<style type="text/css">
	.st0{fill:#1D1D1B;}
</style>
<path class="st0" d="M-0.19,90.36l33.2-33.2h3.1v0.5l-36.3,36.3V90.36z M-0.19,89.46v-3.7l28.7-28.6h3.6L-0.19,89.46z M-0.19,84.86
	v-3.6l24.1-24.1h3.6L-0.19,84.86z M-0.19,76.76l19.6-19.6h3.6l-23.2,23.2V76.76z M18.51,57.16l-18.7,18.7v-3.7l15-15H18.51z
	 M-0.19,71.26v-3.6l10.5-10.5h3.6L-0.19,71.26z M9.41,57.16l-9.6,9.6v-3.6l6-6H9.41z M-0.19,62.26v-3.7l1.4-1.4h3.7L-0.19,62.26z
	 M0.31,57.16l-0.5,0.5v-0.5H0.31z M-0.19,98.46v-3.6l36.3-36.3v3.7L-0.19,98.46z M-0.19,99.46l36.3-36.3v3.6l-36.3,36.3V99.46z
	 M-0.19,107.57v-3.6l36.3-36.3v3.6L-0.19,107.57z M36.11,75.86l-36.3,36.3v-3.7l36.3-36.3V75.86z M-0.19,113.07l2.6-2.7l0.2-0.1
	l33.5-33.5v3.6l-36.3,36.3V113.07z M-0.19,121.17v-3.6l36.3-36.3v3.6l-29.4,29.5L-0.19,121.17z M8.81,116.77l-9,9v-3.7l29.9-29.8
	l6.4-6.5v3.7l-27.2,27.1L8.81,116.77z M11.11,119.07l-11.3,11.2v-3.6l9.4-9.5l0.2-0.1l26.7-26.7v3.6l-24.9,24.9L11.11,119.07z
	 M-0.19,134.77v-3.6l36.3-36.3v3.6l-22.6,22.7L-0.19,134.77z M15.61,123.57l-15.8,15.8v-3.7l14-13.9l0.1-0.2l22.2-22.1v3.6
	l-20.4,20.3L15.61,123.57z M17.91,125.87l-18.1,18v-3.6l36.3-36.3v3.6l-18.1,18.1L17.91,125.87z M20.11,128.07l-20.3,20.3v-3.6
	l18.5-18.5l0.2-0.1l17.6-17.7v3.7l-15.8,15.8L20.11,128.07z M22.51,130.17l-22.7,22.8v-3.6l36.3-36.3v3.6L22.51,130.17z
	 M-0.19,157.47v-3.6l36.3-36.3v3.6l-34.1,34.2L-0.19,157.47z M4.41,157.47l-4.6,4.5v-3.6l36.3-36.3v3.7l-9,9l-0.2,0.1L4.41,157.47z
	 M-0.19,162.97l27.6-27.6l0.1-0.2l8.6-8.5v3.6l-36.3,36.3V162.97z M9.01,161.97l-9.2,9.1v-3.6l36.3-36.3v3.6l-4.5,4.5l-0.1,0.2
	L9.01,161.97z M-0.19,171.97l36.3-36.3v3.7l-36.3,36.3V171.97z M-0.19,176.57l36.3-36.3v3.6l-36.3,36.3V176.57z M15.61,168.97
	l-15.8,15.7v-3.6l36.3-36.3v3.6L15.61,168.97z M-0.19,185.57l36.3-36.2v3.6l-36.3,36.3V185.57z M-0.19,193.77v-3.6l36.3-36.3v3.6
	L-0.19,193.77z M-0.19,198.27v-3.6l36.3-36.3v3.6l-36.2,36.3H-0.19z M-0.19,202.27c0-0.5,0-1.5,0-3.1l36.3-36.2v3.6l-36.3,36.3
	V202.27z M70.41,238.57l-23.5-23.6l-10.8-10.7v3.1l9,9.1l22.1,22.1h-1.3l-29.8-29.8v3.2l26.6,26.6h-1.4l-25.2-25.2v3.1l22.1,22.1
	h-1.4l-20.7-20.7v3.1l17.5,17.6h-1.3l-16.2-16.2v3.2l13,13h-1.4l-11.6-11.6v3.1l8.5,8.5h-1.4l-7.1-7.1v3.1l3.9,4h-1.3l-2.6-2.6v2.6
	h-3l0.5-0.5l-0.5-0.5l-0.9,0.9c-1.2,0-2.3-0.1-3.5-0.2l0.3-0.2l-0.4-0.5l-0.7,0.7c-1.2-0.1-2.5-0.3-3.6-0.4l-0.3-0.3l-0.1,0.2
	l-3.1-0.6l1.4-1.4l-0.4-0.5l-1.6,1.6l0.2,0.2c-1.1-0.2-2.2-0.5-3.2-0.8l0.5-0.5l-0.5-0.5l-0.6,0.7c-0.9-0.3-1.8-0.6-2.6-1l1.4-1.5
	l-0.4-0.4l-1.6,1.6c-1.8-0.9-3.5-2-4.9-3.3l0.1-0.1l-0.4-0.5l-0.2,0.1c-0.6-0.6-1.1-1.2-1.7-1.9h0.1l-0.5-0.5
	c-1.1-1.5-2.1-3.2-2.9-5.2l1.1-1.1l-0.5-0.5l-0.9,1l-0.9-2.8c-0.3-1.2-0.6-2.4-0.9-3.6l0.9-0.9l-0.3-0.4l-0.1-0.1l-0.6,0.6
	c-0.2-1-0.3-2.1-0.5-3.2l1.5-1.5l-0.4-0.4l-1.1,1.1c-0.2-1.2-0.3-2.5-0.3-3.9l0.2,0.3l1.6-1.6l-0.4-0.4l-1.5,1.4
	c0-1.4-0.1-2.9-0.1-4.4l0.4,0.5l35.9-35.9v3.6l-31.8,31.8l0.5,0.5l22.6-22.7l0.2-0.1l8.5-8.6v3.7l-27.2,27.2l0.4,0.5l26.8-26.8v3.6
	l-22.7,22.7l0.5,0.5l22.2-22.3v3.6l-18.2,18.2l0.5,0.5l16-16l1.7-1.8v3.7l-13.6,13.6l0.4,0.5l13.2-13.2v3.6l-9.1,9.1l0.5,0.5
	l8.6-8.7v3.6l-4.6,4.6l0.5,0.5l4.1-4.2v3.7l35.7,35.7H70.41z M4.11,203.97l-0.4-0.4l-1.6,1.6l0.4,0.4L4.11,203.97z M4.11,208.57
	l-0.4-0.5l-1.6,1.6l0.4,0.4L4.11,208.57z M4.11,213.07l-0.4-0.5l-1.6,1.6l0.4,0.5L4.11,213.07z M4.11,217.57l-0.4-0.4l-1.6,1.6
	l0.4,0.4L4.11,217.57z M6.41,206.27l-0.5-0.5l-1.6,1.6l0.5,0.5L6.41,206.27z M6.41,210.77l-0.5-0.4l-1.6,1.6l0.5,0.4L6.41,210.77z
	 M6.41,215.37l-0.5-0.5l-1.6,1.6l0.5,0.4L6.41,215.37z M6.41,219.87l-0.5-0.5l-1.6,1.6l0.5,0.5L6.41,219.87z M6.41,224.37l-0.5-0.4
	l-1.6,1.6l0.5,0.4L6.41,224.37z M8.61,203.97l-0.4-0.4l-1.6,1.6l0.5,0.4v-0.1L8.61,203.97z M8.61,208.57l-0.3-0.4l-0.1-0.1l-1.6,1.6
	l0.1,0.1l0.4,0.3L8.61,208.57z M8.61,213.07l-0.4-0.5l-1.6,1.6l0.5,0.5L8.61,213.07z M8.61,217.57l-0.4-0.4l-1.6,1.6l0.5,0.4
	L8.61,217.57z M8.61,222.17l-0.4-0.5l-1.6,1.6l0.5,0.5L8.61,222.17z M8.61,226.67l-0.4-0.4l-1.6,1.5l0.5,0.5L8.61,226.67z
	 M10.51,205.77l-1.6,1.6l0.4,0.5l1.6-1.6L10.51,205.77z M10.91,210.77l-0.4-0.4l-1.6,1.6l0.4,0.4L10.91,210.77z M10.91,215.37
	l-0.4-0.5l-1.6,1.6l0.4,0.5L10.91,215.37z M10.91,219.87l-0.4-0.5l-1.6,1.6l0.4,0.5L10.91,219.87z M10.91,224.37l-0.4-0.4l-1.6,1.6
	l0.4,0.4L10.91,224.37z M10.91,228.97l-0.4-0.5l-1.6,1.6l0.4,0.5L10.91,228.97z M13.21,203.97l-0.5-0.4l-1.6,1.6l0.2,0.1l0.3,0.3
	L13.21,203.97z M13.21,208.57l-0.5-0.5l-1.6,1.6l0.5,0.4L13.21,208.57z M13.21,213.07l-0.5-0.5l-1.6,1.6l0.5,0.5L13.21,213.07z
	 M13.21,217.57l-0.5-0.4l-1.6,1.6l0.5,0.4L13.21,217.57z M13.21,222.17l-0.5-0.5l-1.6,1.6l0.5,0.5L13.21,222.17z M13.21,226.67
	l-0.5-0.4l-1.6,1.5l0.5,0.5L13.21,226.67z M13.21,231.17l-0.5-0.4l-1.6,1.6l0.5,0.4L13.21,231.17z M15.41,206.27l-0.4-0.5l-1.6,1.6
	l0.5,0.5L15.41,206.27z M15.41,210.77l-0.4-0.4l-1.6,1.6l0.5,0.4L15.41,210.77z M15.41,215.37l-0.4-0.5l-1.6,1.6l0.5,0.5
	L15.41,215.37z M15.41,219.87l-0.4-0.5l-1.6,1.6l0.5,0.5L15.41,219.87z M15.41,224.37l-0.4-0.4l-1.6,1.6l0.5,0.4L15.41,224.37z
	 M15.41,228.97l-0.4-0.5l-1.6,1.6l0.5,0.5L15.41,228.97z M17.71,203.97l-0.4-0.4l-1.6,1.6l0.4,0.4L17.71,203.97z M17.71,208.57
	l-0.4-0.5l-1.6,1.6l0.4,0.4L17.71,208.57z M17.71,213.07l-0.4-0.5l-1.6,1.6l0.4,0.5L17.71,213.07z M17.71,217.57l-0.4-0.4l-1.6,1.6
	l0.4,0.4L17.71,217.57z M17.71,222.17l-0.4-0.5l-1.6,1.6l0.4,0.5L17.71,222.17z M17.71,226.67l-0.4-0.4l-1.6,1.5l0.4,0.5
	L17.71,226.67z M17.71,231.17l-0.4-0.4l-1.6,1.6l0.4,0.4L17.71,231.17z M20.01,206.27l-0.5-0.5l-1.6,1.6l0.5,0.5L20.01,206.27z
	 M20.01,210.77l-0.5-0.4l-1.6,1.6l0.5,0.4L20.01,210.77z M20.01,215.37l-0.5-0.5l-1.6,1.6l0.5,0.5L20.01,215.37z M20.01,219.87
	l-0.5-0.4l-1.6,1.5l0.5,0.5L20.01,219.87z M20.01,224.37l-0.5-0.4l-1.6,1.6l0.5,0.4L20.01,224.37z M20.01,228.97l-0.5-0.5l-1.6,1.6
	l0.5,0.5L20.01,228.97z M20.01,233.47l-0.5-0.4l-1.6,1.5l0.5,0.5L20.01,233.47z M20.21,205.17l0.5,0.4l1.5-1.6l-0.4-0.4
	L20.21,205.17z M20.21,209.67l0.5,0.4l1.5-1.5l-0.4-0.5L20.21,209.67z M22.31,213.07l-0.5-0.5l-1.6,1.6l0.5,0.5L22.31,213.07z
	 M21.81,217.17l-1.6,1.6l0.5,0.4l1.6-1.6L21.81,217.17z M22.31,222.17l-0.5-0.5l-1.6,1.6l0.5,0.5L22.31,222.17z M22.31,226.67
	l-0.5-0.4l-1.6,1.5l0.5,0.5L22.31,226.67z M22.31,231.17l-0.5-0.4l-1.6,1.6l0.5,0.4L22.31,231.17z M24.51,206.27l-0.4-0.5l-1.6,1.6
	l0.4,0.5L24.51,206.27z M24.51,210.77l-0.4-0.4l-1.6,1.6l0.4,0.4L24.51,210.77z M24.51,215.37l-0.4-0.5l-1.6,1.6l0.4,0.5
	L24.51,215.37z M24.11,219.47l-1.6,1.5l0.4,0.5l1.6-1.6L24.11,219.47z M24.51,224.37l-0.4-0.4l-1.6,1.6l0.4,0.4L24.51,224.37z
	 M24.51,228.97l-0.4-0.5l-1.6,1.6l0.4,0.5L24.51,228.97z M24.51,233.47l-0.4-0.4l-1.6,1.5l0.4,0.5L24.51,233.47z M26.81,203.97
	l-0.5-0.4l-1.5,1.6l0.4,0.4L26.81,203.97z M26.81,208.57l-0.5-0.5l-1.5,1.6l0.4,0.5L26.81,208.57z M26.81,213.07l-0.5-0.4l-1.5,1.5
	l0.4,0.5L26.81,213.07z M26.81,217.57l-0.5-0.4l-1.5,1.6l0.4,0.4L26.81,217.57z M26.81,222.17l-0.5-0.5l-1.5,1.6l0.4,0.5
	L26.81,222.17z M26.81,226.67l-0.5-0.4l-1.5,1.5l0.4,0.5L26.81,226.67z M26.81,231.17l-0.5-0.4l-1.5,1.6l0.4,0.4L26.81,231.17z
	 M26.81,235.77l-0.5-0.5l-1.5,1.6l0.1,0.1l0.3,0.4L26.81,235.77z M29.11,206.27l-0.5-0.4l-1.6,1.5l0.5,0.5L29.11,206.27z
	 M29.11,210.77l-0.5-0.4l-1.6,1.6l0.5,0.4L29.11,210.77z M29.11,215.37l-0.5-0.5l-1.6,1.6l0.5,0.5L29.11,215.37z M29.11,219.87
	l-0.5-0.4l-1.6,1.5l0.5,0.5L29.11,219.87z M29.11,224.37l-0.5-0.4l-1.6,1.6l0.5,0.4L29.11,224.37z M29.11,228.97l-0.5-0.5l-1.6,1.6
	l0.5,0.5L29.11,228.97z M29.11,233.47l-0.4-0.3l-0.1-0.1l-1.6,1.6l0.1,0.1l0.4,0.3L29.11,233.47z M31.31,203.97l-0.4-0.4l-1.6,1.6
	l0.4,0.4L31.31,203.97z M31.31,208.57l-0.4-0.5l-1.6,1.6l0.4,0.5L31.31,208.57z M31.31,213.07l-0.4-0.5l-1.6,1.6l0.4,0.5
	L31.31,213.07z M31.31,217.57l-0.4-0.4l-1.6,1.6l0.4,0.4L31.31,217.57z M31.31,222.17l-0.4-0.5l-1.6,1.6l0.4,0.5L31.31,222.17z
	 M30.91,226.27l-1.6,1.6l0.4,0.4l1.6-1.6L30.91,226.27z M31.31,231.27l-0.3-0.4l-0.1-0.1l-1.6,1.6l0.4,0.4L31.31,231.27z
	 M31.31,235.77l-0.4-0.5l-1.6,1.6l0.4,0.5L31.31,235.77z M33.61,206.27l-0.5-0.4l-1.5,1.5l0.4,0.5L33.61,206.27z M33.61,210.77
	l-0.5-0.4l-1.5,1.6l0.4,0.4L33.61,210.77z M33.61,215.37l-0.5-0.5l-1.5,1.6l0.4,0.5L33.61,215.37z M33.61,219.87l-0.5-0.4l-1.5,1.6
	l0.4,0.4L33.61,219.87z M33.61,224.47l-0.5-0.5l-1.5,1.6l0.4,0.4L33.61,224.47z M33.11,228.47l-1.5,1.5v0.1l0.4,0.5l1.6-1.6
	L33.11,228.47z M33.61,233.47l-0.5-0.4l-1.5,1.6l0.4,0.4L33.61,233.47z M35.91,203.97l-0.5-0.4l-1.6,1.6l0.5,0.4L35.91,203.97z
	 M35.91,208.57l-0.5-0.5l-1.6,1.6l0.5,0.5L35.91,208.57z M35.91,213.07l-0.5-0.5l-1.6,1.6l0.5,0.5L35.91,213.07z M35.91,217.57
	l-0.5-0.4l-1.6,1.6l0.5,0.4L35.91,217.57z M35.91,222.17l-0.5-0.5l-1.6,1.6l0.5,0.5L35.91,222.17z M35.91,226.67l-0.5-0.4l-1.6,1.6
	l0.1,0.1l0.4,0.3L35.91,226.67z M35.91,231.27l-0.5-0.5l-1.6,1.6l0.5,0.4h0.1L35.91,231.27z M35.91,235.77l-0.5-0.5l-1.6,1.6
	l0.5,0.5L35.91,235.77z M108.71,170.67l-4.8,4.7l-22.8,22.8l-4.4,4.5l0.9,0.9l4.5-4.6l26.6-26.5v2.7l-2.5,2.5l-0.2,0.1l-22.5,22.5
	l-0.1,0.2l-2.2,2.2l0.9,0.9l26.6-26.6v2.7l-23,23l0.9,0.9l22.1-22.1v2.8l-18.4,18.4l0.9,0.9l17.5-17.5v2.7l-13.9,13.9l0.9,0.9l13-13
	v2.7l-9.4,9.4l0.9,0.9l8.5-8.5v2.8l-4.8,4.8l0.9,0.9l3.9-3.9v2.6v0.1l-0.3,0.3l0.3,0.2c-0.1,1.4-0.1,2.8-0.1,4.1l-0.2,0.2l0.1,0.1
	v1.3l-0.8-0.7l-1.6,1.6l0.9,0.9l1.4-1.4c0,1.3-0.2,2.5-0.3,3.8l-0.4-0.4l-1.6,1.6l0.9,0.9l0.9-0.9c-0.1,1.2-0.3,2.3-0.6,3.3
	l-1.2,1.2l0.8,0.8c-0.5,1.7-1,3.2-1.7,4.7l-1.3,1.3l0.4,0.5c-0.1,0.3-0.3,0.6-0.5,0.8l-0.6-0.6l-1.6,1.6l0.9,0.9l0.3-0.3
	c-1.3,1.8-2.8,3.3-4.5,4.5l1.3-1.3l-0.9-0.9l-1.6,1.6l0.8,0.9l-0.8,0.5l-0.7-0.7l-1.6,1.6l0.3,0.3c-0.3,0.1-0.6,0.3-1,0.4
	c-1.4,0.6-2.8,1.1-4.3,1.6l0.7-0.7l-0.9-0.9l-1.6,1.6l0.4,0.3c-1.6,0.4-3.3,0.7-5,0.9l-0.6-0.6l-0.8,0.8l-3,0.3l0.1-0.2l-0.9-0.9
	l-1.1,1.2c-0.9,0-1.8,0-2.8,0.1l0.3-0.4l-0.9-0.9l-1.2,1.3h-0.1v-2.6l-0.6-0.6l-0.2-0.1l-32.9-33h1.3l33,33l1.6-1.6l-0.9-0.9
	l-1.3,1.3v-2.6l-29.2-29.2h1.4l28.4,28.5l1.6-1.6l-0.9-0.9l-1.3,1.3v-2.7l-18.9-18.9l-5.8-5.7h1.4l23.9,23.9l1.6-1.6l-0.9-0.9
	l-1.3,1.3v-2.6l-20.1-20.1h1.3l19.4,19.4l1.6-1.6l-0.9-0.9l-1.3,1.3v-2.6l-15.6-15.6h1.4l14.8,14.8l1.6-1.5l-0.9-0.9l-1.3,1.3v-2.7
	l-11-11h1.3l10.3,10.3l1.6-1.6l-0.9-0.9l-1.3,1.3v-2.6l-6.5-6.5h1.4l5.8,5.8l1.5-1.6l-0.9-0.9l-1.3,1.3v-2.6l-2-2h1.4l1.3,1.2
	l35.6-35.6V170.67z M92.51,73.46l-20.1,20v-2.7l33.6-33.6h2.7L92.51,73.46z M104.21,57.16l-31.8,31.8v-2.7l16.4-16.5l12.7-12.6
	H104.21z M72.41,84.46v-2.8l14.2-14.1l0.1-0.2l10.3-10.2h2.7L72.41,84.46z M95.21,57.16l-22.8,22.7v-2.7l20-20H95.21z M83.41,64.36
	l-11,11v-2.7l9.6-9.7l0.2-0.1l5.7-5.7h2.7l-7.1,7L83.41,64.36z M81.11,62.06l-8.7,8.7v-2.7l7.5-7.5l3.5-3.4h2.7L81.11,62.06z
	 M81.51,57.16l-9.1,9.1v-2.7l6.4-6.4H81.51z M77.01,57.16l-4.6,4.6v-2.8l1.9-1.8H77.01z M72.41,95.26l36.3-36.3v2.8l-36.3,36.3
	V95.26z M95.81,76.46l12.9-12.9v2.7l-36.3,36.3v-2.7l23.2-23.3L95.81,76.46z M72.41,104.37l36.3-36.3v2.7l-9.3,9.3l-0.1,0.2
	l-26.9,26.8V104.37z M100.31,80.96l8.4-8.3v2.7l-36.3,36.3v-2.8l5.1-5L100.31,80.96z M108.71,77.16v2.7l-4.7,4.8l-0.2,0.1
	l-31.4,31.4v-2.7L108.71,77.16z M72.41,117.97l36.3-36.3v2.8l-36.3,36.2V117.97z M107.11,87.76l1.6-1.5v2.7l-36.3,36.3v-2.7
	l11.9-11.9l0.1-0.2l22.6-22.5L107.11,87.76z M72.41,127.07l36.3-36.3v2.7l-36.3,36.3V127.07z M72.41,131.57l36.3-36.3v2.7
	l-36.3,36.3V131.57z M108.71,99.87v2.7l-36.3,36.3v-2.8L108.71,99.87z M72.41,140.67l36.3-36.3v2.7l-36.3,36.3V140.67z
	 M108.71,111.67l-34.2,34.2l-2.1,2v-2.7l36.3-36.3V111.67z M108.71,116.17l-32,31.9l-0.1,0.2l-4.2,4.2v-2.7l36.3-36.3V116.17z
	 M108.71,120.67l-36.3,36.3v-2.7l36.3-36.3V120.67z M108.71,125.27l-36.3,36.3v-2.8l36.3-36.3V125.27z M108.71,129.77l-36.3,36.3
	v-2.7l36.3-36.3V129.77z M72.41,167.87l36.3-36.3v2.7l-36.3,36.3V167.87z M86.71,158.07l22-22v2.8l-20.6,20.6l-0.2,0.1l-15.5,15.6
	v-2.8l14.2-14.1L86.71,158.07z M72.41,176.97l36.3-36.3v2.7l-36.3,36.3V176.97z M108.71,145.17v2.7l-16.2,16.3l-20.1,20v-2.7
	L108.71,145.17z M93.51,164.87l15.2-15.1v2.7l-13.8,13.8l-0.2,0.1l-22.3,22.4v-2.8l21-20.9L93.51,164.87z M108.71,154.27v2.7
	l-36.3,36.3v-2.7l0.5-0.6L108.71,154.27z M72.41,195.07l36.3-36.3v2.7l-9.3,9.3l-0.1,0.2l-22.6,22.5l-0.1,0.2l-4.2,4.1V195.07z
	 M100.31,171.67l8.4-8.3v2.7l-29.7,29.7l-0.2,0.1l-6.4,6.5v-2.8l27.8-27.7L100.31,171.67z M76.01,203.37l-1.6,1.5l0.9,1l1.6-1.6
	L76.01,203.37z M75.31,210.37l1.6-1.6l-0.9-0.9l-1.6,1.6L75.31,210.37z M75.31,214.87l1.6-1.6l-0.9-0.9l-1.6,1.6L75.31,214.87z
	 M75.31,219.47l1.6-1.6l-0.9-0.9l-1.6,1.6L75.31,219.47z M75.31,223.97l1.6-1.6l-0.9-0.9l-1.6,1.6L75.31,223.97z M75.31,228.47
	l1.6-1.5l-0.9-1l-1.6,1.6L75.31,228.47z M75.31,233.07l1.6-1.6l-0.9-0.9l-1.6,1.6L75.31,233.07z M76.91,235.97l-0.9-0.9l-1.6,1.6
	l0.9,0.9L76.91,235.97z M76.61,207.17l1,0.9l1.5-1.6l-0.9-0.9L76.61,207.17z M79.11,233.77l-0.9-1l-1.6,1.6l1,0.9L79.11,233.77z
	 M78.21,210.17l-1.5,1.6l0.9,0.9l1.5-1.6L78.21,210.17z M78.21,214.67l-1.5,1.6l0.9,0.9l1.6-1.6L78.21,214.67z M76.71,220.77
	l0.9,0.9l1.6-1.6l-1-0.9L76.71,220.77z M76.71,225.37l0.9,0.9l1.6-1.6l-1-0.9L76.71,225.37z M76.71,229.87l0.9,0.9l1.5-1.6l-0.9-0.9
	L76.71,229.87z M78.91,204.87l0.9,1l1.6-1.6l-0.9-0.9L78.91,204.87z M81.41,208.77l-0.9-0.9l-1.6,1.6l0.9,0.9L81.41,208.77z
	 M81.41,213.27l-0.9-0.9l-1.6,1.6l0.9,0.9L81.41,213.27z M81.41,217.87l-0.9-0.9l-1.6,1.5l0.9,1L81.41,217.87z M78.91,223.07
	l0.9,0.9l1.6-1.6l-0.9-0.9L78.91,223.07z M78.91,227.57l0.9,0.9l1.6-1.6l-0.9-0.9L78.91,227.57z M78.91,232.17l0.9,0.9l1.6-1.6
	l-0.9-0.9L78.91,232.17z M81.41,235.97l-0.9-0.9l-1.6,1.6l0.9,0.9L81.41,235.97z M81.21,207.17l0.9,0.9l1.6-1.6l-0.9-0.9
	L81.21,207.17z M82.81,210.17l-1.6,1.6l0.9,0.9l1.6-1.6L82.81,210.17z M82.81,214.67l-1.6,1.6l0.9,0.9l1.6-1.6L82.81,214.67z
	 M82.81,219.17l-1.6,1.6l0.9,0.9l1.6-1.6L82.81,219.17z M81.51,225.67l0.6,0.6l1.6-1.6l-0.9-0.9l-1.6,1.5L81.51,225.67z
	 M82.11,230.77l1.6-1.6l-0.9-0.9l-1.6,1.6L82.11,230.77z M83.71,233.77l-0.9-1l-1.6,1.6l0.9,0.9L83.71,233.77z M83.51,204.87l0.9,1
	l1.5-1.6l-0.9-0.9L83.51,204.87z M86.01,208.77l-1-0.9l-1.5,1.6l0.9,0.9L86.01,208.77z M86.01,213.27l-1-0.9l-1.5,1.6l0.9,0.9
	L86.01,213.27z M86.01,217.87l-1-0.9l-1.5,1.5l0.9,1L86.01,217.87z M85.01,221.47l-1.5,1.6l0.9,0.9l1.6-1.6L85.01,221.47z
	 M83.51,227.57l0.9,0.9l1.6-1.6l-1-0.9L83.51,227.57z M83.51,232.17l0.9,0.9l1.6-1.6l-1-0.9L83.51,232.17z M85.91,235.97l-0.9-0.9
	l-1.5,1.6l0.9,0.9L85.91,235.97z M85.71,207.17l0.9,0.9l1.6-1.6l-0.9-0.9L85.71,207.17z M87.31,210.17l-1.6,1.5l0.9,1l1.6-1.6
	L87.31,210.17z M87.31,214.67l-1.6,1.6l0.9,0.9l1.6-1.6L87.31,214.67z M87.31,219.17l-1.6,1.6l0.9,0.9l1.6-1.6L87.31,219.17z
	 M86.61,226.27l1.6-1.6l-0.9-0.9l-1.6,1.5L86.61,226.27z M86.61,230.77l1.6-1.6l-0.9-0.9l-1.6,1.6L86.61,230.77z M88.21,233.77
	l-0.9-1l-1.6,1.6l0.9,0.9L88.21,233.77z M88.01,204.87l0.9,1l1.6-1.6l-0.9-0.9L88.01,204.87z M90.51,208.77l-0.9-0.9l-1.6,1.6
	l0.9,0.9L90.51,208.77z M90.51,213.27l-0.9-0.9l-1.6,1.6l0.9,0.9L90.51,213.27z M90.51,217.87l-0.9-0.9l-1.6,1.5l0.2,0.2l0.1,0.2
	l0.6,0.5L90.51,217.87z M88.91,223.97l1.6-1.6l-0.9-0.9l-1.6,1.6L88.91,223.97z M88.91,228.47l1.6-1.6l-0.9-0.9l-1.6,1.6
	L88.91,228.47z M90.51,231.47l-0.9-0.9l-1.6,1.6l0.9,0.9L90.51,231.47z M90.31,207.17l0.9,0.9l1.5-1.6l-0.9-0.9L90.31,207.17z
	 M91.91,210.17l-1.6,1.5l0.9,1l1.6-1.6L91.91,210.17z M91.91,214.67l-1.6,1.6l0.9,0.9l1.6-1.6L91.91,214.67z M91.81,219.17l-1.5,1.6
	l0.9,0.9l1.6-1.6L91.81,219.17z M90.31,225.27l0.9,1l1.6-1.6l-1-0.9L90.31,225.27z M90.31,229.87l0.9,0.9l1.6-1.6l-1-0.9
	L90.31,229.87z M92.71,233.77l-0.9-1l-1.5,1.6l0.9,0.9L92.71,233.77z M92.51,204.87l0.9,1l1.6-1.6l-0.9-0.9L92.51,204.87z
	 M94.11,207.87l-1.6,1.6l0.9,0.9l1.6-1.6L94.11,207.87z M95.01,213.27l-0.9-0.9l-1.6,1.6l0.9,0.9L95.01,213.27z M93.41,219.37
	l1.6-1.5l-0.9-0.9l-1.6,1.5L93.41,219.37z M93.41,223.97l1.6-1.6l-0.9-0.9l-1.6,1.6L93.41,223.97z M93.41,228.47l1.6-1.6l-0.9-0.9
	l-1.6,1.6L93.41,228.47z M95.01,231.47l-0.9-0.9l-1.6,1.6l0.9,0.9L95.01,231.47z M94.81,207.17l0.9,0.9l1.6-1.6l-0.9-0.9
	L94.81,207.17z M96.41,210.17l-1.6,1.5l0.4,0.4l0.5,0.6l1.6-1.6L96.41,210.17z M96.41,214.67l-1.6,1.6l0.9,0.9l1.6-1.6L96.41,214.67
	z M95.71,221.67l1.6-1.6l-0.9-0.9l-1.6,1.6L95.71,221.67z M95.71,226.27l1.6-1.6l-0.9-0.9l-1.6,1.6L95.71,226.27z M97.31,229.17
	l-0.9-0.9l-1.6,1.6l0.9,0.9L97.31,229.17z M97.11,204.87l0.9,1l1.6-1.6l-1-0.9L97.11,204.87z M99.61,208.77l-0.9-0.9l-1.6,1.6
	l0.9,0.9L99.61,208.77z M99.61,213.27l-0.9-0.9l-1.6,1.6l0.9,0.9L99.61,213.27z M98.01,219.37l1.6-1.5l-0.9-0.9l-1.6,1.5
	L98.01,219.37z M98.01,223.97l1.6-1.6l-0.9-0.9l-1.6,1.6L98.01,223.97z M99.61,226.97l-1-1l-1.5,1.6l0.9,0.9L99.61,226.97z
	 M99.31,207.17l0.9,0.9l1.6-1.6l-0.9-0.9L99.31,207.17z M100.91,210.17l-1.6,1.5l0.9,0.9l1.6-1.5L100.91,210.17z M100.21,217.17
	l1.6-1.6l-0.9-0.9l-1.6,1.6L100.21,217.17z M100.21,221.67l1.6-1.6l-0.9-0.9l-1.6,1.6L100.21,221.67z M101.81,224.67l-0.9-0.9
	l-1.6,1.6l0.9,0.9L101.81,224.67z M100.91,228.27l-1.6,1.6l0.9,0.9l1.6-1.6L100.91,228.27z M101.61,204.97l0.9,0.9l1.6-1.6l-0.9-0.9
	L101.61,204.97z M104.11,208.77l-0.9-0.9l-1.6,1.6l0.9,0.9L104.11,208.77z M104.11,213.27l-0.9-0.9l-1.6,1.6l0.9,0.9L104.11,213.27z
	 M102.51,219.37h0.1l1.5-1.5l-0.9-0.9l-1.5,1.5h-0.1L102.51,219.37z M104.11,222.37l-0.9-0.9l-1.6,1.6l0.9,0.9L104.11,222.37z
	 M103.91,207.17l0.9,0.9l1.6-1.6l-0.9-0.9L103.91,207.17z M105.51,210.17l-1.6,1.6l0.9,0.9l1.6-1.6L105.51,210.17z M105.51,214.67
	l-1.6,1.6l0.9,0.9l1.6-1.6L105.51,214.67z M105.51,219.17l-1.6,1.6l0.9,0.9l1.6-1.6L105.51,219.17z M106.11,204.97l0.9,0.9l1.6-1.6
	l-0.9-0.9L106.11,204.97z"/>
</svg>
